<?xml version="1.0" encoding="UTF-8"?>
<svg version="1.1" xmlns="http://www.w3.org/2000/svg" width="1920" height="1080">
<path d="M0 0 C633.6 0 1267.2 0 1920 0 C1920 356.4 1920 712.8 1920 1080 C1286.4 1080 652.8 1080 0 1080 C0 723.6 0 367.2 0 0 Z " fill="#2C2C2C" transform="translate(0,0)"/>
<path d="M0 0 C0.71956879 0.02013153 1.43913757 0.04026306 2.18051147 0.06100464 C15.21357605 0.471678 27.89027814 1.88242987 40.75 4 C41.68766205 4.15172668 42.6253241 4.30345337 43.59140015 4.45977783 C125.08453763 17.71747727 205.52435468 45.11879838 283.4375 98.75 C284.19998047 99.30042969 284.96246094 99.85085938 285.74804688 100.41796875 C287.84097743 101.93447968 289.93150306 103.45030688 292 105 C292.85416998 105.49986207 293.70833995 105.99972414 294.58839387 106.51473355 C298.15752453 110.19288006 297.68806386 113.33497042 297.61523914 118.28477097 C297.62100787 119.24028916 297.62677659 120.19580735 297.63272012 121.18028064 C297.64603051 124.40550951 297.62346801 127.62950923 297.60127258 130.85467529 C297.60345853 133.17476191 297.60784095 135.49484733 297.61424255 137.81492615 C297.62431314 143.54743745 297.61096039 149.27956862 297.58805907 155.01203523 C297.56161717 161.97024835 297.56458945 168.92837553 297.56840215 175.88662688 C297.57461757 188.66741368 297.55812479 201.44807216 297.52787781 214.2288208 C297.48705174 231.51017862 297.47736551 248.79131682 297.47302246 266.07275391 C297.44674727 307.63186208 297.37694203 349.19093349 297.3125 390.75 C297.209375 483.5625 297.10625 576.375 297 672 C-60.06 672 -417.12 672 -785 672 C-792.2397252 599.60274803 -772.27082439 515.59536226 -741.12890625 450.01953125 C-739.87609264 446.66857997 -739.74758413 445.31586757 -741 442 C-742.4061329 439.68798854 -742.4061329 439.68798854 -744.1875 437.4375 C-757.1797234 419.31746654 -761.52348478 398.31496764 -758.375 376.375 C-754.13492028 357.45547186 -745.14486203 340.99068778 -733 326 C-732.58524414 325.48373047 -732.17048828 324.96746094 -731.74316406 324.43554688 C-721.68832116 311.98237049 -710.62269253 300.86087074 -698 291 C-697.27683594 290.39800781 -696.55367187 289.79601562 -695.80859375 289.17578125 C-677.65927342 274.30202886 -653.75029111 265.89184606 -630.4375 264.5625 C-621.04025252 263.44927218 -615.07250261 257.53165315 -608.0625 251.67333984 C-597.66586647 243.23838172 -585.64406733 236.5337402 -574 230 C-573.24605957 229.57638184 -572.49211914 229.15276367 -571.71533203 228.71630859 C-533.75612393 207.62257101 -492.14964877 193.42917824 -451.00732422 179.96826172 C-396.0103141 162.35169502 -396.0103141 162.35169502 -342 142 C-340.78844238 141.50483887 -339.57688477 141.00967773 -338.32861328 140.49951172 C-309.9175494 128.84662911 -282.40635779 115.03692149 -255.85058594 99.63476562 C-250.45914911 96.54286249 -245.00461257 93.56397268 -239.5625 90.5625 C-230.97747857 85.81371433 -222.45767454 80.97192144 -214 76 C-193.29396329 63.84630759 -172.25424411 52.38138664 -150.87158203 41.46728516 C-148.42952801 40.21947486 -145.99301128 38.96182657 -143.55859375 37.69921875 C-99.56294149 15.05148188 -49.95177178 -1.40188996 0 0 Z " fill="#3E3E3E" transform="translate(1623,408)"/>
<path d="M0 0 C1.24841225 -0.00692307 2.49682451 -0.01384613 3.78306744 -0.02097899 C7.26140869 -0.03941978 10.73870035 -0.02032391 14.21696351 0.00468981 C17.99585797 0.02527176 21.77464452 0.01107481 25.55355996 0.00122488 C32.18072897 -0.01122899 38.80757514 -0.00133604 45.43470669 0.02305412 C55.28898365 0.05922074 65.14305647 0.06107306 74.9973877 0.05580219 C91.57272869 0.04791287 108.14792633 0.06798954 124.72322559 0.10390663 C141.13906405 0.13938715 157.55484282 0.16249792 173.97071934 0.16902351 C174.99072687 0.16943595 176.0107344 0.16984839 177.06165125 0.17027333 C182.24157946 0.17230327 187.42150772 0.1741116 192.60143604 0.17583458 C229.30789747 0.18844303 266.01428089 0.22888383 302.72069836 0.28565025 C338.38443111 0.34074058 374.04814253 0.38325022 409.71190929 0.40869713 C411.36036057 0.40988086 411.36036057 0.40988086 413.0421139 0.41108851 C424.07821799 0.41899951 435.11432224 0.42665441 446.15042664 0.43412167 C468.63301408 0.44933968 491.11560013 0.46626719 513.59818554 0.48422813 C514.63193894 0.48505187 515.66569233 0.48587561 516.73077159 0.48672432 C585.78400555 0.54194493 654.83719621 0.63701807 723.89037609 0.73828697 C723.93620786 35.15116895 723.97142285 69.56404394 723.99250675 103.97694988 C723.995008 108.0446938 723.99759666 112.11243767 724.00023937 116.1801815 C724.0010263 117.39484381 724.0010263 117.39484381 724.00182913 118.63404475 C724.01051893 131.72577881 724.02628102 144.8174952 724.04468168 157.9092188 C724.06342046 171.35417285 724.07450121 184.79911767 724.07855308 198.24408424 C724.0812899 206.53255005 724.089917 214.82096592 724.10620902 223.10941635 C724.11682506 228.80210002 724.11996632 234.49475807 724.11737885 240.1874509 C724.1161047 243.46610542 724.11909544 246.74465537 724.12878704 250.02329826 C724.23259806 286.96779457 714.74464737 312.43840606 688.89037609 338.73828697 C666.59699922 361.09384899 638.39329955 375.86427543 606.43732738 376.01407433 C604.97236908 376.0125021 603.50741057 376.00746231 602.0424757 375.99902916 C599.8267852 375.98828168 597.61190204 375.99900622 595.39623547 376.01172447 C587.05637811 376.01974033 579.07749721 375.44004794 570.89037609 373.73828697 C569.89368908 373.54694176 568.89700207 373.35559654 567.87011242 373.15845299 C551.63987722 369.91705104 535.58424691 360.20927413 525.89037609 346.73828697 C524.36746856 344.3786248 522.92648472 341.97875171 521.51537609 339.55078697 C521.16910168 338.95636803 520.82282726 338.36194908 520.46605968 337.74951744 C518.595257 334.4045785 517.54431376 331.49224049 516.89037609 327.73828697 C516.2760371 327.78395805 515.66169811 327.82962914 515.02874279 327.87668419 C508.47158857 328.36407391 501.91439177 328.85088801 495.35717297 329.33740807 C492.92942824 329.51760719 490.50169342 329.69793986 488.07396984 329.87842369 C485.71748856 330.05359402 483.36098719 330.22849423 481.00446606 330.40312767 C478.60260386 330.58145321 476.20082068 330.76084586 473.79911327 330.94124413 C467.84397819 331.38571135 461.88914542 331.80749739 455.92870617 332.17456627 C438.51819873 333.27129418 421.34779608 335.36493798 404.07787609 337.80078697 C371.63021827 342.3406979 371.63021827 342.3406979 359.89037609 342.73828697 C358.91963146 342.77639488 357.94888683 342.81450279 356.9487257 342.85376549 C324.70894118 343.85715367 295.42899896 337.66560099 270.89037609 315.73828697 C270.09760265 315.05379478 269.30482922 314.3693026 268.48803234 313.66406822 C265.90819633 311.4020078 263.39263655 309.08595376 260.89037609 306.73828697 C260.36572765 306.24763756 259.84107922 305.75698814 259.30053234 305.25147057 C230.41326628 278.00704268 212.68032786 244.17913597 203.89037609 205.73828697 C199.9957628 207.00238093 196.16004441 208.37640256 192.33764172 209.844244 C188.86638499 211.17253102 185.37924424 212.45711757 181.89037609 213.73828697 C180.87072765 214.11469322 179.85107922 214.49109947 178.80053234 214.87891197 C141.4286871 227.52012674 101.90863329 223.73220443 66.89037609 206.73828697 C65.92019543 206.26866539 65.92019543 206.26866539 64.93041515 205.7895565 C47.55410705 197.24612964 32.05334302 185.6756173 16.89037609 173.73828697 C15.95709484 173.0086776 15.02381359 172.27906822 14.06225109 171.52734947 C-13.75149513 149.54551778 -13.75149513 149.54551778 -24.10962391 136.73828697 C-24.87919422 135.81789635 -25.64876453 134.89750572 -26.44165516 133.94922447 C-41.26042955 115.83451055 -50.10674646 94.75037033 -48.34448719 71.07031822 C-45.82244033 46.02812318 -33.12964218 25.49270539 -17.10962391 6.73828697 C-16.49095961 5.71267674 -15.87229531 4.6870665 -15.23488361 3.63037717 C-11.29515241 -1.03429006 -5.65064312 -0.07627705 0 0 Z " fill="#3E3E3E" transform="translate(1196.1096239089966,-0.7382869720458984)"/>
<path d="M0 0 C1.83842366 1.53559294 3.67149553 3.0776091 5.5 4.625 C6.56508331 5.5143479 7.63018845 6.40366965 8.6953125 7.29296875 C23.21090478 19.4914393 36.70821026 32.74437538 50.125 46.125 C50.6881189 46.68544006 51.25123779 47.24588013 51.8314209 47.82330322 C57.41921478 53.39089731 62.95603479 58.96241098 68.08154297 64.96582031 C70.06941664 67.29105086 72.16396303 69.51290518 74.25 71.75 C79.54182076 77.55496702 84.37237691 83.66103698 89.15625 89.88720703 C90.43382555 91.53942047 91.72880114 93.17595375 93.03125 94.80859375 C122.52108694 132.18416241 143.42481884 177.88128576 138.03515625 226.3984375 C131.81014678 272.41780121 98.83392365 309.0308882 63.5 336.625 C62.79584961 337.17994141 62.09169922 337.73488281 61.36621094 338.30664062 C14.0681816 375.46798823 -27.23714812 389.9526572 -86.90283203 393.33151245 C-108.23783307 394.54344799 -129.45321586 395.96500605 -150.61132812 399.06445312 C-157.80138253 400.1008899 -165.00576978 401.03136281 -172.20825195 401.97683716 C-174.66225279 402.30091212 -177.11538159 402.63092696 -179.56835938 402.96264648 C-217.45621497 408.05673216 -257.36226869 409.04107756 -289.1875 384.8125 C-295.04068219 380.19399421 -300.58662699 375.23610789 -305.97314453 370.08447266 C-307.00315775 369.09991573 -308.03812459 368.1205186 -309.07763672 367.14599609 C-332.99632583 344.66722806 -349.19097191 316.55208427 -359.5 285.625 C-360.05647217 285.59583496 -360.61294434 285.56666992 -361.1862793 285.53662109 C-382.58879098 284.29811566 -401.30216821 279.0828223 -420.5 269.625 C-421.46147949 269.15755371 -421.46147949 269.15755371 -422.44238281 268.68066406 C-439.82672763 260.1376553 -455.33136658 248.56679138 -470.5 236.625 C-471.43328125 235.89539063 -472.3665625 235.16578125 -473.328125 234.4140625 C-502.42180467 211.4206705 -502.42180467 211.4206705 -512.5 198.625 C-512.9110498 198.10454102 -513.32209961 197.58408203 -513.74560547 197.04785156 C-528.88050396 177.69538284 -538.01508177 156.59803642 -535.5 131.625 C-530.862193 94.39569801 -502.83338025 63.00669387 -474.5 40.625 C-473.77296875 40.01914062 -473.0459375 39.41328125 -472.296875 38.7890625 C-444.90961092 16.37207968 -409.22887133 12.23467299 -375.0847168 12.30932617 C-372.06848172 12.31249372 -369.05322496 12.28888164 -366.03710938 12.26367188 C-336.98333515 12.16764322 -306.02298985 17.30962741 -284.5 38.625 C-265.55064488 60.54550836 -262.30352573 91.81107364 -259.5 119.625 C-230.145397 98.00619826 -213.89773076 66.74731015 -197.22909546 35.19235229 C-189.59275321 20.7487985 -181.63050549 6.49759721 -171.5 -6.375 C-170.89768555 -7.14553711 -170.89768555 -7.14553711 -170.28320312 -7.93164062 C-158.11675976 -23.35466582 -142.97326065 -35.67455777 -123.5 -40.375 C-122.69691406 -40.57738281 -121.89382813 -40.77976562 -121.06640625 -40.98828125 C-76.60434141 -50.25909477 -33.46260829 -27.11204029 0 0 Z " fill="#3E3E3E" transform="translate(542.5,605.375)"/>
<path d="M0 0 C29.09009689 3.57003456 58.1287102 2.98378387 87.37231445 2.05175781 C124.746283 0.87340698 165.01033578 0.65840646 195.21704102 25.96142578 C197.39653584 27.82779062 197.39653584 27.82779062 200.31079102 29.69580078 C200.31079102 30.35580078 200.31079102 31.01580078 200.31079102 31.69580078 C200.87411133 31.92654297 201.43743164 32.15728516 202.01782227 32.39501953 C224.28001954 45.02417063 238.12502935 82.83496507 244.65405273 106.17333984 C246.67259183 113.92633091 248.05424929 121.789012 249.31079102 129.69580078 C249.48868164 130.75009277 249.48868164 130.75009277 249.67016602 131.82568359 C257.60738674 180.27580175 247.70332242 228.87519078 219.12719727 268.85205078 C209.76926479 281.70425787 199.57986338 293.475302 188.31079102 304.69580078 C186.89083241 306.13783219 185.47164347 307.58062166 184.05297852 309.02392578 C175.79201666 317.39598362 167.65719861 325.53714489 158.31079102 332.69580078 C157.27310929 333.5429772 156.23810546 334.39344071 155.20532227 335.24658203 C105.6569221 375.81188769 42.68191419 389.01432331 -20.17041016 382.87573242 C-58.06081504 378.53361262 -91.61749049 367.09306589 -119.68920898 340.69580078 C-120.57479492 339.90689453 -120.57479492 339.90689453 -121.47827148 339.10205078 C-136.94435548 324.73545143 -146.63623269 304.59366032 -152.68920898 284.69580078 C-152.94299316 283.8645166 -153.19677734 283.03323242 -153.45825195 282.17675781 C-163.37913154 249.08875309 -165.70604456 214.78163661 -167.62451172 180.46850586 C-167.79051866 177.50349373 -167.96405532 174.53908781 -168.14501953 171.57495117 C-169.1487456 155.12322714 -169.85660052 138.71629826 -169.84936523 122.23095703 C-169.84955343 121.5278924 -169.84974163 120.82482777 -169.84993553 120.10045815 C-169.8123659 85.30805903 -164.96240716 49.38338456 -140.68920898 22.69580078 C-140.0769043 21.99068359 -139.46459961 21.28556641 -138.83374023 20.55908203 C-127.70183546 8.47776107 -111.78641407 1.20056825 -96.06420898 -2.61669922 C-95.40831787 -2.77630127 -94.75242676 -2.93590332 -94.07666016 -3.1003418 C-63.59113278 -9.87698229 -30.5263557 -3.7506323 0 0 Z " fill="#3E3E3E" transform="translate(748.689208984375,250.30419921875)"/>
<path d="M0 0 C156.42 0 312.84 0 474 0 C472.61207289 4.16378134 471.71582771 6.80833834 469.5234375 10.3359375 C469.02593994 11.14047363 468.52844238 11.94500977 468.01586914 12.77392578 C467.47438232 13.63228027 466.93289551 14.49063477 466.375 15.375 C465.80450928 16.28620605 465.23401855 17.19741211 464.64624023 18.13623047 C450.15192553 41.14066428 434.77283846 63.32797263 417.42382812 84.27197266 C416.13936123 85.8308644 414.87321063 87.40480439 413.609375 88.98046875 C408.19278456 95.73172266 402.41106074 102.0703951 396.50097656 108.38574219 C395.05884861 109.93670998 393.63186394 111.49992116 392.2109375 113.0703125 C383.92759162 122.22316445 375.45164435 131.23720583 366.03515625 139.2421875 C363.59171962 141.3526414 361.24081179 143.55292879 358.875 145.75 C353.06976784 151.04206246 346.96350175 155.87542717 340.73779297 160.66064453 C339.09029114 161.93041062 337.45205966 163.21111954 335.81640625 164.49609375 C299.39072569 192.91812914 257.91588567 216.38277686 214 231 C212.96246582 231.34627441 211.92493164 231.69254883 210.85595703 232.04931641 C148.84672 252.50624617 65.75484973 268.15096995 0 255 C0 170.85 0 86.7 0 0 Z " fill="#3E3E3E" transform="translate(0,0)"/>
<path d="M0 0 C1.40910842 -0.00768982 1.40910842 -0.00768982 2.84668368 -0.015535 C5.99652395 -0.0254233 9.14444941 0.00758967 12.29411316 0.04037476 C14.55097915 0.04206706 16.80784845 0.04111748 19.06471252 0.03771973 C25.19467483 0.03599599 31.32393481 0.0713083 37.45373368 0.11316347 C43.85855453 0.15063389 50.26339091 0.15419294 56.66830444 0.16131592 C67.41953509 0.17785461 78.17045827 0.21534885 88.92155457 0.26889038 C99.99445812 0.32397716 111.06729162 0.36644142 122.14030457 0.39193726 C123.16436712 0.39430177 123.16436712 0.39430177 124.20911781 0.39671405 C127.63411651 0.40454436 131.05911571 0.41212658 134.48411524 0.41958547 C162.89125502 0.48177075 191.29811459 0.58788284 219.70500183 0.7215271 C220.18520674 2.14961843 220.66432483 3.57807524 221.14299011 5.00668335 C221.40991669 5.80211548 221.67684326 6.59754761 221.95185852 7.41708374 C225.25262098 17.51664917 226.90807664 27.83941474 228.36198425 38.33383179 C230.85269857 56.28765545 235.07327778 72.98274079 240.87638855 90.19613647 C241.25166687 91.34404663 241.62694519 92.49195679 242.01359558 93.6746521 C242.36091736 94.71266968 242.70823914 95.75068726 243.06608582 96.82015991 C243.75246069 99.93704145 243.7065038 101.70898346 242.70500183 104.7215271 C240.86971377 106.68418531 239.11292569 108.37011406 237.08000183 110.0965271 C235.97894833 111.07089205 234.87868386 112.04614936 233.77922058 113.02230835 C233.24732117 113.48846558 232.71542175 113.9546228 232.16740417 114.43490601 C216.53668706 128.1868057 207.71266505 146.12055675 205.70500183 166.7215271 C205.02057135 179.42363914 205.50216334 192.0684012 206.70500183 204.7215271 C170.92880757 222.01533529 128.20619054 228.52637169 89.91838074 215.52377319 C82.99481382 213.01430475 76.32574696 209.934491 69.70500183 206.7215271 C68.73482117 206.25190552 68.73482117 206.25190552 67.74504089 205.77279663 C50.36873279 197.22936977 34.86796876 185.65885743 19.70500183 173.7215271 C18.77172058 172.99191772 17.83843933 172.26230835 16.87687683 171.5105896 C-10.93686939 149.52875791 -10.93686939 149.52875791 -21.29499817 136.7215271 C-22.06456848 135.80113647 -22.83413879 134.88074585 -23.62702942 133.9324646 C-38.44580381 115.81775068 -47.29212072 94.73361046 -45.52986145 71.05355835 C-43.00781459 46.01136331 -30.31501644 25.47594552 -14.29499817 6.7215271 C-13.61828221 5.69557119 -12.94156626 4.66961529 -12.24434376 3.61256981 C-8.80114057 -0.47986467 -5.05606923 -0.1008202 0 0 Z " fill="#515151" transform="translate(1193.2949981689453,-0.721527099609375)"/>
<path d="M0 0 C3.01623508 0.00316755 6.03149184 -0.02044453 9.04760742 -0.0456543 C38.10138165 -0.14168296 69.06172695 5.00030124 90.5847168 26.31567383 C106.33083943 44.5307007 109.76544626 67.34044616 113.5847168 90.31567383 C113.76478271 91.38180908 113.76478271 91.38180908 113.94848633 92.46948242 C116.0078508 104.73666541 116.0078508 104.73666541 115.5847168 108.31567383 C108.87837575 116.36328308 97.15585906 121.90650641 88.42749023 127.4934082 C83.44679189 130.68611968 78.48347247 133.90536354 73.5222168 137.12817383 C72.59578369 137.72573486 71.66935059 138.3232959 70.71484375 138.93896484 C43.02123509 156.92134476 18.80817563 176.71732939 11.5847168 210.31567383 C8.43674069 227.30640579 10.17623532 245.50420495 13.5847168 262.31567383 C13.79741211 263.43329102 14.01010742 264.5509082 14.22924805 265.70239258 C14.65751617 267.91151664 15.11568738 270.1148435 15.5847168 272.31567383 C-6.43531402 273.13970825 -25.8605128 266.80535666 -45.4152832 257.31567383 C-46.06207031 257.00259277 -46.70885742 256.68951172 -47.37524414 256.36694336 C-64.75155224 247.8235165 -80.25231628 236.25300416 -95.4152832 224.31567383 C-96.34856445 223.58606445 -97.2818457 222.85645508 -98.2434082 222.10473633 C-127.33708788 199.11134433 -127.33708788 199.11134433 -137.4152832 186.31567383 C-137.82633301 185.79521484 -138.23738281 185.27475586 -138.66088867 184.73852539 C-153.79578717 165.38605667 -162.93036497 144.28871024 -160.4152832 119.31567383 C-155.77747621 82.08637184 -127.74866346 50.6973677 -99.4152832 28.31567383 C-98.68825195 27.70981445 -97.9612207 27.10395508 -97.2121582 26.47973633 C-69.82489412 4.0627535 -34.14415453 -0.07465318 0 0 Z " fill="#515151" transform="translate(167.415283203125,617.684326171875)"/>
<path d="M0 0 C6.33175711 1.27461742 9.5021804 6.8987116 13 12 C18.3274217 20.46905733 22.35341647 29.33786966 25 39 C25.21269531 39.76570313 25.42539063 40.53140625 25.64453125 41.3203125 C31.98415496 66.77002494 28.39443692 94.68513676 15.14599609 117.15820312 C-2.57540764 145.63930022 -32.90534141 171.2597875 -66 179 C-75.30243454 180.9158143 -84.39397007 181.31516534 -93.84790039 181.26074219 C-96.06359089 181.24999471 -98.27847405 181.26071925 -100.49414062 181.2734375 C-108.83399798 181.28145335 -116.81287888 180.70176097 -125 179 C-126.49503052 178.71298218 -126.49503052 178.71298218 -128.02026367 178.42016602 C-144.25933562 175.17699925 -160.29247355 165.46809976 -170 152 C-171.52401965 149.66185526 -172.96499883 147.28341058 -174.375 144.875 C-174.72127441 144.28895996 -175.06754883 143.70291992 -175.42431641 143.09912109 C-177.51598175 139.38025544 -178.3991676 136.19115443 -179 132 C-178.27748047 131.89042969 -177.55496094 131.78085937 -176.81054688 131.66796875 C-126.1590679 123.79667132 -87.82638907 98.86351447 -50 65 C-49.4544043 64.51611816 -48.90880859 64.03223633 -48.34667969 63.53369141 C-27.6954669 45.16294353 -12.26435337 24.74771304 0 0 Z " fill="#515151" transform="translate(1892,194)"/>
<path d="M0 0 C45.54 0 91.08 0 138 0 C134.01550392 7.96899216 130.08467329 14.80572821 125 22 C124.29359375 23.00804688 123.5871875 24.01609375 122.859375 25.0546875 C111.58360479 40.43422442 97.66118726 53.20849465 82 64 C81.42169434 64.4017041 80.84338867 64.8034082 80.24755859 65.21728516 C73.94454735 69.57035308 67.49562819 73.69095704 61.02734375 77.79296875 C58.85140696 79.17423416 56.67562867 80.55574932 54.5 81.9375 C52.88146118 82.96375488 52.88146118 82.96375488 51.23022461 84.01074219 C44.38645412 88.38116829 37.73199316 92.90907143 31.32617188 97.90209961 C27.29775556 101 27.29775556 101 24 101 C16.57446594 79.6452078 10.40294806 58.8449003 7.47436523 36.38574219 C6.01752712 25.41104749 3.69178787 14.73100278 1 4 C0.67 2.68 0.34 1.36 0 0 Z " fill="#2C2C2C" transform="translate(1413,0)"/>
<path d="M0 0 C-3.30430353 4.2336389 -6.8270418 7.67211637 -10.8984375 11.1640625 C-17.5402093 16.96635385 -23.24470457 23.4296549 -28.69580078 30.34960938 C-29.59979775 31.4935666 -30.51007908 32.63257495 -31.42529297 33.76757812 C-41.40617639 46.162097 -49.78821274 59.38595399 -58 73 C-58.556875 73.91942383 -59.11375 74.83884766 -59.6875 75.78613281 C-63.5308215 82.14932436 -67.29112749 88.55758733 -71 95 C-71.57153809 95.99209473 -72.14307617 96.98418945 -72.73193359 98.00634766 C-87.94148318 124.55733915 -101.71586051 151.97487774 -114 180 C-114.66 180 -115.32 180 -116 180 C-117.53737693 177.90385149 -118.93908679 175.82567215 -120.3125 173.625 C-120.71694336 172.97942139 -121.12138672 172.33384277 -121.53808594 171.66870117 C-122.70465125 169.78650192 -123.85485432 167.89528691 -125 166 C-125.50402344 165.17886719 -126.00804687 164.35773438 -126.52734375 163.51171875 C-135.72330875 146.97073378 -138.16359492 125.18483429 -133 107 C-128.07803908 90.11004346 -120.07307002 75.66774979 -109 62 C-108.58524414 61.48373047 -108.17048828 60.96746094 -107.74316406 60.43554688 C-97.68832116 47.98237049 -86.62269253 36.86087074 -74 27 C-73.27683594 26.39800781 -72.55367187 25.79601562 -71.80859375 25.17578125 C-52.78821457 9.58817768 -24.81061617 -0.80034246 0 0 Z " fill="#515151" transform="translate(999,672)"/>
<path d="M0 0 C29.7 0 59.4 0 90 0 C90 83.82 90 167.64 90 254 C89.67 254 89.34 254 89 254 C88.97421875 253.30777344 88.9484375 252.61554688 88.921875 251.90234375 C87.80966552 232.71673017 80.88000474 211.49688911 66.875 197.875 C63.013878 193.72544105 63.013878 193.72544105 62.95703125 190.75390625 C63.6875 188.4375 63.6875 188.4375 64.75390625 185.97265625 C66.34134655 182.18569051 67.21675217 178.37016543 68.125 174.375 C68.37963013 173.31817017 68.37963013 173.31817017 68.6394043 172.23999023 C77.97036667 132.68612845 64.377151 91.02955084 43.77734375 57.3125 C33.04952686 40.16647288 20.67376209 24.14660082 7.3269043 8.97290039 C6.80652588 8.38114014 6.28614746 7.78937988 5.75 7.1796875 C5.29109375 6.66132324 4.8321875 6.14295898 4.359375 5.60888672 C2.83113467 3.80013964 1.42075699 1.89434265 0 0 Z " fill="#2C2C2C" transform="translate(1830,0)"/>
</svg>
