<?xml version="1.0" encoding="UTF-8"?>
<svg version="1.1" xmlns="http://www.w3.org/2000/svg" width="1080" height="1920">
<path d="M0 0 C356.4 0 712.8 0 1080 0 C1080 633.6 1080 1267.2 1080 1920 C723.6 1920 367.2 1920 0 1920 C0 1286.4 0 652.8 0 0 Z " fill="#2C2C2C" transform="translate(0,0)"/>
<path d="M0 0 C3.34573195 1.25086227 4.70868682 1.38016184 8.01953125 0.12890625 C10.22881617 -1.24651402 10.22881617 -1.24651402 12.39453125 -2.99609375 C30.04301702 -15.71031353 50.35458583 -20.09529604 71.7734375 -17.3984375 C107.3826104 -10.63309976 137.21266296 15.32092304 159.01953125 43.12890625 C159.6228125 43.85335937 160.22609375 44.5778125 160.84765625 45.32421875 C174.10589838 61.50882963 182.72332209 82.75248637 184.40234375 103.6171875 C185.60397843 116.43287688 190.07952568 123.47145395 198.36230469 133.13085938 C200.86828305 136.15220984 203.05519815 139.34955077 205.20703125 142.62890625 C205.80862061 143.54470459 205.80862061 143.54470459 206.42236328 144.47900391 C211.21796541 151.87521585 215.70517078 159.44333226 220.01953125 167.12890625 C220.43783203 167.87221191 220.85613281 168.61551758 221.28710938 169.38134766 C242.67352345 207.8034282 256.81729897 249.7482529 270.47528076 291.38459778 C273.96467637 302.0209071 277.49391005 312.64397891 281.02719116 323.26577759 C282.16724275 326.69666614 283.30317441 330.12889747 284.4387207 333.5612793 C301.89962899 386.19526122 322.54807107 437.18691674 350.36865234 485.24609375 C353.4631794 490.6498464 356.44948797 496.11393438 359.45703125 501.56640625 C364.20586686 510.15140113 369.04760896 518.67123028 374.01953125 527.12890625 C386.17489647 547.83779289 397.64109427 568.88048573 408.55664062 590.26611328 C409.79110889 592.68189681 411.0354554 595.09208192 412.28515625 597.5 C435.4925869 642.55005564 449.80362808 690.26710273 450.01953125 741.12890625 C450.02887695 741.95213379 450.03822266 742.77536133 450.04785156 743.62353516 C450.4029194 818.81721939 420.43015618 901.8070523 351.26953125 1024.56640625 C350.71910156 1025.32888672 350.16867187 1026.09136719 349.6015625 1026.87695312 C348.08505157 1028.96988368 346.56922437 1031.06040931 345.01953125 1033.12890625 C344.26973814 1034.41016121 344.26973814 1034.41016121 343.5047977 1035.71730012 C339.82665119 1039.28643078 336.68456083 1038.81697011 331.73476028 1038.74414539 C330.77924209 1038.74991412 329.8237239 1038.75568284 328.83925061 1038.76162637 C325.61402174 1038.77493676 322.39002202 1038.75237426 319.16485596 1038.73017883 C316.84476934 1038.73236478 314.52468392 1038.7367472 312.2046051 1038.7431488 C306.4720938 1038.75321939 300.73996263 1038.73986664 295.00749602 1038.71696532 C288.0492829 1038.69052342 281.09115572 1038.6934957 274.13290437 1038.6973084 C261.35211757 1038.70352382 248.57145909 1038.68703104 235.79071045 1038.65678406 C218.50935263 1038.61595799 201.22821443 1038.60627176 183.94677734 1038.60192871 C142.38766917 1038.57565352 100.82859776 1038.50584828 59.26953125 1038.44140625 C-79.94921875 1038.28671875 -79.94921875 1038.28671875 -221.98046875 1038.12890625 C-221.98046875 681.06890625 -221.98046875 324.00890625 -221.98046875 -43.87109375 C-149.47080082 -51.12206054 -65.56959178 -31.13895513 0 0 Z " fill="#3E3E3E" transform="translate(221.98046875,881.87109375)"/>
<path d="M0 0 C0.90194808 0.73728761 1.80389616 1.47457523 2.73317599 2.23420489 C5.75875138 4.68178218 5.75875138 4.68178218 9.02299809 6.23956811 C13.83998226 9.09219306 17.12687356 11.70408618 18.56047052 17.30128601 C19.64209735 25.3446364 19.45936008 33.4655409 19.34219432 41.56291838 C19.30083133 45.34285541 19.32946126 49.12237951 19.34912419 52.90240228 C19.37397159 59.52386968 19.35435316 66.14404138 19.3054657 72.76535797 C19.23297644 82.61068727 19.22944191 92.45520141 19.23996956 102.30074892 C19.2557294 118.86291327 19.21566706 135.42450274 19.14376068 151.98649979 C19.07274984 168.38427195 19.02656815 184.78180466 19.01352692 201.17972946 C19.01270204 202.1993933 19.01187717 203.21905713 19.01102729 204.26961987 C19.00696728 209.44800312 19.00335068 214.62638658 18.99990478 219.80477028 C18.97470154 256.48084966 18.89385828 293.15661631 18.78027344 329.83251953 C18.67005654 365.46205991 18.58505511 401.0915147 18.53417969 436.72119141 C18.53260137 437.8195013 18.53102306 438.91781119 18.52939692 440.04940319 C18.51357464 451.07910871 18.49826488 462.10881488 18.48333061 473.13852163 C18.45289626 495.60719404 18.41904123 518.07586087 18.38311768 540.54452515 C18.38064646 542.09412557 18.38064646 542.09412557 18.37812531 543.67503105 C18.26772212 612.6584841 18.07758023 681.64176366 17.875 750.625 C-17.04745146 750.69374525 -51.96988741 750.7465689 -86.89239199 750.77819599 C-91.02022107 750.78194787 -95.14805002 750.78583086 -99.27587891 750.78979492 C-100.5084849 750.79097532 -100.5084849 750.79097532 -101.76599203 750.79217956 C-115.05173329 750.80521483 -128.33743539 750.82885827 -141.62315346 750.85645839 C-155.26698835 750.88456497 -168.9108028 750.90118734 -182.55466545 750.90726548 C-190.9659956 750.91137106 -199.37721507 750.92431346 -207.78851114 750.9487494 C-213.56530061 750.96467152 -219.3420333 750.96938579 -225.11884309 750.96550413 C-228.44618385 750.96359257 -231.77317741 750.96808132 -235.10050964 750.98261642 C-252.80947629 751.05615483 -267.87700774 750.39384876 -284.125 742.625 C-285.47851562 741.97917969 -285.47851562 741.97917969 -286.859375 741.3203125 C-318.48166844 725.14359013 -343.14653476 693.75187515 -354.1171875 660.41796875 C-356.83016271 650.20750779 -357.44194486 640.58230465 -357.38574219 630.07348633 C-357.37503473 627.69521501 -357.38568418 625.31770141 -357.3984375 622.93945312 C-357.4062025 614.29947986 -356.91650848 606.11233235 -355.125 597.625 C-354.93365479 596.62976318 -354.74230957 595.63452637 -354.54516602 594.60913086 C-351.30874281 578.37773657 -341.59532522 562.31839448 -328.125 552.625 C-325.76533783 551.10209247 -323.36546474 549.66110863 -320.9375 548.25 C-320.34308105 547.90372559 -319.74866211 547.55745117 -319.13623047 547.20068359 C-315.79129153 545.32988091 -312.87895352 544.27893766 -309.125 543.625 C-309.23775269 542.28937012 -309.23775269 542.28937012 -309.3527832 540.92675781 C-309.64900422 537.39718252 -309.94254589 533.86740589 -310.23397827 530.33743286 C-310.37075995 528.68249558 -310.50815982 527.02760928 -310.64614868 525.37277222 C-311.44425191 515.77043158 -312.18004281 506.17189196 -312.7109375 496.55078125 C-314.13838663 471.33090186 -316.9747763 446.42374753 -320.34448242 421.40258789 C-320.51895401 420.10704987 -320.6934256 418.81151184 -320.8731842 417.47671509 C-321.20181607 415.05088668 -321.53341118 412.62545697 -321.86863708 410.20053101 C-327.04653958 372.35328427 -325.61398168 334.46220528 -301.81640625 302.9921875 C-297.73887989 297.79442863 -293.28220084 292.97027703 -288.68261719 288.23388672 C-287.12956748 286.62971782 -285.59974114 285.00557332 -284.0703125 283.37890625 C-258.13377921 256.19895223 -224.45732836 238.98567365 -188.125 230.625 C-187.465 230.625 -186.805 230.625 -186.125 230.625 C-186.50011719 229.84898437 -186.87523437 229.07296875 -187.26171875 228.2734375 C-203.85911832 193.23912808 -209.57608377 151.08449486 -196.92724609 113.83837891 C-194.41777765 106.91481199 -191.3379639 100.24574513 -188.125 93.625 C-187.65537842 92.65481934 -187.65537842 92.65481934 -187.17626953 91.66503906 C-178.63284267 74.28873096 -167.06233033 58.78796693 -155.125 43.625 C-154.39539063 42.69171875 -153.66578125 41.7584375 -152.9140625 40.796875 C-130.93223081 12.98312877 -130.93223081 12.98312877 -118.125 2.625 C-117.20460938 1.85542969 -116.28421875 1.08585937 -115.3359375 0.29296875 C-109.3581443 -4.59131413 -103.19377041 -8.68455 -96.375 -12.3125 C-95.69058838 -12.67778809 -95.00617676 -13.04307617 -94.30102539 -13.41943359 C-62.80277412 -29.59737673 -27.24815825 -20.0645529 0 0 Z " fill="#3E3E3E" transform="translate(1062.125,1169.375)"/>
<path d="M0 0 C1.92324853 1.49155161 3.84005128 2.99145534 5.75 4.5 C7.21953125 5.62728516 7.21953125 5.62728516 8.71875 6.77734375 C13.95684587 10.8456963 13.95684587 10.8456963 15.75 12.5 C15.75 13.16 15.75 13.82 15.75 14.5 C16.29269531 14.71785156 16.83539063 14.93570313 17.39453125 15.16015625 C20.54714753 16.95343549 22.91695659 19.37098923 25.4375 21.9375 C26.22870239 22.73667847 26.22870239 22.73667847 27.03588867 23.55200195 C31.9592814 28.59316849 36.40292167 33.95663267 40.75 39.5 C41.35328125 40.22445312 41.9565625 40.94890625 42.578125 41.6953125 C65.5040655 69.68148311 68.91545527 106.4762359 68.99023438 141.32641602 C68.99989715 144.03368377 69.03100791 146.7401761 69.0625 149.44726562 C69.23206389 177.22624689 63.85127742 205.49420208 45.15625 227.0703125 C41.07494988 231.19136554 36.66381903 234.43815678 31.75 237.5 C30.90566406 238.03238281 30.06132812 238.56476563 29.19140625 239.11328125 C12.00429568 248.76699938 -9.22242582 250.71013106 -28.41796875 253.13916016 C-31.70109564 253.55747581 -34.97551128 254.01929744 -38.25 254.5 C-16.63119826 283.854603 14.62768985 300.10226924 46.18264771 316.77090454 C60.6262015 324.40724679 74.87740279 332.36949451 87.75 342.5 C88.26369141 342.90154297 88.77738281 343.30308594 89.30664062 343.71679688 C104.72966582 355.88324024 117.04955777 371.02673935 121.75 390.5 C122.05357422 391.70462891 122.05357422 391.70462891 122.36328125 392.93359375 C129.53012879 427.3052095 116.91914029 462.20009588 98.2890625 490.71875 C91.60824105 500.73741065 84.53350145 510.30247455 76.75 519.5 C75.8606521 520.56508331 74.97133035 521.63018845 74.08203125 522.6953125 C61.8835607 537.21090478 48.63062462 550.70821026 35.25 564.125 C34.68955994 564.6881189 34.12911987 565.25123779 33.55169678 565.8314209 C27.98410269 571.41921478 22.41258902 576.95603479 16.40917969 582.08154297 C14.08394914 584.06941664 11.86209482 586.16396303 9.625 588.25 C3.82003298 593.54182076 -2.28603698 598.37237691 -8.51220703 603.15625 C-10.16442047 604.43382555 -11.80095375 605.72880114 -13.43359375 607.03125 C-50.6399434 636.38757082 -96.65871698 657.46529429 -144.97265625 652.0390625 C-191.03591615 645.74340055 -227.60732405 612.89610945 -255.25 577.5 C-255.80494141 576.79584961 -256.35988281 576.09169922 -256.93164062 575.36621094 C-295.31972175 526.506826 -308.44262355 483.9648934 -312.33128357 422.56906128 C-312.56777275 418.8515007 -312.81102072 415.13440989 -313.05722046 411.41748047 C-313.1873989 409.44739044 -313.31562668 407.47717069 -313.44204712 405.50683594 C-314.5972735 387.79395298 -316.67358373 370.25612929 -319.03753662 352.67333984 C-319.6827048 347.86715911 -320.31932285 343.05984403 -320.95323181 338.25216675 C-321.28825247 335.7161821 -321.62636999 333.18060373 -321.96827698 330.64553833 C-326.84604826 293.92900268 -326.80759193 255.51007519 -303.4375 224.8125 C-298.81899421 218.95931781 -293.86110789 213.41337301 -288.70947266 208.02685547 C-287.72491573 206.99684225 -286.7455186 205.96187541 -285.77099609 204.92236328 C-264.11314287 181.87717426 -234.90136294 162.88427867 -204.25 154.5 C-204.22083496 153.94352783 -204.19166992 153.38705566 -204.16162109 152.8137207 C-202.92311566 131.41120902 -197.7078223 112.69783179 -188.25 93.5 C-187.93836914 92.85901367 -187.62673828 92.21802734 -187.30566406 91.55761719 C-178.7626553 74.17327237 -167.19179138 58.66863342 -155.25 43.5 C-154.52039063 42.56671875 -153.79078125 41.6334375 -153.0390625 40.671875 C-130.10732323 11.65620491 -130.10732323 11.65620491 -117.25 1.5 C-116.74549316 1.09426758 -116.24098633 0.68853516 -115.72119141 0.27050781 C-79.58168711 -28.53739547 -36.88560907 -27.33487101 0 0 Z " fill="#3E3E3E" transform="translate(393.25,28.5)"/>
<path d="M0 0 C0.72125061 0.00060425 1.44250122 0.0012085 2.18560791 0.00183105 C37.46816383 0.08119382 73.87539445 4.51681676 101 29.1875 C101.70511719 29.79980469 102.41023438 30.41210938 103.13671875 31.04296875 C121.02999766 47.53009607 127.99564574 72.52574942 129.14038086 96.07543945 C129.92100725 119.79986305 126.97134685 143.0719196 124.1015625 166.5703125 C123.9672583 167.67221924 123.8329541 168.77412598 123.69458008 169.90942383 C123.45431492 171.85288497 123.20768575 173.79558059 122.9519043 175.73706055 C121.08018655 190.4260639 120.82946388 205.15129751 120.875 219.9375 C120.87588623 220.77967072 120.87677246 221.62184143 120.87768555 222.48953247 C120.891219 233.54519023 121.07031996 244.57694627 121.5 255.625 C122.99045854 294.5813892 122.85953403 334.61540619 97 366.1875 C96.18982422 367.33798828 96.18982422 367.33798828 95.36328125 368.51171875 C94.91339844 369.06472656 94.46351563 369.61773438 94 370.1875 C93.34 370.1875 92.68 370.1875 92 370.1875 C91.76925781 370.75082031 91.53851562 371.31414062 91.30078125 371.89453125 C79.26264039 393.1149177 43.18704688 407.03589302 20.98779297 413.45703125 C0.56397539 418.93968327 -19.96598282 421.41019947 -41.0625 421.375 C-41.78988373 421.37406342 -42.51726746 421.37312683 -43.26669312 421.37216187 C-98.42228206 421.21854199 -142.66931911 396.68411457 -181 358.1875 C-182.44203141 356.76754139 -183.88482088 355.34835245 -185.328125 353.9296875 C-193.70018284 345.66872565 -201.84134411 337.53390759 -209 328.1875 C-209.84717642 327.14981828 -210.69763993 326.11481444 -211.55078125 325.08203125 C-252.00849996 275.66504293 -265.30402574 212.37569003 -259.17993164 149.70410156 C-254.83485454 111.81387438 -243.3977952 78.25978221 -217 50.1875 C-216.4740625 49.59710937 -215.948125 49.00671875 -215.40625 48.3984375 C-179.47223176 9.71436684 -118.11463317 5.93032735 -69 3 C-66.38405681 2.83489726 -63.768171 2.66888271 -61.15234375 2.50195312 C-40.78402899 1.21724482 -20.41543877 -0.03255378 0 0 Z " fill="#3E3E3E" transform="translate(706,578.8125)"/>
<path d="M0 0 C84.15 0 168.3 0 255 0 C255 156.42 255 312.84 255 474 C250.41959399 472.473198 247.51957878 471.28942699 243.5859375 468.8046875 C242.58377197 468.1753833 241.58160645 467.5460791 240.54907227 466.89770508 C239.50162842 466.2302124 238.45418457 465.56271973 237.375 464.875 C235.75259399 463.84959106 235.75259399 463.84959106 234.09741211 462.8034668 C226.99543444 458.30274191 219.91504048 453.78446044 213 449 C212.38705078 448.5771875 211.77410156 448.154375 211.14257812 447.71875 C196.28131644 437.44006757 181.85714359 426.60180204 168 415 C167.50081055 414.58572754 167.00162109 414.17145508 166.48730469 413.74462891 C158.66762012 407.25385815 151.11746901 400.52522353 143.69873047 393.58105469 C141.91458184 391.920499 140.11706814 390.27543883 138.31640625 388.6328125 C132.78486435 383.57296939 127.37071895 378.58236274 122.5625 372.8125 C120.84630523 370.82171406 119.01259433 369.01610701 117.125 367.1875 C113.17125894 363.29470293 109.73187558 359.08473074 106.265625 354.7578125 C104.19708946 352.23990544 102.04435843 349.87238285 99.8125 347.5 C81.16317302 326.88927828 65.53094482 301.65786062 52.26123047 277.30810547 C51.08983041 275.16439348 49.89414023 273.03639025 48.69140625 270.91015625 C38.14725922 251.97772003 30.01401638 231.47945217 23 211 C22.75620605 210.30374512 22.51241211 209.60749023 22.26123047 208.89013672 C0.92364853 147.46118326 -4.03694078 80.41109057 -1.5625 15.875 C-1.52334473 14.84455566 -1.48418945 13.81411133 -1.44384766 12.75244141 C-1.24807609 8.32020321 -0.87667928 4.38339641 0 0 Z " fill="#3E3E3E" transform="translate(825,0)"/>
<path d="M0 0 C0.90184399 0.72828066 1.80368797 1.45656132 2.73286057 2.20691109 C5.78924727 4.66096867 5.78924727 4.66096867 9.02583694 6.48521233 C13.26570684 9.25300267 16.98166223 11.78186635 18.55431271 16.78697824 C19.66906572 23.4012778 19.37760055 30.1010823 19.23730469 36.78173828 C19.23391686 39.0393404 19.23582556 41.29695572 19.24261475 43.55455017 C19.24605012 49.66443427 19.17563408 55.77147653 19.09172726 61.88070154 C19.01657785 68.27203515 19.00965212 74.66343802 18.99542236 81.05514526 C18.96239321 91.77694011 18.88750429 102.497496 18.78027344 113.21875 C18.66998312 124.25743445 18.58511302 135.29583614 18.53417969 146.33496094 C18.53102701 147.01635569 18.52787432 147.69775044 18.52462611 148.39979352 C18.5089647 151.81843772 18.49380044 155.23708392 18.47888327 158.65573144 C18.35465092 186.97953562 18.14254612 215.30221195 17.875 243.625 C15.31181495 244.43995819 12.74762363 245.25147257 10.18273926 246.06105042 C9.46087055 246.29095374 8.73900185 246.52085706 7.99525833 246.75772715 C2.97774302 248.33750728 -1.93256191 249.54393358 -7.15625 250.21484375 C-8.71233861 250.44055221 -10.26840894 250.66638673 -11.82446289 250.89233398 C-13.00082809 251.0558284 -13.00082809 251.0558284 -14.20095825 251.22262573 C-34.8749243 254.12131717 -54.8010055 258.3132185 -74.44360352 265.52905273 C-82.37029367 268.36244643 -82.37029367 268.36244643 -86.125 266.625 C-88.08765821 264.78971194 -89.77358696 263.03292386 -91.5 261 C-92.47436495 259.8989465 -93.44962226 258.79868203 -94.42578125 257.69921875 C-94.89193848 257.16731934 -95.3580957 256.63541992 -95.83837891 256.08740234 C-109.41216262 240.65913584 -127.73325032 231.74015631 -148.125 229.625 C-152.54252059 229.48496761 -156.95560046 229.48551017 -161.375 229.5 C-162.53902344 229.49613281 -163.70304688 229.49226563 -164.90234375 229.48828125 C-172.03199097 229.49626518 -179.03874684 229.83503933 -186.125 230.625 C-203.41880819 194.84880574 -209.92984459 152.12618871 -196.92724609 113.83837891 C-194.41777765 106.91481199 -191.3379639 100.24574513 -188.125 93.625 C-187.65537842 92.65481934 -187.65537842 92.65481934 -187.17626953 91.66503906 C-178.63284267 74.28873096 -167.06233033 58.78796693 -155.125 43.625 C-154.39539063 42.69171875 -153.66578125 41.7584375 -152.9140625 40.796875 C-130.93223081 12.98312877 -130.93223081 12.98312877 -118.125 2.625 C-117.20460938 1.85542969 -116.28421875 1.08585937 -115.3359375 0.29296875 C-109.3581443 -4.59131413 -103.19377041 -8.68455 -96.375 -12.3125 C-95.69058838 -12.67778809 -95.00617676 -13.04307617 -94.30102539 -13.41943359 C-62.80277412 -29.59737673 -27.24815825 -20.0645529 0 0 Z " fill="#515151" transform="translate(1062.125,1169.375)"/>
<path d="M0 0 C1.92324853 1.49155161 3.84005128 2.99145534 5.75 4.5 C6.7296875 5.25152344 7.709375 6.00304687 8.71875 6.77734375 C13.95684587 10.8456963 13.95684587 10.8456963 15.75 12.5 C15.75 13.16 15.75 13.82 15.75 14.5 C16.56404297 14.82677734 16.56404297 14.82677734 17.39453125 15.16015625 C20.54714753 16.95343549 22.91695659 19.37098923 25.4375 21.9375 C26.22870239 22.73667847 26.22870239 22.73667847 27.03588867 23.55200195 C31.9592814 28.59316849 36.40292167 33.95663267 40.75 39.5 C41.35328125 40.22445312 41.9565625 40.94890625 42.578125 41.6953125 C65.5040655 69.68148311 68.91545527 106.4762359 68.99023438 141.32641602 C68.99989715 144.03368377 69.03100791 146.7401761 69.0625 149.44726562 C69.23206389 177.22624689 63.85127742 205.49420208 45.15625 227.0703125 C41.07494988 231.19136554 36.66381903 234.43815678 31.75 237.5 C30.90566406 238.03238281 30.06132812 238.56476563 29.19140625 239.11328125 C12.0712919 248.7293687 -9.20491294 250.81075716 -28.34985352 253.12475586 C-30.14317097 253.35678961 -31.93261083 253.62630908 -33.71069336 253.95532227 C-38.72221798 254.85284862 -38.72221798 254.85284862 -41.32421875 253.11328125 C-41.85660156 252.35402344 -42.38898438 251.59476562 -42.9375 250.8125 C-43.60007812 249.884375 -44.26265625 248.95625 -44.9453125 248 C-45.71747005 246.8359296 -46.48532214 245.66899741 -47.25 244.5 C-47.7047168 243.81679688 -48.15943359 243.13359375 -48.62792969 242.4296875 C-51.94631255 237.4336173 -55.19440611 232.39417449 -58.42773438 227.34277344 C-61.62044585 222.36207509 -64.83968971 217.39875567 -68.0625 212.4375 C-68.66006104 211.51106689 -69.25762207 210.58463379 -69.87329102 209.63012695 C-87.85567094 181.93651829 -107.65165557 157.72345884 -141.25 150.5 C-158.17664773 147.32887865 -176.52104724 148.90143199 -193.25 152.5 C-195.29148765 152.89675555 -197.33312245 153.29275594 -199.375 153.6875 C-201.293125 154.0896875 -201.293125 154.0896875 -203.25 154.5 C-204.07403442 132.47996918 -197.73968283 113.05477041 -188.25 93.5 C-187.78037842 92.52981934 -187.78037842 92.52981934 -187.30126953 91.54003906 C-178.75784267 74.16373096 -167.18733033 58.66296693 -155.25 43.5 C-154.52039063 42.56671875 -153.79078125 41.6334375 -153.0390625 40.671875 C-130.10732323 11.65620491 -130.10732323 11.65620491 -117.25 1.5 C-116.74549316 1.09426758 -116.24098633 0.68853516 -115.72119141 0.27050781 C-79.58168711 -28.53739547 -36.88560907 -27.33487101 0 0 Z " fill="#515151" transform="translate(393.25,28.5)"/>
<path d="M0 0 C0.10957031 0.72251953 0.21914063 1.44503906 0.33203125 2.18945312 C8.20332868 52.8409321 33.13648553 91.17361093 67 129 C67.48388184 129.5455957 67.96776367 130.09119141 68.46630859 130.65332031 C86.83705647 151.3045331 107.25228696 166.73564663 132 179 C130.72329694 185.34211764 125.09586415 188.48299201 120 192 C97.48508115 206.48068123 68.3751598 210.93933885 42.1875 205.8125 C35.8563035 204.15617231 29.89849044 201.82031647 24 199 C22.64648438 198.35417969 22.64648438 198.35417969 21.265625 197.6953125 C-10.35666844 181.51859013 -35.02153476 150.12687515 -45.9921875 116.79296875 C-48.70516271 106.58250779 -49.31694486 96.95730465 -49.26074219 86.44848633 C-49.25003473 84.07021501 -49.26068418 81.69270141 -49.2734375 79.31445312 C-49.2812025 70.67447986 -48.79150848 62.48733235 -47 54 C-46.80865479 53.00476318 -46.61730957 52.00952637 -46.42016602 50.98413086 C-43.18725684 34.77036023 -33.4760191 18.6661591 -20 9 C-5.78049908 0 -5.78049908 0 0 0 Z " fill="#515151" transform="translate(754,1713)"/>
<path d="M0 0 C0 45.54 0 91.08 0 138 C-7.96899216 134.01550392 -14.80572821 130.08467329 -22 125 C-23.00804687 124.29359375 -24.01609375 123.5871875 -25.0546875 122.859375 C-47.30681653 106.54484648 -62.34333191 84.95180257 -77.10546875 62.02734375 C-81.24265962 55.60500881 -85.45483335 49.23464211 -89.6875 42.875 C-90.69466064 41.35483276 -90.69466064 41.35483276 -91.72216797 39.80395508 C-92.35396973 38.85544678 -92.98577148 37.90693848 -93.63671875 36.9296875 C-94.19061279 36.09679199 -94.74450684 35.26389648 -95.31518555 34.40576172 C-97.01216706 31.90618224 -97.01216706 31.90618224 -99.21020508 29.37939453 C-101 27 -101 27 -101 24 C-76.80028017 15.56080836 -53.29491199 9.30706043 -27.84448242 5.8737793 C-19.87431954 4.77098683 -12.38111306 3.16102827 -4.6953125 0.78930664 C-2 0 -2 0 0 0 Z " fill="#2C2C2C" transform="translate(1080,1413)"/>
<path d="M0 0 C15.23346904 11.80998996 29.08716069 24.55882118 41 39.75 C41.60328125 40.47445312 42.2065625 41.19890625 42.828125 41.9453125 C59.8077789 62.67272784 65.48693256 87.67322964 68 113.75 C64.58123693 110.97764171 61.44246097 108.33418518 58.625 104.9375 C52.26008975 97.51640378 45.32992678 91.10364515 37.65039062 85.05419922 C36.5064334 84.15020225 35.36742505 83.23992092 34.23242188 82.32470703 C21.837903 72.34382361 8.61404601 63.96178726 -5 55.75 C-5.91942383 55.193125 -6.83884766 54.63625 -7.78613281 54.0625 C-14.14932436 50.2191785 -20.55758733 46.45887251 -27 42.75 C-27.99209473 42.17846191 -28.98418945 41.60692383 -30.00634766 41.01806641 C-56.80324869 25.66764926 -84.41870921 11.48518439 -113 -0.25 C-82.53640587 -33.04818732 -32.32778278 -23.64717444 0 0 Z " fill="#515151" transform="translate(340,885.25)"/>
<path d="M0 0 C0 29.7 0 59.4 0 90 C-82.83 90 -165.66 90 -251 90 C-251 89.67 -251 89.34 -251 89 C-249.88625 88.85304688 -248.7725 88.70609375 -247.625 88.5546875 C-228.6449513 85.84684209 -212.07534405 79.65287526 -197.41015625 66.953125 C-193.36269019 63.67316871 -193.36269019 63.67316871 -191 63 C-187.9609375 63.79296875 -187.9609375 63.79296875 -184.375 65.1875 C-148.51768286 78.06555374 -110.03939744 69.80392283 -76.5078125 54.203125 C-49.16978777 41.08768634 -25.03572937 22.0345185 -2.828125 1.58203125 C-1 0 -1 0 0 0 Z " fill="#2C2C2C" transform="translate(1080,1830)"/>
</svg>
