<svg version="1.1" xmlns="http://www.w3.org/2000/svg" width="1920" height="1080" xmlns:xlink="http://www.w3.org/1999/xlink" transform="matrix(6.123233995736766e-17,1,-1,6.123233995736766e-17,0,0)">
  <path d="M0 0 C633.6 0 1267.2 0 1920 0 C1920 356.4 1920 712.8 1920 1080 C1286.4 1080 652.8 1080 0 1080 C0 723.6 0 367.2 0 0 Z " fill="#D4D4D4" transform="translate(0,0)"></path>
  <path d="M0 0 C0.67951721 0.11835205 1.35903442 0.2367041 2.05914307 0.35864258 C21.86391106 3.82936553 41.49330267 8.13362995 61 13 C62.03688965 13.2582959 63.0737793 13.5165918 64.14208984 13.78271484 C121.3844237 28.31496885 177.4622299 53.48892213 226.3125 86.5625 C227.18334229 87.15135986 228.05418457 87.74021973 228.95141602 88.34692383 C230.65817427 89.5169838 232.3475064 90.71296176 234.01642162 91.93639386 C236.98251254 94.07225152 236.98251254 94.07225152 240.3209402 95.77184188 C244.83950619 98.49081363 248.97321988 100.99498433 250.74661566 106.18507519 C251.9849425 112.91684824 251.68624717 119.76221273 251.56330872 126.57620239 C251.56899849 128.90149421 251.58040449 131.22677788 251.59703064 133.55201721 C251.6231151 139.27487828 251.5886804 144.99515011 251.52895359 150.71770611 C251.45996686 157.66814487 251.46794984 164.61801027 251.47784558 171.56870945 C251.49397617 184.33360758 251.45124903 197.09763492 251.3724823 209.86227417 C251.26616624 227.12195967 251.24113988 244.38015699 251.2298584 261.64038086 C251.16159642 303.13543097 250.98010192 344.63023222 250.8125 386.125 C250.4103125 525.158125 250.4103125 525.158125 250 667 C-107.39 667 -464.78 667 -833 667 C-833 617.24424737 -833 617.24424737 -830.75 600.6875 C-830.51665512 598.83139433 -830.28475144 596.97510697 -830.05419922 595.11865234 C-828.47873993 582.66212499 -826.71738779 570.26397167 -824 558 C-823.75523926 556.8759375 -823.51047852 555.751875 -823.25830078 554.59375 C-808.040794 485.31907477 -780.57212938 418.10619033 -744.72070312 356.9453125 C-743.14355021 354.24571363 -741.58390416 351.53663421 -740.02983093 348.82369995 C-727.84477323 327.56800811 -715.26204693 306.59581625 -699.37890625 287.8515625 C-697.03805634 285.26741576 -697.03805634 285.26741576 -696 283 C-695.34 283 -694.68 283 -694 283 C-693.73372803 282.40920654 -693.46745605 281.81841309 -693.19311523 281.2097168 C-691.97331824 278.95058387 -690.7157357 277.45754434 -688.91015625 275.64453125 C-688.29640137 275.02666748 -687.68264648 274.40880371 -687.05029297 273.7722168 C-686.39432129 273.12551025 -685.73834961 272.47880371 -685.0625 271.8125 C-684.38590332 271.1419458 -683.70930664 270.4713916 -683.01220703 269.78051758 C-677.61117855 264.48495297 -671.99238777 259.61877453 -666 255 C-664.99710938 254.20335937 -663.99421875 253.40671875 -662.9609375 252.5859375 C-622.15963863 220.35755218 -573.58285655 201.10336474 -525 184 C-523.85564484 183.59651337 -523.85564484 183.59651337 -522.68817139 183.18487549 C-505.66571933 177.18979535 -488.54870536 171.5064148 -471.37765503 165.95281982 C-413.68795412 147.2936403 -357.5447768 126.07576334 -304.90625 95.66259766 C-299.53395243 92.58923186 -294.10588353 89.61608972 -288.6875 86.625 C-278.56292666 81.02062214 -268.51554509 75.29406265 -258.50219727 69.49365234 C-248.60829083 63.76374163 -238.67479367 58.10736661 -228.70214844 52.515625 C-226.92298792 51.51770049 -225.14496106 50.51775169 -223.36816406 49.515625 C-212.16572172 43.20391194 -200.84307285 37.3703132 -189.16064453 31.99804688 C-187.17214852 31.079519 -185.19199369 30.14577467 -183.21484375 29.203125 C-179.49057753 27.43622612 -175.75359293 25.70349171 -172 24 C-170.87682373 23.49001465 -170.87682373 23.49001465 -169.73095703 22.96972656 C-114.81624086 -1.75022454 -59.3068929 -10.37191187 0 0 Z " fill="#9a9a9a" transform="translate(1670,413)"></path>
  <path d="M0 0 C2.73010965 2.13971948 5.40379371 4.34119843 8.06054688 6.57104492 C8.6607666 7.07120117 9.26098633 7.57135742 9.87939453 8.08666992 C15.9338457 13.14691977 21.93553544 18.21173342 27.40209961 23.91308594 C28.97980081 25.49032263 30.61011479 26.91106127 32.31835938 28.34448242 C38.50925187 33.72833012 44.25600845 39.58048952 50.05419922 45.37939453 C52.0782673 47.40124594 54.11024422 49.41492819 56.14257812 51.4284668 C57.42822185 52.71118152 58.71339576 53.99436734 59.99804688 55.27807617 C60.91191162 56.18116264 60.91191162 56.18116264 61.84423828 57.10249329 C66.06054688 61.34218415 66.06054688 61.34218415 66.06054688 63.57104492 C66.72054688 63.57104492 67.38054687 63.57104492 68.06054688 63.57104492 C69.33007813 64.79370117 69.33007813 64.79370117 70.87304688 66.63354492 C73.20043747 69.37928879 75.53272347 72.11549354 77.91992188 74.80932617 C115.64364261 117.51076797 145.21264019 166.88007332 142.06054688 225.57104492 C141.33457033 232.38379705 139.84875257 238.96670541 138.06054688 245.57104492 C137.733125 246.83303711 137.40570312 248.0950293 137.06835938 249.39526367 C131.94423458 266.69386015 122.38517642 282.64143861 111.06054688 296.57104492 C110.57972656 297.1646582 110.09890625 297.75827148 109.60351562 298.36987305 C104.17463882 305.00914586 98.46131988 311.34356863 92.43554688 317.44604492 C91.92644775 317.96448975 91.41734863 318.48293457 90.89282227 319.01708984 C87.30711909 322.57104492 87.30711909 322.57104492 85.06054688 322.57104492 C85.06054688 323.23104492 85.06054688 323.89104492 85.06054688 324.57104492 C83.53217418 325.96703888 81.93404588 327.28692141 80.31054688 328.57104492 C79.29476563 329.38186523 78.27898437 330.19268555 77.23242188 331.02807617 C76.70197266 331.45040527 76.17152344 331.87273437 75.625 332.30786133 C73.22878518 334.24263278 70.90182861 336.25787339 68.56054688 338.25854492 C42.79860669 359.71025059 15.53813308 378.50150622 -16.93945312 387.57104492 C-18.05320312 387.88686523 -19.16695312 388.20268555 -20.31445312 388.52807617 C-23.50912614 389.33976619 -26.69694967 389.97555331 -29.93945312 390.57104492 C-30.72416992 390.72138184 -31.50888672 390.87171875 -32.31738281 391.02661133 C-56.47989643 395.55322597 -81.09120667 396.58490122 -105.59249878 397.94528198 C-120.53697434 398.77504954 -135.16082525 400.13411907 -149.94335938 402.48901367 C-157.18412359 403.63613777 -164.44369051 404.58825329 -171.71755981 405.49664307 C-173.08824539 405.66784162 -174.45875813 405.84043114 -175.82907104 406.0145874 C-215.19902118 411.01346055 -253.53393273 411.83645313 -286.43945312 386.82104492 C-292.93578526 381.75835275 -298.99065895 376.25979354 -304.93945312 370.57104492 C-305.86628906 369.69706055 -306.793125 368.82307617 -307.74804688 367.92260742 C-314.89911323 361.00483827 -321.02361183 353.55327092 -326.93945312 345.57104492 C-327.71160156 344.53206055 -328.48375 343.49307617 -329.27929688 342.42260742 C-342.69215798 323.70589087 -352.38447703 302.92577884 -357.93945312 280.57104492 C-358.225625 279.45084961 -358.51179687 278.3306543 -358.80664062 277.17651367 C-364.89833093 252.25859952 -364.53980691 223.47840789 -352.30664062 200.50463867 C-338.0986394 177.27620876 -315.98746322 162.56043227 -293.51708984 148.21655273 C-265.27340726 130.5846241 -265.27340726 130.5846241 -240.26757812 108.78588867 C-237.93945312 106.57104492 -237.93945312 106.57104492 -235.93945312 106.57104492 C-235.67688721 105.98814697 -235.41432129 105.40524902 -235.14379883 104.8046875 C-233.87976169 102.46033806 -232.47452014 100.78498561 -230.66992188 98.83276367 C-227.153383 94.89449463 -224.1502856 90.79052993 -221.25195312 86.38354492 C-220.7435791 85.61526367 -220.23520508 84.84698242 -219.71142578 84.05541992 C-213.68031931 74.81501579 -208.29866367 65.2110437 -202.93945312 55.57104492 C-202.01780089 53.92248286 -201.09593172 52.27404206 -200.17382812 50.62573242 C-196.70793805 44.41742407 -193.27063662 38.19414166 -189.87695312 31.94604492 C-189.41675781 31.10428711 -188.9565625 30.2625293 -188.48242188 29.39526367 C-187.64378142 27.86023316 -186.80658847 26.32439257 -185.97705078 24.78442383 C-180.61418018 14.84976218 -174.78873202 5.54974706 -167.93945312 -3.42895508 C-166.81023437 -4.91395508 -166.81023437 -4.91395508 -165.65820312 -6.42895508 C-120.74297838 -63.363747 -48.29260466 -36.91925153 0 0 Z " fill="#9a9a9a" transform="translate(538.939453125,602.428955078125)"></path>
  <path d="M0 0 C2.06147855 -0.05232053 4.12479522 -0.04947843 6.18642616 -0.00355339 C7.32521929 -0.01774217 8.46401242 -0.03193094 9.63731444 -0.04654968 C13.45702595 -0.08178316 17.27268596 -0.04547332 21.09234047 -0.00938225 C23.82905172 -0.01414267 26.56561047 -0.03384006 29.30225563 -0.05274773 C35.96609104 -0.08950106 42.6287534 -0.07247784 49.29255222 -0.03657128 C54.70956845 -0.00851095 60.12626637 -0.00073525 65.54334831 -0.00745583 C66.31455138 -0.00841071 67.08575444 -0.00936559 67.88032729 -0.01034942 C69.44707531 -0.0124021 71.01382326 -0.01451282 72.58057113 -0.01668094 C86.43450092 -0.03381565 100.28786481 -0.0004665 114.14165688 0.05897713 C127.57842225 0.11663047 141.01437206 0.13083028 154.45122719 0.09999275 C169.08692139 0.06644982 183.72222833 0.05842056 198.35793269 0.09341347 C199.91950388 0.09710218 201.48107512 0.10077163 203.04264641 0.10442162 C203.81093755 0.1062458 204.57922869 0.10806997 205.37080138 0.10994943 C210.7788347 0.12115044 216.18667873 0.11455493 221.59470177 0.10133171 C228.18920666 0.08584748 234.78290952 0.09942977 241.37725304 0.14968179 C244.74092194 0.17463987 248.10230694 0.18270219 251.46617889 0.16459846 C255.1165077 0.147217 258.7632075 0.17909584 262.4132328 0.22349739 C263.47141193 0.20701586 264.52959105 0.19053432 265.61983621 0.17355335 C271.34867068 0.30217983 274.35722846 1.05733412 278.50090408 5.15089798 C279.67080082 6.49438974 280.81664992 7.8595674 281.92681313 9.25282478 C282.69509438 10.13067635 283.46337563 11.00852791 284.25493813 11.91298103 C285.66004484 13.66936442 287.06496704 15.42589543 288.46978188 17.18251228 C290.15985338 19.29442994 291.86321214 21.37830353 293.60259438 23.44813728 C326.3498462 62.80792327 349.66428662 109.75387028 345.72466469 161.93007088 C342.95356644 187.59671488 331.05443336 211.39226958 314.92681313 231.25282478 C314.45662758 231.8358033 313.98644203 232.41878181 313.50200844 233.01942635 C303.66016678 245.11349717 292.8560947 256.45632702 280.60650063 266.13173103 C277.82038015 268.3370713 275.12799557 270.63197358 272.42681313 272.94032478 C243.23644456 297.2468479 211.85045508 318.5876852 173.92681313 325.25282478 C172.79662758 325.45262947 171.66644203 325.65243416 170.50200844 325.85829353 C149.21431478 329.48219805 127.99240914 330.96126303 106.43560219 331.98747444 C88.38005272 332.85155181 70.77162689 334.32754355 52.92681313 337.25282478 C49.40730151 337.80324649 45.88595091 338.34120086 42.36431313 338.87782478 C41.58861977 338.99883553 40.81292641 339.11984627 40.01372719 339.244524 C32.97333752 340.31588765 25.90740378 340.99974167 18.81328773 341.60682869 C17.98579018 341.67821053 17.15829262 341.74959236 16.30571938 341.82313728 C15.57941322 341.88259529 14.85310707 341.9420533 14.10479164 342.00331306 C11.88671851 342.22029925 11.88671851 342.22029925 9.58428383 342.76478767 C-18.86055044 347.98860244 -52.10907059 342.20788115 -76.07318687 326.25282478 C-84.22125888 320.50095511 -91.84447141 314.12173993 -99.07318687 307.25282478 C-99.57318199 306.78006111 -100.07317711 306.30729744 -100.58832359 305.8202076 C-108.92272809 297.8887129 -116.22968847 289.49486691 -123.07318687 280.25282478 C-123.69580406 279.42524666 -124.31842125 278.59766853 -124.95990562 277.74501228 C-132.87695785 266.85675864 -140.13395183 254.78972107 -145.07318687 242.25282478 C-145.37466637 241.48873299 -145.67614586 240.72464119 -145.98676109 239.9373951 C-158.11172244 208.86174022 -164.74278467 173.21054447 -151.51068687 141.27235603 C-138.3442811 113.61574825 -111.96807882 97.15628327 -87.07318687 81.25282478 C-73.72015515 72.70289511 -60.47873413 64.14788455 -48.07318687 54.25282478 C-47.46152672 53.76749275 -46.84986656 53.28216072 -46.21967125 52.78212166 C-32.90492078 42.11063738 -23.1930219 29.96399295 -13.89740562 15.70985603 C-13.45333638 15.03711328 -13.00926713 14.36437053 -12.55174124 13.67124164 C-11.02450317 11.27764788 -11.02450317 11.27764788 -9.88073003 8.67423737 C-7.43749973 3.67176979 -5.76772664 0.69703902 0 0 Z " fill="#9a9a9a" transform="translate(1556.0731868743896,-1.2528247833251953)"></path>
  <path d="M0 0 C4.00817927 0.49256892 8.017973 0.97042222 12.02906799 1.43861389 C13.07490051 1.56075256 14.12073303 1.68289124 15.19825745 1.80873108 C24.30208061 2.71757709 33.45255139 2.58928578 42.59181213 2.56898499 C45.45701911 2.56363173 48.32206893 2.56895408 51.18727112 2.57533264 C59.7251467 2.57829697 68.15107089 2.44040074 76.65968323 1.67445374 C84.37160384 1.13465841 92.11389332 1.19460004 99.84156799 1.18861389 C100.7464798 1.18760681 101.6513916 1.18659973 102.58372498 1.18556213 C116.90670736 1.19631785 130.92077983 1.75517642 145.02906799 4.43861389 C145.77785217 4.57783264 146.52663635 4.71705139 147.29811096 4.86048889 C162.11306742 7.74795164 175.71050693 13.76188913 188.02906799 22.43861389 C188.83731018 23.00064514 189.64555237 23.56267639 190.47828674 24.14173889 C194.54834732 27.06820478 194.54834732 27.06820478 196.02906799 28.43861389 C196.02906799 29.09861389 196.02906799 29.75861389 196.02906799 30.43861389 C196.58465393 30.66291077 197.14023987 30.88720764 197.71266174 31.11830139 C221.77645942 44.83426027 235.11840808 83.95828612 242.02906799 108.43861389 C243.68802175 114.71564727 245.05228753 121.02020337 246.02906799 127.43861389 C246.2907074 129.1207196 246.2907074 129.1207196 246.55763245 130.83680725 C248.10372414 141.78308149 248.38900574 152.58161781 248.34156799 163.62611389 C248.33941284 164.52969635 248.33725769 165.43327881 248.33503723 166.36424255 C248.13859143 217.68826275 227.19262452 261.81613984 191.23219299 298.32142639 C189.71246292 299.82663675 188.18299635 301.32216793 186.63844299 302.80189514 C184.93886417 304.36216695 184.93886417 304.36216695 184.02906799 306.43861389 C183.36906799 306.43861389 182.70906799 306.43861389 182.02906799 306.43861389 C181.69906799 307.42861389 181.36906799 308.41861389 181.02906799 309.43861389 C179.42750549 311.01673889 179.42750549 311.01673889 177.40406799 312.68861389 C174.71100999 314.96698863 172.15977888 317.269835 169.71656799 319.81361389 C165.65596979 323.91963266 161.24066878 327.52675849 156.71315002 331.1051178 C155.5357597 332.03740338 154.36258449 332.9750259 153.19264221 333.91664124 C125.26939271 356.3405988 93.80702174 371.13691256 59.02906799 379.43861389 C58.3038092 379.61553772 57.57855042 379.79246155 56.83131409 379.9747467 C42.24753317 383.22119026 27.26762385 383.75471016 12.38478088 383.64442444 C9.83186356 383.62604402 7.27931074 383.62391691 4.72633362 383.62416077 C-8.68557351 383.59635012 -22.15412041 383.36668409 -35.40843201 381.12611389 C-36.19355164 380.99712708 -36.97867126 380.86814026 -37.7875824 380.73524475 C-69.11276337 375.40804682 -97.35089966 363.97829108 -120.97093201 342.43861389 C-121.75726013 341.74638733 -122.54358826 341.05416077 -123.35374451 340.34095764 C-146.90584465 318.43497202 -158.62985121 283.87120638 -164.04515076 253.05189514 C-164.17341436 252.32954493 -164.30167797 251.60719471 -164.43382835 250.86295509 C-167.49134234 233.37004687 -168.6516834 215.80748439 -169.6424408 198.09736633 C-169.87940597 193.94391044 -170.14047911 189.79196641 -170.39866638 185.63978577 C-170.95756233 176.57458946 -171.47451844 167.50742924 -171.97093201 158.43861389 C-172.03176971 157.33588135 -172.09260742 156.2331488 -172.1552887 155.09700012 C-172.82331129 142.79705785 -173.24560664 130.50743768 -173.28343201 118.18861389 C-173.28605042 117.35264679 -173.28866882 116.51667969 -173.29136658 115.65538025 C-173.29615414 101.25320112 -172.03126598 87.53928861 -168.97093201 73.43861389 C-168.6893357 71.9714814 -168.40926922 70.50405404 -168.13108826 69.03627014 C-163.32520825 45.46930128 -149.07328706 23.19869657 -129.18162537 9.68275452 C-91.23326762 -14.99591942 -42.27161733 -5.22751007 0 0 Z " fill="#9a9a9a" transform="translate(751.9709320068359,250.56138610839844)"></path>
  <path d="M0 0 C156.75 0 313.5 0 475 0 C465.60851751 16.43509436 465.60851751 16.43509436 461.3125 23.1875 C460.80904053 23.9808374 460.30558105 24.7741748 459.78686523 25.59155273 C454.06956144 34.53987791 448.09537716 43.3057905 442 52 C441.4622998 52.76731445 440.92459961 53.53462891 440.37060547 54.32519531 C433.11058 64.63805385 425.48644487 74.56174014 417.43115234 84.26464844 C416.16361837 85.80160365 414.91800793 87.35658166 413.67578125 88.9140625 C408.7471244 95.09082654 403.4814711 100.88111538 398.04711914 106.61157227 C394.63893419 110.20896607 391.38410688 113.86835982 388.26831055 117.72363281 C387.84976807 118.14483398 387.43122559 118.56603516 387 119 C386.34 119 385.68 119 385 119 C384.76539063 119.56074219 384.53078125 120.12148437 384.2890625 120.69921875 C380.41842076 127.60772779 373.09380828 133.05153147 367.1171875 138.1640625 C364.59400545 140.3520617 362.14445481 142.61293113 359.6875 144.875 C354.278772 149.79068749 348.73898211 154.47609134 343 159 C342.30213379 159.55397461 341.60426758 160.10794922 340.88525391 160.67871094 C320.87719805 176.48930182 299.67050096 190.46598125 277.31103516 202.72705078 C275.19901331 203.89038079 273.10430744 205.07954619 271.01171875 206.27734375 C236.92045109 225.45475847 197.91626585 237.17456552 160 246 C159.05286133 246.22123535 158.10572266 246.4424707 157.12988281 246.67041016 C144.02298357 249.6652268 130.79206505 251.26309635 117.43164062 252.67456055 C115.21764832 252.97087096 113.16280814 253.45835901 111 254 C109.45398159 254.19619004 107.90371404 254.36039673 106.3515625 254.5 C105.44156494 254.5820166 104.53156738 254.6640332 103.59399414 254.74853516 C84.30873271 256.3819386 65.1633012 257.09057553 45.8125 257.125 C44.97381378 257.12767883 44.13512756 257.13035767 43.27102661 257.13311768 C34.06813493 257.15540207 24.89130528 257.02349104 15.69921875 256.5546875 C14.92818314 256.51594513 14.15714752 256.47720276 13.36274719 256.43728638 C8.82209502 256.18099222 4.5439846 255.64914066 0 255 C0 170.85 0 86.7 0 0 Z " fill="#9a9a9a" transform="translate(0,0)"></path>
  <path d="M0 0 C1.11334001 0.0018986 2.22668002 0.0037972 3.3737576 0.00575334 C4.66012797 -0.0042019 5.94649834 -0.01415715 7.27184963 -0.02441406 C8.70248714 -0.01014868 10.13312009 0.00457931 11.5637486 0.0197199 C13.08100712 0.01754021 14.59826383 0.01316357 16.11551046 0.00677407 C20.29109071 -0.0044292 24.46603217 0.01562475 28.64153099 0.04066437 C33.14184361 0.06221748 37.64211899 0.0549526 42.14246869 0.051153 C49.94167131 0.04852875 57.7406651 0.06424216 65.53981519 0.0923422 C76.81609918 0.13294381 88.09228199 0.14599599 99.36863115 0.15228216 C117.66283321 0.16323059 135.95692391 0.19651967 154.25106549 0.24379522 C172.0241718 0.28967661 189.79724788 0.32507547 207.57040143 0.34633428 C208.66557791 0.3476479 209.7607544 0.34896151 210.88911805 0.35031494 C216.38318947 0.35684003 221.8772611 0.36315859 227.37133288 0.36937445 C272.96429615 0.42122455 318.55713797 0.50930477 364.14999127 0.62099248 C363.21027625 2.53152581 362.26694361 4.44028003 361.32211041 6.3482874 C360.79718503 7.41141652 360.27225965 8.47454564 359.73142743 9.5698908 C357.64496483 13.59535179 355.24262254 17.26625672 352.58749127 20.93349248 C352.07428327 21.64787481 351.56107526 22.36225713 351.03231549 23.0982874 C334.9880612 45.08566768 314.95499034 61.29732429 291.82674909 75.46352178 C275.39597948 85.57000269 258.87689102 96.13032512 244.14999127 108.62099248 C243.19737409 109.39958623 242.2447569 110.17817998 241.26327252 110.98036748 C224.58788641 125.21375144 213.90597901 144.62481668 212.14999127 166.62099248 C212.01135355 170.87194911 212.01029238 175.11811259 212.02499127 179.37099248 C212.02112409 180.47442998 212.0172569 181.57786748 212.01327252 182.71474248 C212.0218984 190.06398692 212.42400864 197.30824709 213.14999127 204.62099248 C201.47756069 210.26331358 189.82597292 214.95136217 177.14999127 217.80849248 C176.46332379 217.96334111 175.77665631 218.11818975 175.06918073 218.27773076 C163.49142283 220.74382406 152.02649241 221.97496426 140.1910069 221.93666631 C138.15075458 221.93349367 136.11194258 221.9571375 134.07186627 221.98232061 C125.08793922 222.02574928 116.84325053 220.87157003 108.14999127 218.62099248 C106.92385114 218.31488042 106.92385114 218.31488042 105.67294049 218.00258428 C96.02147958 215.50266537 87.04668242 212.15737283 78.14999127 207.62099248 C77.51657819 207.3067835 76.8831651 206.99257451 76.23055768 206.66884404 C58.12319272 197.66960998 42.00096297 186.09996748 26.14999127 173.62099248 C25.21671002 172.89138311 24.28342877 172.16177373 23.32186627 171.41005498 C16.4568095 165.98444559 9.763975 160.34878884 3.14999127 154.62099248 C2.62050885 154.1628919 2.09102643 153.70479131 1.54549909 153.23280889 C-5.68626054 146.92687589 -11.99593835 140.24934553 -17.85000873 132.62099248 C-18.61184466 131.67482061 -19.3736806 130.72864873 -20.15860248 129.75380498 C-34.95849874 110.93572441 -40.91929619 90.07723846 -38.44375873 66.44911748 C-35.61209156 44.43386625 -23.79642284 24.74921565 -9.29532123 8.39052373 C-6.84281996 5.73655032 -6.84281996 5.73655032 -5.08616209 2.98634923 C-2.85000873 0.62099248 -2.85000873 0.62099248 0 0 Z " fill="#808080" transform="translate(1186.85000872612,-0.6209924817085266)"></path>
  <path d="M0 0 C14.44116827 13.82665047 19.75762484 31.446904 23.203125 50.546875 C23.46591112 51.97728662 23.72909685 53.40762488 23.99267578 54.83789062 C25.84054055 64.90967905 27.6017338 74.99532533 29.203125 85.109375 C20.78867603 90.97363483 12.31718734 96.72920728 3.703125 102.296875 C-21.26701749 118.2017385 -21.26701749 118.2017385 -44.796875 136.109375 C-45.76496094 136.90214844 -46.73304688 137.69492187 -47.73046875 138.51171875 C-64.13781846 152.55240498 -74.72018059 172.22188989 -76.64013672 193.75878906 C-77.90421795 212.71606957 -75.73396721 230.60504161 -71.796875 249.109375 C-81.98870011 249.49478015 -90.88038011 248.71954194 -100.796875 246.109375 C-102.04339844 245.81546875 -103.28992188 245.5215625 -104.57421875 245.21875 C-133.80642064 237.89360993 -159.74819305 219.88270558 -182.796875 201.109375 C-183.85410069 200.25512668 -184.91138606 199.4009522 -185.96875 198.546875 C-187.74931636 197.09827864 -189.52451638 195.64304809 -191.29296875 194.1796875 C-193.02604577 192.7467221 -194.76894418 191.32558321 -196.51953125 189.9140625 C-205.96860162 182.28569908 -215.0503408 174.49225576 -222.796875 165.109375 C-223.50457031 164.30113281 -224.21226562 163.49289062 -224.94140625 162.66015625 C-233.32589878 152.87586769 -239.41630062 142.2318556 -243.796875 130.109375 C-244.1371875 129.28050781 -244.4775 128.45164062 -244.828125 127.59765625 C-252.53532817 107.80133197 -246.9736108 84.74397919 -238.796875 66.109375 C-234.30613251 56.67243947 -228.32470521 48.23997327 -221.796875 40.109375 C-221.38066895 39.59020508 -220.96446289 39.07103516 -220.53564453 38.53613281 C-210.48003615 26.08489022 -199.41270281 14.9758493 -186.796875 5.109375 C-186.09691406 4.51898437 -185.39695313 3.92859375 -184.67578125 3.3203125 C-167.72617733 -10.71357506 -146.3902763 -17.98065711 -124.796875 -20.890625 C-124.10980469 -20.99213867 -123.42273438 -21.09365234 -122.71484375 -21.19824219 C-82.96103566 -26.87479947 -32.25319558 -27.55405451 0 0 Z " fill="#808080" transform="translate(254.796875,640.890625)"></path>
  <path d="M0 0 C29.7 0 59.4 0 90 0 C90.06621157 34.77805391 90.12157509 69.55604635 90.15319599 104.33414439 C90.15694784 108.44566343 90.16083083 112.55718233 90.16479492 116.66870117 C90.16558185 117.48718558 90.16636878 118.30566998 90.16717956 119.14895695 C90.18021194 132.37905727 90.20385376 145.60911824 90.23145839 158.83919526 C90.25957306 172.42766435 90.27618904 186.01611292 90.28226548 199.60460991 C90.28636939 207.98062152 90.29930262 216.35652189 90.3237494 224.73249923 C90.33968154 230.48640232 90.34438355 236.24024841 90.34050413 241.99417192 C90.33859411 245.30746024 90.34306773 248.62039995 90.35761642 251.93367958 C90.48953374 283.5397139 82.99010355 309.30398589 60.56640625 332.51953125 C59.71949219 333.33808594 58.87257813 334.15664063 58 335 C57.27598999 335.70733276 57.27598999 335.70733276 56.53735352 336.42895508 C31.12183325 361.12093011 3.03286689 375.45440722 -32.75 375.4375 C-33.61827423 375.43790283 -34.48654846 375.43830566 -35.38113403 375.4387207 C-61.17483522 375.36971462 -83.71835852 370.4552844 -102.87890625 352.2109375 C-106.73189774 348.15969365 -109.57927051 343.62285441 -112.375 338.8125 C-112.72127441 338.21808105 -113.06754883 337.62366211 -113.42431641 337.01123047 C-115.27563656 333.70112571 -116.50329902 330.76783172 -117 327 C-117.99 326.67 -118.98 326.34 -120 326 C-119.18660156 325.89042969 -118.37320312 325.78085937 -117.53515625 325.66796875 C-80.85301151 320.59271138 -53.00827844 308.81769946 -23 287 C-22.35385742 286.53142578 -21.70771484 286.06285156 -21.04199219 285.58007812 C-17.65088741 283.10842741 -14.31523013 280.57224238 -11 278 C-10.44554199 277.57412598 -9.89108398 277.14825195 -9.31982422 276.70947266 C-2.39243883 271.38608552 4.344071 265.95976555 10.77734375 260.0390625 C12.79562103 258.18749705 14.85349135 256.40167 16.9375 254.625 C25.82708904 246.84660959 33.82686904 238.38297526 41 229 C41.45487793 228.41573242 41.90975586 227.83146484 42.37841797 227.22949219 C55.29996109 210.48717872 64.54494155 191.70856116 69 171 C69.24234375 169.98164063 69.4846875 168.96328125 69.734375 167.9140625 C73.05045153 151.1992443 72.16306831 132.45164345 68 116 C67.64366959 114.46895028 67.28824618 112.93768927 66.93359375 111.40625 C59.03350032 78.39203427 40.34206916 49.01478927 19 23 C17.84757812 21.55947266 17.84757812 21.55947266 16.671875 20.08984375 C11.94980091 14.22027264 7.00038221 8.62902563 1.87109375 3.1171875 C0 1 0 1 0 0 Z " fill="#808080" transform="translate(1830,0)"></path>
  <path d="M0 0 C45.54 0 91.08 0 138 0 C130.9825 14.035 130.9825 14.035 126.4375 20.3125 C125.92429199 21.02688232 125.41108398 21.74126465 124.88232422 22.47729492 C108.85313936 44.44402373 88.8248106 60.70697178 65.69213867 74.8293457 C58.65710326 79.1463579 51.8010686 83.73024267 44.9375 88.3125 C44.05374191 88.90144547 44.05374191 88.90144547 43.15213013 89.50228882 C37.03664052 93.57945968 30.94538061 97.67687128 25 102 C21.36420931 96.54631397 19.82976872 89.97287805 17.875 83.75 C17.50917313 82.58833313 17.50917313 82.58833313 17.13595581 81.40319824 C12.13704569 65.28375411 9.20862132 48.95354925 6.63818359 32.29589844 C6.4884761 31.33317017 6.33876862 30.37044189 6.18452454 29.37854004 C5.91205475 27.606603 5.64693744 25.83350623 5.39201355 24.05895996 C4.1431694 15.80355534 2.06002595 8.24010379 0 0 Z " fill="#D4D4D4" transform="translate(1413,0)"></path>
  <path d="M0 0 C-0.41773682 0.38744385 -0.83547363 0.7748877 -1.26586914 1.17407227 C-3.19936653 2.96883381 -5.130938 4.7656558 -7.0625 6.5625 C-7.71927734 7.17158203 -8.37605469 7.78066406 -9.05273438 8.40820312 C-16.91655212 15.0004622 -16.91655212 15.0004622 -23 23 C-23.66 23 -24.32 23 -25 23 C-25.22429687 23.53238281 -25.44859375 24.06476562 -25.6796875 24.61328125 C-27.07569202 27.13682788 -28.76880461 29.21543057 -30.62792969 31.41113281 C-65.73674881 73.06993384 -93.68452605 129.38952103 -114 180 C-117.81148345 176.46692056 -120.54496899 172.87724714 -123.0625 168.3125 C-123.58118652 167.38232056 -123.58118652 167.38232056 -124.11035156 166.43334961 C-126.85584133 161.42522888 -129.20540461 156.4318557 -131 151 C-131.37125 149.94039062 -131.7425 148.88078125 -132.125 147.7890625 C-139.12808128 125.36947592 -134.41128763 103.66593317 -124.15478516 83.17089844 C-116.1405615 68.1048357 -104.63104563 55.34173545 -93 43 C-92.31035156 42.2678125 -91.62070312 41.535625 -90.91015625 40.78125 C-85.66096414 35.37103973 -79.8934446 30.6875813 -74 26 C-73.27039063 25.3915625 -72.54078125 24.783125 -71.7890625 24.15625 C-56.16686742 11.37973357 -20.92451931 -6.97483977 0 0 Z " fill="#808080" transform="translate(999,673)"></path>
  <path d="M0 0 C29.7 0 59.4 0 90 0 C90 83.82 90 167.64 90 254 C89.67 254 89.34 254 89 254 C88.94054199 253.44763672 88.88108398 252.89527344 88.81982422 252.32617188 C87.40681576 239.76262709 85.22326147 228.54006291 80 217 C79.55914063 216.01902344 79.11828125 215.03804687 78.6640625 214.02734375 C76.56480346 209.81062401 74.31238666 206.23957265 71.0703125 202.82421875 C63.0697089 194.39040991 63.0697089 194.39040991 62.85546875 190.1171875 C63.66090156 187.24706652 64.74089607 184.69977143 66 182 C72.6535865 160.83231084 73.44746195 137.5273195 68 116 C67.64366959 114.46895028 67.28824618 112.93768927 66.93359375 111.40625 C59.03350032 78.39203427 40.34206916 49.01478927 19 23 C18.23171875 22.03964844 17.4634375 21.07929688 16.671875 20.08984375 C11.94980091 14.22027264 7.00038221 8.62902563 1.87109375 3.1171875 C0 1 0 1 0 0 Z " fill="#D4D4D4" transform="translate(1830,0)"></path>
</svg>