<?xml version="1.0" encoding="UTF-8"?>
<svg version="1.1" xmlns="http://www.w3.org/2000/svg" width="1080" height="1920">
<path d="M0 0 C356.4 0 712.8 0 1080 0 C1080 633.6 1080 1267.2 1080 1920 C723.6 1920 367.2 1920 0 1920 C0 1286.4 0 652.8 0 0 Z " fill="#1665C1" transform="translate(0,0)"/>
<path d="M0 0 C53.27477563 0 53.27477563 0 80 4 C80.70475464 4.1041925 81.40950928 4.20838501 82.13562012 4.31573486 C119.53817042 9.88448291 156.77498546 19.1944508 192 33 C194.62086403 33.99064675 197.24805615 34.96298857 199.875 35.9375 C210.79214232 40.01218936 221.59359826 44.35897798 232.31640625 48.921875 C234.20359169 49.68004557 236.12260165 50.36129708 238.05859375 50.984375 C240.78855384 51.9269907 243.02577831 53.0298103 245.5 54.5 C248.91871729 56.46099012 252.18685538 57.92449767 256 59 C256 59.66 256 60.32 256 61 C257.0725 61.268125 258.145 61.53625 259.25 61.8125 C263 63 263 63 264.875 64.4375 C268.20440144 66.88558929 272.07323029 67.81693477 276 69 C276 69.66 276 70.32 276 71 C276.53238281 71.10441406 277.06476563 71.20882812 277.61328125 71.31640625 C280.66843043 72.19144898 283.34392738 73.52090901 286.1875 74.9375 C287.78658203 75.72447266 287.78658203 75.72447266 289.41796875 76.52734375 C292 78 292 78 293 80 C294.72240117 81.02281908 294.72240117 81.02281908 296.81640625 81.9453125 C297.58017578 82.29980469 298.34394531 82.65429688 299.13085938 83.01953125 C299.93330078 83.38433594 300.73574219 83.74914062 301.5625 84.125 C302.36880859 84.49753906 303.17511719 84.87007812 304.00585938 85.25390625 C306.00138943 86.17492012 307.9994336 87.0899905 310 88 C310 88.66 310 89.32 310 90 C310.63808594 90.10957031 311.27617187 90.21914063 311.93359375 90.33203125 C313.17302734 90.56986328 313.17302734 90.56986328 314.4375 90.8125 C315.26121094 90.96332031 316.08492188 91.11414063 316.93359375 91.26953125 C317.61550781 91.51058594 318.29742187 91.75164062 319 92 C319.33 92.99 319.66 93.98 320 95 C320.66 95 321.32 95 322 95 C322.44214844 95.45117188 322.88429688 95.90234375 323.33984375 96.3671875 C325.28008907 98.27547584 327.06026474 99.07793615 329.5625 100.125 C330.34753906 100.45757813 331.13257813 100.79015625 331.94140625 101.1328125 C332.62074219 101.41898438 333.30007813 101.70515625 334 102 C334.66 102.33 335.32 102.66 336 103 C336 103.66 336 104.32 336 105 C336.845625 105.20625 337.69125 105.4125 338.5625 105.625 C341.65583979 106.86233592 342.90757753 107.6481239 345.25 109.8125 C349.35505521 113.55266142 354.01897843 115.64411142 359 118 C362.125 119.6875 362.125 119.6875 364 121 C364 121.66 364 122.32 364 123 C365.32 123 366.64 123 368 123 C368 123.66 368 124.32 368 125 C368.66 125 369.32 125 370 125 C371.22334019 126.48784618 372.44425066 127.97786447 373.64453125 129.484375 C375.47519543 131.53134244 377.630229 132.63738168 380 134 C381.68762851 135.6454378 383.3540349 137.31288577 385 139 C385.928125 139.721875 386.85625 140.44375 387.8125 141.1875 C388.534375 141.785625 389.25625 142.38375 390 143 C390 143.66 390 144.32 390 145 C390.66 145 391.32 145 392 145 C392 145.66 392 146.32 392 147 C392.66 147 393.32 147 394 147 C394 147.66 394 148.32 394 149 C394.66 149 395.32 149 396 149 C397.34423339 150.65788785 398.67618483 152.32576317 400 154 C400.7425 154.556875 401.485 155.11375 402.25 155.6875 C402.8275 156.120625 403.405 156.55375 404 157 C404 157.66 404 158.32 404 159 C404.56332031 159.19851563 405.12664062 159.39703125 405.70703125 159.6015625 C408.90442628 161.55159218 410.63023016 164.33025685 412.6875 167.375 C413.57664204 168.65988165 414.46729291 169.94372036 415.359375 171.2265625 C416.02549805 172.18804199 416.02549805 172.18804199 416.70507812 173.16894531 C418.5362941 175.75833441 420.48917967 178.24802029 422.4375 180.75 C426.29757773 185.85526409 429.71465188 191.17148201 433.0625 196.625 C433.55226318 197.4200293 434.04202637 198.21505859 434.54663086 199.03417969 C434.99659424 199.77829102 435.44655762 200.52240234 435.91015625 201.2890625 C436.31371338 201.95631348 436.71727051 202.62356445 437.13305664 203.31103516 C438 205 438 205 438 207 C438.66 207 439.32 207 440 207 C441.88997563 210.71477968 443.73920821 214.37273111 445.33984375 218.22265625 C447.1938675 222.59314742 449.48580485 226.70692029 451.75 230.875 C455.84583223 238.52344668 459.35477398 246.25895304 462.5390625 254.32421875 C463.69982972 257.24475874 464.92378956 260.09063473 466.25 262.9375 C467.93931278 266.6453984 469.0698997 270.40717976 470.09375 274.34765625 C471.00041617 277.21179536 471.00041617 277.21179536 472.8203125 280.53515625 C475.58671075 285.93847521 477.43716088 291.63407818 479.375 297.375 C479.7663916 298.52170166 480.1577832 299.66840332 480.56103516 300.84985352 C481.71303504 304.23133983 482.85697291 307.61547222 484 311 C484.60389347 312.77222853 485.20803268 314.54437336 485.8125 316.31640625 C488.21360824 323.39752977 490.53750139 330.45434259 492.26171875 337.73828125 C492.93253031 340.09975418 492.93253031 340.09975418 494.45703125 342.3359375 C496.31271874 345.53993463 497.12272644 348.75370187 498 352.3125 C500.77738353 362.95416768 504.44731605 373.28094473 508.078125 383.65356445 C508.5445148 384.98770771 509.01066571 386.3219345 509.4765625 387.65625 C509.70066299 388.29766434 509.92476349 388.93907867 510.15565491 389.59992981 C511.68253527 394.00158416 513.08142231 398.42485869 514.35571289 402.90576172 C515.32313095 406.05032864 516.58045657 409.06133894 517.83203125 412.1015625 C519.28648113 415.71093312 520.64364495 419.35286495 522 423 C523.91286321 428.13374808 525.87559223 433.23796929 527.94140625 438.3125 C528.79162503 440.470989 529.60612411 442.63393243 530.40234375 444.8125 C532.92574363 451.70697749 535.4981793 458.39236533 538.91796875 464.90625 C539.86950231 466.74748462 540.69572333 468.65234291 541.5 470.5625 C543.05743628 474.13162481 544.89081084 477.42528122 546.80859375 480.80859375 C548.42615271 483.78384155 549.69412468 486.87725466 551 490 C551.61530832 491.25479906 552.2409222 492.50458025 552.875 493.75 C554.56729126 497.09522691 556.17725365 500.4718257 557.75 503.875 C558.39195312 505.26332031 558.39195312 505.26332031 559.046875 506.6796875 C560 509 560 509 560 511 C560.66 511 561.32 511 562 511 C562.39445313 511.98355469 562.78890625 512.96710937 563.1953125 513.98046875 C565.05600562 518.32026824 567.43150483 522.28059616 569.875 526.3125 C580 543.27399128 580 543.27399128 580 547 C580.66 547 581.32 547 582 547 C582.268125 547.48726562 582.53625 547.97453125 582.8125 548.4765625 C583.204375 549.18554688 583.59625 549.89453125 584 550.625 C584.67289063 551.84316406 584.67289063 551.84316406 585.359375 553.0859375 C586.57859783 555.25150948 587.81651108 557.39845527 589.078125 559.5390625 C589.43648437 560.15185059 589.79484375 560.76463867 590.1640625 561.39599609 C590.87704501 562.61325985 591.59563175 563.82726179 592.3203125 565.03759766 C594.24663852 568.34053748 595.51372469 571.19561085 596 575 C596.66 575 597.32 575 598 575 C598.33 576.65 598.66 578.3 599 580 C599.66 580 600.32 580 601 580 C602.515625 582.23828125 602.515625 582.23828125 604.25 585.3125 C604.81203125 586.29863281 605.3740625 587.28476563 605.953125 588.30078125 C606.63768216 589.53259789 607.31966753 590.76584504 608 592 C608.67059448 593.21526367 608.67059448 593.21526367 609.35473633 594.45507812 C613.61282097 602.21502828 617.6969023 610.0604617 621.76367188 617.921875 C622.26833984 618.89382813 622.77300781 619.86578125 623.29296875 620.8671875 C623.7418042 621.73456543 624.19063965 622.60194336 624.65307617 623.49560547 C625.56379103 625.18893754 626.51912479 626.85890033 627.51367188 628.50439453 C628.98508748 630.97496127 630.25240583 633.46694141 631.48828125 636.0625 C631.94485107 637.01866211 632.4014209 637.97482422 632.87182617 638.95996094 C633.58495972 640.46478027 633.58495972 640.46478027 634.3125 642 C634.80016846 643.02641602 635.28783691 644.05283203 635.7902832 645.11035156 C636.75643096 647.14647862 637.72122924 649.18324665 638.68457031 651.22070312 C639.80226099 653.58220844 640.92692008 655.94017448 642.0546875 658.296875 C642.59351563 659.43640625 643.13234375 660.5759375 643.6875 661.75 C644.37392578 663.19632813 644.37392578 663.19632813 645.07421875 664.671875 C646 667 646 667 646 670 C646.66 670 647.32 670 648 670 C649.65090436 674.94755401 651.29762569 679.89643495 652.9375 684.84765625 C653.6249792 686.91927774 654.31247951 688.99089222 655 691.0625 C655.34289062 692.09955078 655.68578125 693.13660156 656.0390625 694.20507812 C657.47013866 698.5119619 658.89825632 702.80052752 660.5625 707.0234375 C662.48735688 712.08333999 663.72696808 717.30792815 665 722.5625 C665.2475 723.52607422 665.495 724.48964844 665.75 725.48242188 C670.26972533 744.06743827 671.60993285 762.990982 671.5625 782.0625 C671.56426743 783.59716919 671.56426743 783.59716919 671.56607056 785.1628418 C671.53924932 804.83174992 669.21826157 823.68642212 665.40109253 842.94726562 C664.84696279 845.78322263 664.32831106 848.62534959 663.80722046 851.4675293 C662.72360187 857.35873455 661.57059602 863.20062648 660.0625 869 C659.71593586 870.34630013 659.36958758 871.69265585 659.0234375 873.0390625 C658.76578613 874.03147949 658.76578613 874.03147949 658.50292969 875.04394531 C657.70488431 878.14779949 656.9509478 881.26248206 656.1875 884.375 C654.36029646 891.70535476 652.43943839 899.01114548 650.5 906.3125 C650.21535889 907.39772949 649.93071777 908.48295898 649.63745117 909.60107422 C648.02819228 915.61503116 646.19873191 921.45785951 644.01318359 927.28686523 C642.9773715 930.0605953 641.99900786 932.84894133 641.03515625 935.6484375 C636.33612655 949.28994852 631.62238454 962.73845511 625.47265625 975.80859375 C623.6082938 979.84886994 621.91946659 983.95049889 620.23046875 988.06640625 C618.58287965 991.99446788 616.80840615 995.85909941 615.015625 999.72265625 C613.91675515 1002.08708343 613.91675515 1002.08708343 613 1005 C612.34 1005 611.68 1005 611 1005 C610.75507812 1005.81726562 610.51015625 1006.63453125 610.2578125 1007.4765625 C608.77452388 1011.63161324 606.88199051 1015.45321289 604.875 1019.375 C604.50246094 1020.11105469 604.12992188 1020.84710937 603.74609375 1021.60546875 C602.8343878 1023.40550358 601.91770068 1025.20301402 601 1027 C600.34 1027 599.68 1027 599 1027 C598.87761963 1027.57975586 598.75523926 1028.15951172 598.62915039 1028.75683594 C597.9838481 1031.05758777 597.11850933 1032.82119497 595.93359375 1034.890625 C595.53076172 1035.59960938 595.12792969 1036.30859375 594.71289062 1037.0390625 C594.29201172 1037.76867188 593.87113281 1038.49828125 593.4375 1039.25 C593.01275391 1039.99507812 592.58800781 1040.74015625 592.15039062 1041.5078125 C591.10453958 1043.34098961 590.05283808 1045.17082677 589 1047 C588.34 1047 587.68 1047 587 1047 C586.58814453 1048.10794922 586.58814453 1048.10794922 586.16796875 1049.23828125 C585.07986825 1051.81114766 583.8858592 1053.88996451 582.3125 1056.1875 C581.77882813 1056.96867187 581.24515625 1057.74984375 580.6953125 1058.5546875 C580.13585937 1059.36164063 579.57640625 1060.16859375 579 1061 C578.19175781 1062.17949219 578.19175781 1062.17949219 577.3671875 1063.3828125 C576.25216486 1064.99570571 575.11193026 1066.59147184 573.94670528 1068.16847873 C571.93078245 1070.96070187 571.93078245 1070.96070187 570.4606095 1074.08085942 C567.99892422 1078.42309965 565.74398072 1082.1116331 560.87339203 1083.68849176 C554.15703346 1084.8454747 547.3322114 1084.55594899 540.54405212 1084.4430542 C538.21962796 1084.44830533 535.89521071 1084.45883215 533.5708313 1084.47418213 C527.84636844 1084.49827528 522.12410903 1084.46644585 516.3999057 1084.41134178 C509.44817145 1084.34769844 502.49692684 1084.35502797 495.54497097 1084.36416515 C482.77742713 1084.37905946 470.01062478 1084.33959528 457.24330139 1084.26690674 C439.98000575 1084.1687948 422.71797764 1084.14566919 405.45422363 1084.13525391 C363.94849827 1084.07223462 322.4429849 1083.90470136 280.9375 1083.75 C188.228125 1083.5025 95.51875 1083.255 0 1083 C0 725.61 0 368.22 0 0 Z " fill="#02A9F4" transform="translate(0,837)"/>
<path d="M0 0 C0.8125 2.1875 0.8125 2.1875 1 4 C1.763125 3.938125 2.52625 3.87625 3.3125 3.8125 C6.55902815 4.03900196 6.90680186 4.64515209 9 7 C9.74894531 7.42925781 10.49789062 7.85851562 11.26953125 8.30078125 C14.32152351 10.20008974 16.64150537 12.34056057 19.1875 14.875 C20.04730469 15.71804687 20.90710938 16.56109375 21.79296875 17.4296875 C23.96179574 19.95550725 24.90174065 21.90115556 26 25 C27.32381517 26.67423683 28.65576661 28.34211215 30 30 C30 30.66 30 31.32 30 32 C30.99 32.33 31.98 32.66 33 33 C34.0625 34.77734375 34.0625 34.77734375 35 36.9375 C36.42373705 40.20616298 36.87437458 40.91624972 40 43 C41.04600873 44.73219046 42.01795087 46.50998857 42.9375 48.3125 C44.58503292 51.45592724 46.08149269 54.10131524 48.3125 56.875 C50.21387301 59.26932157 50.65636721 60.99321307 51 64 C51.66 64 52.32 64 53 64 C54.65625 66.23046875 54.65625 66.23046875 56.5 69.1875 C57.1084375 70.15042969 57.716875 71.11335938 58.34375 72.10546875 C60 75 60 75 61.03125 77.80078125 C61.51078125 78.88939453 61.51078125 78.88939453 62 80 C62.99 80.33 63.98 80.66 65 81 C68 85.33333333 68 85.33333333 68 88 C68.99 88.33 69.98 88.66 71 89 C74 93.33333333 74 93.33333333 74 96 C74.99 96.33 75.98 96.66 77 97 C80.19108718 99.6763957 81.83621553 102.55181816 83.78515625 106.19140625 C85.61694407 108.918473 88.02007939 110.75279197 90.609375 112.73828125 C91.06828125 113.15464844 91.5271875 113.57101562 92 114 C92 114.66 92 115.32 92 116 C92.56460937 116.25394531 93.12921875 116.50789063 93.7109375 116.76953125 C96.29825174 118.16032303 98.36380655 119.81299273 100.625 121.6875 C112.5902312 131.37115145 125.64813666 139.21667631 139.1953125 146.47265625 C142.47566971 148.25903462 145.70512066 150.12892266 148.9375 152 C153.24321366 154.48770671 157.58787249 156.82762147 162.0625 159 C167.60549746 161.7084258 172.79235388 164.86431506 177.9921875 168.16796875 C180.96470782 170.03681931 180.96470782 170.03681931 184.08203125 171.53515625 C192.00615363 175.51312933 199.16162538 181.39253281 206 187 C206.8765625 187.71671875 207.753125 188.4334375 208.65625 189.171875 C224.10122072 202.44760826 234.92095933 220.83894139 236.80151367 241.31713867 C238.02959208 257.91658964 238.61906697 280.57139954 229 295 C228.51146705 296.52496139 228.06910128 298.06507724 227.66015625 299.61328125 C226.14779989 304.83133631 224.01551366 309.41930654 221.4375 314.1875 C221.00203857 315.003396 220.56657715 315.81929199 220.11791992 316.65991211 C216.19939836 323.87446527 211.81284316 330.69840309 207.10351562 337.41748047 C206.1187231 338.82974266 205.15911935 340.25949298 204.203125 341.69140625 C198.95297559 349.47912788 192.91883823 357.11402706 186.24609375 363.7421875 C184.6895162 365.31340371 183.89909249 366.99433214 183 369 C182.34 369 181.68 369 181 369 C180.72800781 369.58910156 180.45601563 370.17820312 180.17578125 370.78515625 C179.0244625 372.95391947 177.80016325 374.59506415 176.1875 376.4375 C175.46626953 377.27087891 175.46626953 377.27087891 174.73046875 378.12109375 C173.04056181 379.95595885 171.29056215 381.71779741 169.52427673 383.47871399 C167.82509377 385.17456305 166.1313744 386.87575637 164.43823242 388.57763672 C160.80656408 392.22721459 157.17175606 395.87364863 153.53588867 399.51904297 C151.97476323 401.08519959 150.41453616 402.65225224 148.85522461 404.22021484 C146.5868795 406.500785 144.31523547 408.77802544 142.04296875 411.0546875 C141.35623581 411.74658173 140.66950287 412.43847595 139.96195984 413.15133667 C135.47377658 417.64003049 130.82496424 421.87660536 126 426 C125.43581863 426.48644485 124.87163727 426.97288971 124.2903595 427.47407532 C122.74249939 428.80371505 121.18401338 430.12095528 119.625 431.4375 C119.10550781 431.88287109 118.58601563 432.32824219 118.05078125 432.78710938 C114.23084677 436 114.23084677 436 112 436 C112 436.66 112 437.32 112 438 C103.86147327 445.99221614 93.74895532 452.11469388 84.31445312 458.43505859 C82.22804049 459.84580806 80.16507518 461.2833214 78.109375 462.73828125 C68.61119235 469.39451805 58.59428594 474.31988151 48 479 C46.906875 479.49371094 45.81375 479.98742187 44.6875 480.49609375 C11.12542235 495.13390207 -26.60682588 498.11184861 -60.96679688 484.86621094 C-63.46673567 483.80115536 -65.71778093 482.46954697 -68 481 C-69.67101049 480.29303402 -71.34240182 479.5868562 -73.01953125 478.89453125 C-76.81058904 477.18219943 -80.39444196 475.06849475 -84 473 C-84 472.34 -84 471.68 -84 471 C-84.55300781 470.90976562 -85.10601562 470.81953125 -85.67578125 470.7265625 C-88.67029203 469.79046333 -90.67590202 468.25235606 -93.1875 466.375 C-94.63769531 465.29412109 -94.63769531 465.29412109 -96.1171875 464.19140625 C-100.10496496 461.16004696 -104.07874559 458.1170909 -108 455 C-108.86625 454.32130859 -108.86625 454.32130859 -109.75 453.62890625 C-112.9853302 451.03255376 -115.46649302 448.26904126 -118 445 C-118.886875 444.13375 -119.77375 443.2675 -120.6875 442.375 C-123 440 -123 440 -124 437 C-124.86625 436.62875 -124.86625 436.62875 -125.75 436.25 C-128.68239075 434.62089403 -129.87213524 432.52355455 -131.7265625 429.78125 C-133.05894371 427.81464745 -133.05894371 427.81464745 -135.3125 425.6875 C-138.58853572 422.41146428 -141.37426432 418.8496476 -144.23046875 415.20703125 C-145.96150108 412.96559241 -145.96150108 412.96559241 -148 411 C-148 410.01 -148 409.02 -148 408 C-148.66 408 -149.32 408 -150 408 C-151.33984375 406.375 -151.33984375 406.375 -152.9375 404 C-153.85982422 402.64261719 -153.85982422 402.64261719 -154.80078125 401.2578125 C-155.52652344 400.18273437 -156.25226563 399.10765625 -157 398 C-157.90849114 396.68374501 -158.8187459 395.36870608 -159.73046875 394.0546875 C-160.69542249 392.66153451 -161.66026626 391.26830535 -162.625 389.875 C-163.30743774 388.89080078 -163.30743774 388.89080078 -164.00366211 387.88671875 C-166.334408 384.50268343 -168.61853039 381.0923421 -170.8359375 377.6328125 C-171.25149902 376.9845752 -171.66706055 376.33633789 -172.09521484 375.66845703 C-173 374 -173 374 -173 372 C-173.66 372 -174.32 372 -175 372 C-182.05116226 360.03614273 -186.06066736 347.2454913 -190 334 C-190.20157715 333.32694824 -190.4031543 332.65389648 -190.61083984 331.96044922 C-197.12072147 309.73784718 -197.68491736 286.09062839 -199 263.125 C-200.09982619 243.99036432 -201.54888162 225.01178329 -204 206 C-204.12991333 204.98315125 -204.25982666 203.96630249 -204.39367676 202.91864014 C-205.41055355 194.98557787 -206.46469154 187.05760877 -207.52587891 179.13037109 C-209.43720088 164.82229416 -211.19937427 150.71049124 -211.1875 136.25 C-211.18669434 135.21085449 -211.18588867 134.17170898 -211.18505859 133.10107422 C-211.11781897 124.58010049 -210.39748745 116.40474723 -209 108 C-208.89042969 107.154375 -208.78085938 106.30875 -208.66796875 105.4375 C-206.67996923 92.50458004 -200.64377753 79.48650471 -193 69 C-191.87851563 67.43765625 -191.87851563 67.43765625 -190.734375 65.84375 C-187.08102569 60.85971055 -183.4052614 56.33779951 -179 52 C-177.26497096 50.06774799 -175.5360519 48.12999645 -173.8125 46.1875 C-168.96506962 40.8243332 -163.75762672 36.37755436 -158 32 C-156.01420871 30.40404125 -154.03506998 28.79977139 -152.0625 27.1875 C-151.16660156 26.45917969 -150.27070313 25.73085937 -149.34765625 24.98046875 C-147.06319696 23.13807198 -147.06319696 23.13807198 -145.49609375 21.36328125 C-144 20 -144 20 -141.7734375 19.12109375 C-137.33385835 17.3265033 -133.61495788 14.45183035 -129.703125 11.72070312 C-125.58548688 8.90138151 -121.63524048 6.85085854 -117 5 C-115.22733706 4.1705657 -113.45638189 3.3374676 -111.6875 2.5 C-107.26586564 0.47189499 -102.88613216 -1.06352629 -98.19140625 -2.32421875 C-95.99642864 -2.93272528 -95.99642864 -2.93272528 -94.07421875 -3.98046875 C-87.2632333 -7.32824126 -79.50358064 -8.43289888 -72 -8 C-72 -8.66 -72 -9.32 -72 -10 C-49.38771822 -12.77694689 -19.63708002 -13.68098038 0 0 Z " fill="#02A9F4" transform="translate(280,188)"/>
<path d="M0 0 C1.99302124 0.6872487 3.98967123 1.36515933 6 2 C6 2.66 6 3.32 6 4 C6.556875 4.103125 7.11375 4.20625 7.6875 4.3125 C12.27666032 5.67684496 15.2400072 8.16107584 18.5 11.5625 C21.12652731 14.29623098 21.12652731 14.29623098 24.5 15.9375 C28.64937119 17.70098275 31.55332618 21.2630054 34 25 C34 26.32 34 27.64 34 29 C34.90878906 29.39251953 34.90878906 29.39251953 35.8359375 29.79296875 C38.17375175 31.09691208 39.10689011 32.13778429 40.625 34.3125 C42.871528 37.45536998 45.18659455 40.51854888 47.58422852 43.5480957 C52.96514549 50.38237932 57.53497688 57.53056173 62 65 C63.28409051 67.04644011 64.57533679 69.08841435 65.875 71.125 C66.42929687 71.99382812 66.98359375 72.86265625 67.5546875 73.7578125 C68.68757986 75.51532659 69.84011925 77.26017888 71 79 C71 79.99 71 80.98 71 82 C71.66 82 72.32 82 73 82 C74.54236738 84.03366201 75.97124441 86.06122316 77.375 88.1875 C78.15183557 89.34886917 78.93046264 90.50904216 79.7109375 91.66796875 C80.08959961 92.23306152 80.46826172 92.7981543 80.85839844 93.38037109 C81.92350297 94.89147106 83.10333472 96.31985945 84.2890625 97.73828125 C86 100 86 100 86 103 C86.56332031 103.21785156 87.12664062 103.43570312 87.70703125 103.66015625 C90.75230578 105.43959265 92.48328245 107.69406889 94.6875 110.4375 C95.47511719 111.40558594 96.26273438 112.37367187 97.07421875 113.37109375 C99 116 99 116 100 119 C100.680625 119.2475 101.36125 119.495 102.0625 119.75 C104.94316826 120.97581628 106.40311867 122.11121009 108.6875 124.1875 C116.52315883 131.27480939 126.28698706 138.61250937 135.99052316 142.87422109 C138.36771618 144.03757998 140.11512107 145.13220538 142 147 C143.21271625 150.70098267 143.09323585 154.30265794 143.03605652 158.17059326 C143.05065314 159.31190995 143.06524976 160.45322665 143.08028871 161.62912869 C143.11929924 165.46282935 143.1009535 169.29410468 143.08276367 173.12792969 C143.09412916 175.87271655 143.11735439 178.6173759 143.1398468 181.36209106 C143.18700492 188.0495688 143.19043699 194.73638521 143.17762073 201.4239907 C143.16775493 206.86103087 143.1723896 212.29787426 143.18734169 217.73490143 C143.18943372 218.50872662 143.19152576 219.28255181 143.19368118 220.07982625 C143.19795592 221.65188704 143.20224675 223.22394779 143.2065535 224.7960085 C143.24489373 239.54196021 143.23183349 254.28753756 143.20279822 269.03348795 C143.17777717 282.5166607 143.21487187 295.99881323 143.28176483 309.48181662 C143.34995041 323.33042402 143.37739072 337.17855443 143.36033612 351.02732778 C143.35144241 358.80066295 143.35836759 366.57319223 143.40755272 374.3463974 C143.44894583 380.96591894 143.45154907 387.58408763 143.40462073 394.20359513 C143.38172089 397.58025289 143.38223075 400.95248933 143.41892624 404.32932663 C143.63359686 425.69057226 143.63359686 425.69057226 139.58129311 430.52953339 C136.80504419 432.83257835 134.22372039 434.41468833 131 436 C129.05426553 437.53085902 129.05426553 437.53085902 127.53125 439.01171875 C113.27590406 451.61096617 97.77739016 462.87600808 81.4375 472.625 C80.78765137 473.01324951 80.13780273 473.40149902 79.46826172 473.80151367 C75.06210887 476.41418235 70.64767477 478.83642726 66 481 C65.35675781 481.30035156 64.71351563 481.60070313 64.05078125 481.91015625 C61.71500782 482.97658146 59.36155784 483.99189038 57 485 C55.93136719 485.46535156 54.86273437 485.93070313 53.76171875 486.41015625 C46.74144014 489.35852246 39.73638116 491.79165066 32.375 493.75 C31.63652832 493.94843506 30.89805664 494.14687012 30.13720703 494.35131836 C18.91116165 497.21230724 7.82126897 498.36875704 -3.75 498.3125 C-5.58860596 498.30404053 -5.58860596 498.30404053 -7.46435547 498.29541016 C-32.09970452 497.96702554 -56.68559311 490.75648983 -76 475 C-79.88313587 472.41908747 -83.80381084 470.03734797 -88 468 C-88 467.34 -88 466.68 -88 466 C-88.66 466 -89.32 466 -90 466 C-90 465.34 -90 464.68 -90 464 C-90.556875 463.938125 -91.11375 463.87625 -91.6875 463.8125 C-94.31680297 462.88869085 -95.56672225 461.51022278 -97.47680664 459.5402832 C-99.18668394 457.81122151 -100.95544695 456.16120687 -102.7421875 454.51171875 C-103.41636719 453.88716797 -104.09054687 453.26261719 -104.78515625 452.61914062 C-106.16833316 451.3406715 -107.5537214 450.06459029 -108.94140625 448.79101562 C-118.63325478 439.79144199 -118.63325478 439.79144199 -122 435 C-122 434.01 -122 433.02 -122 432 C-122.928125 431.6596875 -122.928125 431.6596875 -123.875 431.3125 C-126 430 -126 430 -126.875 427.625 C-127.80613509 424.75468153 -127.80613509 424.75468153 -130.75 423.3125 C-134.67793678 420.51762191 -136.28363623 417.6261701 -138.609375 413.4765625 C-139.77811744 411.3951504 -141.00864378 409.45331206 -142.375 407.5 C-144 405 -144 405 -144 403 C-144.66 403 -145.32 403 -146 403 C-146.495 401.515 -146.495 401.515 -147 400 C-147.99 399.34 -148.98 398.68 -150 398 C-150 397.34 -150 396.68 -150 396 C-150.66 396 -151.32 396 -152 396 C-152.33 394.68 -152.66 393.36 -153 392 C-153.66 392 -154.32 392 -155 392 C-155.35191406 391.34515625 -155.70382812 390.6903125 -156.06640625 390.015625 C-159.43084447 383.79624573 -162.92962954 377.68399164 -166.58203125 371.62890625 C-167.82112785 369.33162797 -168.38115984 367.49239294 -169 365 C-169.66 364.67 -170.32 364.34 -171 364 C-185.92799858 335.00718643 -186.56937555 298.55789262 -188.19696045 266.72683716 C-189.36091748 243.9965559 -191.37812241 221.63936818 -194.68890381 199.12567139 C-199.77842193 164.3497939 -199.77842193 164.3497939 -200 152 C-200.02046387 150.95956543 -200.04092773 149.91913086 -200.06201172 148.84716797 C-200.51338413 121.81331789 -198.56830395 94.60899016 -180.453125 72.91015625 C-178.80739147 70.96001668 -178.80739147 70.96001668 -178 68 C-177.34 68 -176.68 68 -176 68 C-175.66935547 67.19369141 -175.66935547 67.19369141 -175.33203125 66.37109375 C-173.54948697 63.19806038 -171.1640849 60.69695486 -168.6875 58.0625 C-168.21376953 57.55009766 -167.74003906 57.03769531 -167.25195312 56.50976562 C-164.23907037 53.2660738 -161.14350551 50.11786517 -158 47 C-157.319375 46.30777344 -156.63875 45.61554688 -155.9375 44.90234375 C-148.85917661 37.72412466 -148.85917661 37.72412466 -145 35 C-144.34 35 -143.68 35 -143 35 C-143 34.34 -143 33.68 -143 33 C-141.59586301 32.00426268 -140.18311002 31.01840025 -138.72900391 30.09716797 C-135.97960743 28.35249305 -133.34906223 26.43761771 -130.6875 24.5625 C-125.61181202 21.02703069 -120.47258022 17.87603474 -115 15 C-113.98035156 14.43410156 -112.96070313 13.86820313 -111.91015625 13.28515625 C-105.41372303 9.69961026 -98.99045548 6.49272056 -92 4 C-91.05511719 3.66226562 -90.11023438 3.32453125 -89.13671875 2.9765625 C-82.17643466 0.57521935 -75.18785369 -1.40840383 -68 -3 C-66.7934375 -3.28101563 -65.586875 -3.56203125 -64.34375 -3.8515625 C-44.12346705 -8.20700844 -19.04278094 -8.80007301 0 0 Z " fill="#02A9F4" transform="translate(938,1404)"/>
<path d="M0 0 C0 0.66 0 1.32 0 2 C0.8353125 2.0928125 0.8353125 2.0928125 1.6875 2.1875 C4.99068042 3.3480769 6.71894733 5.40213446 9 8 C9 8.66 9 9.32 9 10 C9.99 10.33 10.98 10.66 12 11 C27.34808985 25.44526103 34.24901111 48.56393376 35.13394165 69.10978699 C35.22488572 72.88600084 35.26895727 76.66036521 35.27734375 80.4375 C35.27920118 81.13229462 35.28105862 81.82708923 35.28297234 82.54293823 C35.28099307 98.14607947 33.70303538 113.46206184 31.81335449 128.93261719 C31.06020789 135.13957137 30.34865518 141.35160101 29.62890625 147.5625 C29.47764282 148.86429199 29.32637939 150.16608398 29.17053223 151.50732422 C27.48786089 166.16809129 26.83325727 180.66787295 26.86962891 195.41796875 C26.87499471 197.99745557 26.86964188 200.57676836 26.86328125 203.15625 C26.8598963 212.15721261 27.13998852 221.05304274 27.76855469 230.03320312 C28.19069158 237.26830883 28.19788533 244.5044086 28.1875 251.75 C28.18689575 252.53581451 28.1862915 253.32162903 28.18566895 254.1312561 C28.1478018 272.3284962 26.72628392 289.38385084 22 307 C21.78730469 307.89589844 21.57460938 308.79179688 21.35546875 309.71484375 C19.91736439 315.29097743 17.55079124 320.38992197 15.0625 325.5625 C14.72637695 326.27865479 14.39025391 326.99480957 14.04394531 327.73266602 C13.03515625 329.75390625 13.03515625 329.75390625 11 333 C8.87280273 333.70288086 8.87280273 333.70288086 7 334 C6.938125 334.680625 6.87625 335.36125 6.8125 336.0625 C5.13330536 342.13343446 0.61238184 346.86068296 -4 351 C-5.33333333 351.66666667 -6.66666667 352.33333333 -8 353 C-8.33 353.99 -8.66 354.98 -9 356 C-11.7776971 358.60240553 -14.92767774 360.75885841 -18 363 C-18.93070313 363.69480469 -19.86140625 364.38960937 -20.8203125 365.10546875 C-54.22568622 389.24106485 -94.94653224 398.46293232 -135.625 398.375 C-136.49308289 398.37512085 -137.36116577 398.3752417 -138.2555542 398.37536621 C-152.49201054 398.34727288 -166.10744582 397.30293766 -180 394 C-181.25941406 393.72285156 -182.51882813 393.44570313 -183.81640625 393.16015625 C-197.18117101 389.79960706 -211.31081132 383.93235261 -222.8671875 376.38671875 C-224.64665664 375.2297379 -226.48564901 374.1649748 -228.3359375 373.125 C-231.96927817 371.06410404 -235.36455705 368.75524064 -238.75 366.3125 C-239.35489258 365.87752197 -239.95978516 365.44254395 -240.58300781 364.99438477 C-249.08588125 358.82319713 -257.0297403 352.07375214 -264.78515625 344.9921875 C-266.56885531 343.3878021 -268.37329353 341.86661605 -270.25 340.375 C-272.98813506 338.01024699 -275.14059279 335.52542955 -277.4375 332.75 C-279.00022321 330.99975 -280.62606255 329.55046648 -282.4375 328.0625 C-286.42893228 324.75531326 -289.65542334 320.94182249 -293 317 C-293.51111328 316.4239502 -294.02222656 315.84790039 -294.54882812 315.25439453 C-298.74287675 310.52505897 -302.68339747 305.66270788 -306.5 300.625 C-307.06388428 299.88330566 -307.62776855 299.14161133 -308.20874023 298.37744141 C-318.91126503 284.24214774 -318.91126503 284.24214774 -322.83984375 277.03125 C-324.46348419 274.18851252 -326.24646818 271.45181535 -328 268.6875 C-330.83238286 264.14873047 -333.17359662 259.66523787 -335.01171875 254.63671875 C-336.1922319 251.48712832 -337.56664729 248.44640416 -338.9375 245.375 C-360.25952469 195.44503263 -361.57097988 126.76457234 -342 76 C-341.63261719 75.03449219 -341.26523437 74.06898438 -340.88671875 73.07421875 C-332.87242189 52.94710839 -320.95107331 36.29115493 -305.25 21.5 C-304.70698242 20.98300537 -304.16396484 20.46601074 -303.60449219 19.93334961 C-300.58230286 17.14753004 -297.94047985 15.22592706 -294 14 C-294 13.34 -294 12.68 -294 12 C-287.4575254 7.50550815 -280.32191198 4.01490493 -273 1 C-271.71838383 0.44876724 -270.43717163 -0.10340521 -269.15625 -0.65625 C-260.25201514 -4.45924891 -251.4033562 -7.61633506 -242 -10 C-241.1116748 -10.23267578 -240.22334961 -10.46535156 -239.30810547 -10.70507812 C-215.43800218 -16.8586373 -190.92310108 -18.24944659 -166.42272949 -19.84179688 C-164.10355843 -19.99323768 -161.78465644 -20.1482102 -159.46582031 -20.3046875 C-150.31335941 -20.92105807 -141.15897541 -21.48775305 -132 -22 C-130.42605469 -22.08894531 -130.42605469 -22.08894531 -128.8203125 -22.1796875 C-30.24663921 -27.55643332 -30.24663921 -27.55643332 0 0 Z " fill="#02A9F4" transform="translate(800,602)"/>
<path d="M0 0 C84.15 0 168.3 0 255 0 C255 156.42 255 312.84 255 474 C250.75660665 472.93915166 247.60820037 471.13656237 243.9375 468.875 C243.27137695 468.46902588 242.60525391 468.06305176 241.91894531 467.64477539 C239.94200907 466.4361463 237.97038404 465.21927426 236 464 C234.99582031 463.38253906 233.99164062 462.76507813 232.95703125 462.12890625 C228.28927742 459.21240206 223.79762029 456.15214938 219.375 452.875 C215.36048632 449.90149918 211.32504212 447.37139093 206.875 445.10546875 C204.90888806 443.94628192 203.57554806 442.63733426 202 441 C200.8553125 440.319375 200.8553125 440.319375 199.6875 439.625 C197.50619391 438.30607074 195.78618755 437.02535551 193.875 435.375 C191.1832913 432.86087528 191.1832913 432.86087528 188 432 C186.64631404 430.68733482 185.31200404 429.35432675 184 428 C183.34 427.67 182.68 427.34 182 427 C182 426.34 182 425.68 182 425 C181.42378906 424.731875 180.84757813 424.46375 180.25390625 424.1875 C177.94567012 422.97137559 176.002104 421.59121696 173.9375 420 C171.65654536 418.24878722 169.39613223 416.59742149 167 415 C167 414.34 167 413.68 167 413 C166.46890625 412.77570313 165.9378125 412.55140625 165.390625 412.3203125 C162.18353307 410.54907545 159.51102462 408.25750333 156.75 405.875 C155.8525708 405.102771 155.8525708 405.102771 154.93701172 404.31494141 C149.82393145 399.84642233 144.94365297 395.15798326 140.125 390.375 C139.41698242 389.67616699 138.70896484 388.97733398 137.97949219 388.25732422 C137.32883789 387.6026416 136.67818359 386.94795898 136.0078125 386.2734375 C135.42660645 385.68997559 134.84540039 385.10651367 134.24658203 384.50537109 C133 383 133 383 133 381 C130.66785852 379.79371992 128.50357861 378.8345262 126 378 C124.640625 376.3984375 124.640625 376.3984375 123.25 374.375 C120.67964891 370.80577484 117.89531458 367.79241572 114.74609375 364.734375 C111.9913331 361.99810268 109.2722732 359.15454777 107 356 C107 355.34 107 354.68 107 354 C106.01 353.67 105.02 353.34 104 353 C101.95703125 350.78515625 101.95703125 350.78515625 99.8125 348.0625 C99.09707031 347.16660156 98.38164063 346.27070313 97.64453125 345.34765625 C96 343 96 343 96 341 C95.34 341 94.68 341 94 341 C93.04190325 339.63037175 92.09439832 338.25219549 91.19970703 336.84033203 C88.4840801 332.67460232 85.34726241 328.78684728 82.33398438 324.83398438 C75 315.14429109 75 315.14429109 75 312 C74.34 312 73.68 312 73 312 C72.0234375 310.20963542 71.046875 308.41927083 70.0703125 306.62890625 C69.08589976 304.83381685 69.08589976 304.83381685 67 304 C66.26142759 302.31272612 65.52817803 300.62271468 64.83447266 298.91650391 C63.56276216 295.99581128 61.88597884 293.37759567 60.1875 290.6875 C59.47368209 289.54444329 58.76014273 288.4012126 58.046875 287.2578125 C57.03367187 285.64519531 57.03367187 285.64519531 56 284 C49.68275807 273.91081265 44.20870244 263.47437022 39.95703125 252.34765625 C38.95117599 249.88023171 37.78871392 247.5526123 36.5625 245.1875 C34.09287187 240.35397706 32.1405114 235.40216096 30.2421875 230.3203125 C29.45759721 228.22313721 28.65285693 226.13329181 27.8203125 224.0546875 C25.09227436 217.225677 22.74069307 210.31481781 20.5 203.3125 C20.09128662 202.04128296 20.09128662 202.04128296 19.67431641 200.74438477 C14.82323508 185.37692342 10.92134002 169.95953934 7.9375 154.125 C7.68128372 152.78184723 7.68128372 152.78184723 7.41989136 151.41156006 C4.07286132 133.74734033 1.75068769 116.02163498 0.18920898 98.11328125 C0.05067559 96.56599726 -0.10110059 95.01988336 -0.26049805 93.47460938 C-1.12593632 84.47682321 -1.14582453 75.5125556 -1.1328125 66.484375 C-1.13348788 64.81675197 -1.13445985 63.14912904 -1.13571167 61.48150635 C-1.137176 58.00882009 -1.13507403 54.53615977 -1.13037109 51.06347656 C-1.12465667 46.6299014 -1.12797167 42.19638656 -1.13394356 37.76281357 C-1.13756827 34.32773387 -1.13640212 30.89266833 -1.13381577 27.4575882 C-1.13315271 25.82304121 -1.133953 24.1884929 -1.13629532 22.55394745 C-1.13885539 20.26737589 -1.13493517 17.9809004 -1.12939453 15.69433594 C-1.12859894 14.39816345 -1.12780334 13.10199097 -1.12698364 11.76654053 C-0.99422313 7.82864854 -0.48871289 3.90970311 0 0 Z " fill="#02A9F4" transform="translate(825,0)"/>
<path d="M0 0 C2.96183961 1.88238873 6.00667497 3.59444939 9.06591797 5.31298828 C9.06591797 5.97298828 9.06591797 6.63298828 9.06591797 7.31298828 C9.66404297 7.41611328 10.26216797 7.51923828 10.87841797 7.62548828 C13.37850082 8.41122861 14.44126879 9.28217681 16.06591797 11.31298828 C16.06591797 11.97298828 16.06591797 12.63298828 16.06591797 13.31298828 C17.05591797 13.31298828 18.04591797 13.31298828 19.06591797 13.31298828 C19.06591797 13.97298828 19.06591797 14.63298828 19.06591797 15.31298828 C19.78779297 15.37486328 20.50966797 15.43673828 21.25341797 15.50048828 C24.94990871 16.56836338 26.59730664 18.42118644 29.06591797 21.31298828 C29.06591797 21.97298828 29.06591797 22.63298828 29.06591797 23.31298828 C29.72591797 23.31298828 30.38591797 23.31298828 31.06591797 23.31298828 C31.06591797 144.42298828 31.06591797 265.53298828 31.06591797 390.31298828 C22.99785158 386.27895509 16.14630745 382.60713969 9.06591797 377.31298828 C8.07333984 376.57564453 7.08076172 375.83830078 6.05810547 375.07861328 C3.99604664 373.53852924 1.93992932 371.99045465 -0.10986328 370.43408203 C-1.79465826 369.16873808 -3.49550661 367.92372115 -5.22705078 366.72314453 C-10.57230053 362.99077478 -14.1020586 358.5469715 -17.93408203 353.31298828 C-20.94080499 349.24873981 -20.94080499 349.24873981 -24.93408203 346.31298828 C-25.95291502 344.65776711 -26.94811682 342.98799585 -27.93408203 341.31298828 C-30.07462645 338.24200398 -32.30423328 335.23385411 -34.52587891 332.22119141 C-37.93408203 327.52801037 -37.93408203 327.52801037 -37.93408203 325.31298828 C-38.59408203 325.31298828 -39.25408203 325.31298828 -39.93408203 325.31298828 C-40.28470703 324.54986328 -40.63533203 323.78673828 -40.99658203 323.00048828 C-43.56988945 317.86584231 -46.82227666 313.13088 -49.93408203 308.31298828 C-50.67226382 307.14447631 -51.4092044 305.97517948 -52.14501953 304.80517578 C-55.90730459 298.84506433 -59.7422274 293.04114484 -64.17236328 287.54736328 C-66.96889371 284.0005442 -69.53953533 280.29203368 -72.13720703 276.59814453 C-73.9023953 274.10936294 -73.9023953 274.10936294 -76.93408203 272.31298828 C-77.99658203 269.93798828 -77.99658203 269.93798828 -78.93408203 267.31298828 C-79.79198386 265.09527764 -79.79198386 265.09527764 -80.93408203 263.31298828 C-81.92408203 262.98298828 -82.91408203 262.65298828 -83.93408203 262.31298828 C-83.93408203 261.65298828 -83.93408203 260.99298828 -83.93408203 260.31298828 C-84.75908203 260.14798828 -85.58408203 259.98298828 -86.43408203 259.81298828 C-89.95549898 258.30380959 -91.30438055 257.10282709 -93.87158203 254.37548828 C-97.35228172 250.68017898 -100.14204465 248.91033408 -104.93408203 247.31298828 C-104.93408203 246.65298828 -104.93408203 245.99298828 -104.93408203 245.31298828 C-105.91248047 245.14863281 -105.91248047 245.14863281 -106.91064453 244.98095703 C-107.78462891 244.82240234 -108.65861328 244.66384766 -109.55908203 244.50048828 C-110.41759766 244.34966797 -111.27611328 244.19884766 -112.16064453 244.04345703 C-114.93408203 243.31298828 -114.93408203 243.31298828 -117.84423828 241.81298828 C-133.02868926 234.44152283 -156.69278785 237.57077317 -172.93408203 239.31298828 C-174.03965796 236.9594746 -175.14357185 234.60520418 -176.24658203 232.25048828 C-176.5553125 231.59371094 -176.86404297 230.93693359 -177.18212891 230.26025391 C-178.10804926 228.28170832 -179.02120539 226.2975786 -179.93408203 224.31298828 C-180.45228516 223.20955078 -180.97048828 222.10611328 -181.50439453 220.96923828 C-190.50205531 197.95882712 -196.80709685 158.49186278 -186.93408203 135.31298828 C-186.42562174 133.38296883 -185.94760585 131.44473221 -185.49658203 129.50048828 C-184.30600649 124.58632698 -182.82616069 119.99813544 -180.93408203 115.31298828 C-180.27408203 115.31298828 -179.61408203 115.31298828 -178.93408203 115.31298828 C-178.93408203 113.99298828 -178.93408203 112.67298828 -178.93408203 111.31298828 C-178.27408203 111.31298828 -177.61408203 111.31298828 -176.93408203 111.31298828 C-176.93408203 108.67298828 -176.93408203 106.03298828 -176.93408203 103.31298828 C-176.27408203 103.31298828 -175.61408203 103.31298828 -174.93408203 103.31298828 C-174.82064453 102.73548828 -174.70720703 102.15798828 -174.59033203 101.56298828 C-173.66798364 98.40065093 -171.91412793 96.0274752 -170.09033203 93.31298828 C-168.84048465 91.39584074 -168.84048465 91.39584074 -168.52783203 89.31298828 C-167.70606769 86.54493999 -165.98745243 85.31800032 -163.93408203 83.31298828 C-162.10664864 80.47966502 -160.41279242 77.58895724 -158.71533203 74.67626953 C-156.93408203 72.31298828 -156.93408203 72.31298828 -154.71533203 71.48095703 C-154.12751953 71.42552734 -153.53970703 71.37009766 -152.93408203 71.31298828 C-153.00111328 70.56662109 -153.06814453 69.82025391 -153.13720703 69.05126953 C-152.88715992 65.68044207 -152.04044713 64.85190303 -149.68408203 62.50048828 C-146.11103316 58.69551737 -144.05630803 55.06677453 -141.93408203 50.31298828 C-141.27408203 50.31298828 -140.61408203 50.31298828 -139.93408203 50.31298828 C-139.60408203 49.32298828 -139.27408203 48.33298828 -138.93408203 47.31298828 C-137.88220703 46.53955078 -137.88220703 46.53955078 -136.80908203 45.75048828 C-134.11965378 43.47032085 -132.62980063 41.57941661 -130.68408203 38.68798828 C-126.900523 33.09490101 -122.50611093 28.26467328 -117.93408203 23.31298828 C-116.09263521 21.21914238 -114.26523003 19.11400251 -112.44189453 17.00439453 C-110.04999736 14.32125599 -108.34445682 12.50925449 -105.05908203 10.93798828 C-101.86115306 9.48990011 -101.86115306 9.48990011 -99.70751953 6.97314453 C-96.5185649 3.91444298 -93.34148434 2.11013916 -89.43408203 0.12548828 C-88.78310547 -0.21675781 -88.13212891 -0.55900391 -87.46142578 -0.91162109 C-84.67817408 -2.35947425 -81.96145597 -3.67652573 -79.02783203 -4.80029297 C-76.76038813 -5.4933927 -76.76038813 -5.4933927 -75.93408203 -7.68701172 C-50.94706559 -17.06300288 -22.20131325 -14.24092418 0 0 Z " fill="#098FC2" transform="translate(1048.93408203125,1160.68701171875)"/>
<path d="M0 0 C0.8971875 0.50144531 1.794375 1.00289062 2.71875 1.51953125 C8.01817733 4.57861079 8.01817733 4.57861079 10 6 C10 6.66 10 7.32 10 8 C10.85722656 8.23074219 11.71445312 8.46148438 12.59765625 8.69921875 C16.43329544 10.16565715 19.28896488 12.25358346 22.4375 14.8125 C23.57468494 15.71589696 24.71269904 16.61825122 25.8515625 17.51953125 C26.39200195 17.94959473 26.93244141 18.3796582 27.48925781 18.82275391 C29.37800579 20.29456107 31.33243384 21.6543632 33.3125 23 C34.199375 23.66 35.08625 24.32 36 25 C36 25.66 36 26.32 36 27 C36.99 27.33 37.98 27.66 39 28 C39.66 28.99 40.32 29.98 41 31 C41.99 31.33 42.98 31.66 44 32 C48 37.37142857 48 37.37142857 48 40 C48.721875 40.226875 49.44375 40.45375 50.1875 40.6875 C54.4115648 42.65873024 57.32215753 45.22066351 59 49.625 C59.80234923 52.23407837 59.80234923 52.23407837 62.5 53.3125 C65.3898788 55.26316819 65.51780589 55.92868242 66.3125 59.1875 C66.6528125 61.0746875 66.6528125 61.0746875 67 63 C67.66 63 68.32 63 69 63 C70.51848531 65.67843936 72.01449742 68.36584442 73.5 71.0625 C74.14388672 72.19075195 74.14388672 72.19075195 74.80078125 73.34179688 C77.44620076 78.19173265 78.52851832 81.47257919 78 87 C78.66 87 79.32 87 80 87 C80.97300508 90.68378077 81.92547547 94.37260352 82.875 98.0625 C83.27912109 99.59100586 83.27912109 99.59100586 83.69140625 101.15039062 C87.48451086 115.99900745 88.30306055 130.24082119 88.20581055 145.47875977 C88.18755082 148.42928778 88.18530179 151.37949937 88.18554688 154.33007812 C88.13215631 184.75711955 88.13215631 184.75711955 83.96875 197.88671875 C83.14952204 200.51947957 82.55539744 203.04380346 82.0625 205.75 C81.16122647 210.02709632 79.39097873 213.61643238 77.34375 217.4609375 C76.46121343 219.12852113 75.62567356 220.82200062 74.84375 222.5390625 C71.93825559 228.88010774 68.29454706 234.379113 63 239 C61.67422299 239.36222122 60.34170879 239.70216378 59 240 C58.690625 240.78375 58.38125 241.5675 58.0625 242.375 C56.70914468 245.71858372 55.20139285 246.4793384 52 248 C51.34 248 50.68 248 50 248 C50 248.66 50 249.32 50 250 C47.09451118 252.04169485 45.59857954 253 42 253 C42 253.66 42 254.32 42 255 C40.62714844 255.30744141 40.62714844 255.30744141 39.2265625 255.62109375 C37.44378906 256.02521484 37.44378906 256.02521484 35.625 256.4375 C34.44164062 256.70433594 33.25828125 256.97117187 32.0390625 257.24609375 C29.10505419 257.85634695 29.10505419 257.85634695 27 259 C25.13360437 259.3360102 23.25948036 259.62948248 21.3828125 259.90234375 C14.22719539 260.9655372 7.08226433 262.08690607 -0.06054688 263.23217773 C-1.45458539 263.45523049 -2.84879608 263.6772095 -4.24316406 263.89819336 C-6.29010796 264.22267995 -8.33650615 264.55042613 -10.3828125 264.87890625 C-11.58309082 265.0704126 -12.78336914 265.26191895 -14.02001953 265.45922852 C-17.03970537 265.93448134 -17.03970537 265.93448134 -20 267 C-20.598125 265.906875 -21.19625 264.81375 -21.8125 263.6875 C-23.31396658 261.04935977 -24.80413044 259.10039697 -27 257 C-28 255.33333333 -29 253.66666667 -30 252 C-30.99728631 250.99729365 -31.99749688 249.9974906 -33 249 C-41 238.70731707 -41 238.70731707 -41 235 C-41.66 235 -42.32 235 -43 235 C-43.391875 234.175 -43.78375 233.35 -44.1875 232.5 C-45.89071533 229.21103247 -47.75146637 226.13673829 -49.7421875 223.01953125 C-50.9205432 221.12757505 -51.99784151 219.20746266 -53.0625 217.25 C-54.80301932 214.02834867 -54.80301932 214.02834867 -57.0625 211.9375 C-59.44050219 209.55949781 -60.52903001 207.0058952 -62 204 C-63.37485532 202.45833358 -63.37485532 202.45833358 -65 201 C-69.76590604 195.65288591 -69.76590604 195.65288591 -70.8515625 192.625 C-72.29775215 189.31942365 -74.24199118 187.39540895 -76.8125 184.875 C-77.66457031 184.02679688 -78.51664062 183.17859375 -79.39453125 182.3046875 C-82.83923615 179.25764718 -85.82916264 177.33774155 -90.25 176.0625 C-91.1575 175.711875 -92.065 175.36125 -93 175 C-93.875 172.875 -93.875 172.875 -94 171 C-94.53625 170.896875 -95.0725 170.79375 -95.625 170.6875 C-98 170 -98 170 -100.59375 168.62109375 C-104.60754946 166.71085662 -108.59551057 165.53239113 -112.875 164.375 C-113.63941406 164.1584375 -114.40382813 163.941875 -115.19140625 163.71875 C-123.02060829 161.56538713 -130.56829338 160.84639874 -138.65625 160.90234375 C-139.83785706 160.90446617 -139.83785706 160.90446617 -141.04333496 160.90663147 C-143.52893064 160.91217388 -146.01443211 160.92471515 -148.5 160.9375 C-150.19791535 160.94252246 -151.89583214 160.94708405 -153.59375 160.95117188 C-157.72920229 160.96212436 -161.86458524 160.97934834 -166 161 C-166 161.66 -166 162.32 -166 163 C-167.68717539 163.31424786 -169.37475949 163.62630155 -171.0625 163.9375 C-172.00222656 164.11152344 -172.94195312 164.28554687 -173.91015625 164.46484375 C-177.26518251 165.04592921 -180.62741927 165.53263862 -184 166 C-184.78951184 151.52561628 -182.12985092 137.84058147 -178 124 C-177.34 124 -176.68 124 -176 124 C-175.89042969 123.41992188 -175.78085938 122.83984375 -175.66796875 122.2421875 C-174.67933203 117.37134318 -173.35431189 113.4143348 -171 109 C-170.67 107.96875 -170.34 106.9375 -170 105.875 C-168.99756895 102.99301074 -167.82565239 101.4026487 -166 99 C-165.20462541 97.61800362 -164.43426965 96.22135408 -163.6875 94.8125 C-161.89773417 91.52495431 -159.98134201 88.40667983 -157.875 85.3125 C-155.6000374 81.97041577 -153.69306971 78.66831769 -152 75 C-151.34 75 -150.68 75 -150 75 C-149.731875 74.46375 -149.46375 73.9275 -149.1875 73.375 C-148.795625 72.59125 -148.40375 71.8075 -148 71 C-147.566875 69.96875 -147.13375 68.9375 -146.6875 67.875 C-145 65 -145 65 -142.4375 64 C-141.2309375 63.505 -141.2309375 63.505 -140 63 C-139.29618843 61.01276732 -138.6288189 59.01222047 -138 57 C-136.68352881 56.30062468 -135.34977849 55.63270867 -134 55 C-133.76410156 54.32324219 -133.52820313 53.64648438 -133.28515625 52.94921875 C-131.4128496 48.652588 -128.44831053 45.43352526 -125.4375 41.875 C-124.2447684 40.45902987 -123.05579032 39.03988709 -121.87109375 37.6171875 C-121.34443115 36.99440918 -120.81776855 36.37163086 -120.27514648 35.72998047 C-118.80055923 33.91555789 -118.80055923 33.91555789 -118 31 C-113.68181818 26.22727273 -113.68181818 26.22727273 -110 25 C-109.67 24.01 -109.34 23.02 -109 22 C-107.37550757 20.29220027 -105.70779973 18.62449243 -104 17 C-103.34 16.34 -102.68 15.68 -102 15 C-101.360625 14.855625 -100.72125 14.71125 -100.0625 14.5625 C-97.55461233 13.87853064 -96.77392132 12.86752019 -95 11 C-89.3546075 5.5275861 -82.87087945 1.76008636 -76 -2 C-75.28199219 -2.39703125 -74.56398438 -2.7940625 -73.82421875 -3.203125 C-72 -4 -72 -4 -69 -4 C-69 -4.66 -69 -5.32 -69 -6 C-45.67199674 -11.67986166 -21.58053783 -12.11892143 0 0 Z " fill="#098FC2" transform="translate(374,17)"/>
<path d="M0 0 C0.33 0 0.66 0 1 0 C1.15855469 1.26070312 1.31710937 2.52140625 1.48046875 3.8203125 C2.75638427 13.55069402 4.30319398 23.16824078 6.4375 32.75 C6.72693481 34.08635498 6.72693481 34.08635498 7.0222168 35.44970703 C8.21746681 40.63318426 9.83920678 45.29431731 12.1418457 50.0925293 C13.15864151 52.35262194 13.68324484 54.54514752 14 57 C14.99 57.33 15.98 57.66 17 58 C17.95703125 59.96875 17.95703125 59.96875 18.8125 62.5 C20.83032882 67.92485518 23.6757566 72.29763888 27 77 C30 81.6 30 81.6 30 85 C30.66 85 31.32 85 32 85 C32.33 86.32 32.66 87.64 33 89 C33.66 89 34.32 89 35 89 C37.125 90.8125 37.125 90.8125 39 93 C39 93.99 39 94.98 39 96 C39.66 96 40.32 96 41 96 C42.33203125 97.65234375 42.33203125 97.65234375 43.8125 99.9375 C44.61107422 101.16339844 44.61107422 101.16339844 45.42578125 102.4140625 C46.90003671 104.83579231 48.20593222 107.29137119 49.5 109.8125 C51.67308629 113.86425443 54.09920943 115.54080594 58 118 C59.75 121.1875 59.75 121.1875 61 124 C61.66 124.33 62.32 124.66 63 125 C64.00796695 126.66186052 65.00669578 128.32933411 66 130 C71.14938332 136.40666375 77.01172916 142.02635679 83.18920898 147.42041016 C84.4942347 148.57548411 85.7519306 149.78360749 87 151 C87 151.66 87 152.32 87 153 C87.86625 153.433125 87.86625 153.433125 88.75 153.875 C90.83333333 154.91666667 92.91666667 155.95833333 95 157 C95 157.66 95 158.32 95 159 C95.66 159 96.32 159 97 159 C97 159.66 97 160.32 97 161 C97.58394531 161.12117188 98.16789063 161.24234375 98.76953125 161.3671875 C104.35536429 162.95195975 109.040217 166.98080899 113.5 170.5625 C117.47829733 173.70040743 121.36265499 175.98803021 126 178 C126.90621094 178.39960937 127.81242188 178.79921875 128.74609375 179.2109375 C154.77206453 190.37942951 183.23487341 194.29892918 211 187 C211.71269043 186.82307617 212.42538086 186.64615234 213.15966797 186.46386719 C223.81931505 183.81326136 233.91926819 180.34372997 244 176 C245.33998047 175.45279297 245.33998047 175.45279297 246.70703125 174.89453125 C259.86677492 169.29507043 272.53949525 161.51523517 284 153 C284.84046875 152.40058594 285.6809375 151.80117187 286.546875 151.18359375 C297.90747183 143.05715527 308.70647092 134.4420423 319 125 C324.6206089 120 324.6206089 120 327 120 C327 149.37 327 178.74 327 209 C291.97540472 209.0220481 256.95081617 209.04051126 221.92621604 209.05106533 C217.79065443 209.05231603 213.65509284 209.05361035 209.51953125 209.05493164 C208.69622006 209.05519395 207.87290886 209.05545626 207.02464885 209.05572652 C193.69607353 209.06007708 180.36750252 209.06796127 167.03892976 209.0771528 C153.3612213 209.08650638 139.68351511 209.09205923 126.00580359 209.09408849 C117.56686042 209.09546017 109.12792946 209.09979159 100.68899006 209.10791647 C94.90104156 209.11320494 89.11309937 209.1147995 83.32514864 209.11350138 C79.98650515 209.11286129 76.64790014 209.11438608 73.30925751 209.11920547 C69.68617582 209.12417925 66.06314637 209.12298462 62.44006348 209.12025452 C61.38946448 209.12316736 60.33886548 209.1260802 59.25643015 209.12908131 C53.74187886 209.11784706 48.45530379 208.81785497 43 208 C43 207.34 43 206.68 43 206 C41.9275 205.938125 40.855 205.87625 39.75 205.8125 C33.76207797 205.1017035 28.44690136 202.46018378 23 200 C23 199.34 23 198.68 23 198 C22.05125 197.71125 21.1025 197.4225 20.125 197.125 C17 196 17 196 15 194 C13.88625 193.54625 12.7725 193.0925 11.625 192.625 C8.12218832 191.05477408 6.60233968 189.68908433 4 187 C3.195625 186.71125 2.39125 186.4225 1.5625 186.125 C-1.38352911 184.83162136 -2.78893087 183.11076119 -4.73046875 180.58984375 C-6.16663166 178.724766 -6.16663166 178.724766 -8.8125 176.25 C-11 174 -11 174 -11 172 C-12.2065625 171.6596875 -12.2065625 171.6596875 -13.4375 171.3125 C-14.283125 170.879375 -15.12875 170.44625 -16 170 C-16.8125 167.375 -16.8125 167.375 -17 165 C-17.66 165 -18.32 165 -19 165 C-19 164.34 -19 163.68 -19 163 C-19.66 163 -20.32 163 -21 163 C-22.5859375 161.171875 -22.5859375 161.171875 -24.375 158.75 C-26.1528906 156.35337215 -27.80532271 154.17911828 -30.00390625 152.15625 C-32.60322322 149.34837727 -34.02980609 146.20744245 -35.5625 142.75 C-35.86841064 142.07469238 -36.17432129 141.39938477 -36.48950195 140.70361328 C-38.5143772 136.1948258 -40.44426495 131.69402818 -42 127 C-42.32742188 126.08605469 -42.65484375 125.17210937 -42.9921875 124.23046875 C-51.89505599 97.8792777 -50.72372483 66.78544698 -41 41 C-40.71970947 40.23719727 -40.43941895 39.47439453 -40.15063477 38.68847656 C-37.87929598 32.54093449 -35.90069875 27.46828415 -31 23 C-30.195625 22.195625 -29.39125 21.39125 -28.5625 20.5625 C-27.716875 19.716875 -26.87125 18.87125 -26 18 C-25.113125 17.071875 -24.22625 16.14375 -23.3125 15.1875 C-21 13 -21 13 -19 13 C-18.67 12.01 -18.34 11.02 -18 10 C-15.93359375 9.05078125 -15.93359375 9.05078125 -13.4375 8.3125 C-12.61121094 8.06113281 -11.78492188 7.80976562 -10.93359375 7.55078125 C-9.97646484 7.27814453 -9.97646484 7.27814453 -9 7 C-9 6.34 -9 5.68 -9 5 C-7.88625 4.731875 -6.7725 4.46375 -5.625 4.1875 C-1.78159049 3.34190981 -1.78159049 3.34190981 0 0 Z " fill="#0990C2" transform="translate(753,1711)"/>
<path d="M0 0 C0 45.21 0 90.42 0 137 C-8.06806639 132.9659668 -14.91961052 129.29415141 -22 124 C-22.99257812 123.26265625 -23.98515625 122.5253125 -25.0078125 121.765625 C-27.06987133 120.22554096 -29.12598865 118.67746637 -31.17578125 117.12109375 C-32.86057623 115.8557498 -34.56142458 114.61073287 -36.29296875 113.41015625 C-41.6382185 109.6777865 -45.16797657 105.23398322 -49 100 C-52.00672296 95.93575153 -52.00672296 95.93575153 -56 93 C-57.01883299 91.34477883 -58.01403478 89.67500757 -59 88 C-61.14054442 84.9290157 -63.37015125 81.92086583 -65.59179688 78.90820312 C-69 74.21502209 -69 74.21502209 -69 72 C-69.66 72 -70.32 72 -71 72 C-71.350625 71.236875 -71.70125 70.47375 -72.0625 69.6875 C-74.63580742 64.55285403 -77.88819463 59.81789172 -81 55 C-81.73818178 53.83148803 -82.47512236 52.6621912 -83.2109375 51.4921875 C-87.4895313 44.71537898 -91.99847006 38.26806724 -97 32 C-98.54379623 30.02020368 -99.76816507 28.20703758 -101 26 C-100.59375 23.83203125 -100.59375 23.83203125 -100 22 C-98.19015625 21.51080078 -98.19015625 21.51080078 -96.34375 21.01171875 C-94.72911276 20.57050974 -93.11453245 20.12909234 -91.5 19.6875 C-90.31277344 19.36749023 -90.31277344 19.36749023 -89.1015625 19.04101562 C-84.5705364 17.79684043 -80.1990677 16.36657423 -75.81787109 14.67163086 C-71.3443467 13.01884203 -66.63606693 12.08464133 -62 11 C-61.28328125 10.82597656 -60.5665625 10.65195313 -59.828125 10.47265625 C-49.84352815 8.13130699 -39.62738034 6.09410491 -29.375 5.5625 C-21.92888423 5.12117914 -15.13286759 3.08005859 -8 1 C-5.00628519 0.14312277 -3.25738831 0 0 0 Z " fill="#1665C1" transform="translate(1080,1414)"/>
<path d="M0 0 C0 29.37 0 58.74 0 89 C-81.84 89 -163.68 89 -248 89 C-244.13584978 87.06792489 -240.53668102 86.08015583 -236.375 85.125 C-229.97617054 83.59733196 -224.05048129 81.59801201 -218 79 C-215.21461882 78.01995847 -212.58510351 77.11069526 -209.6875 76.5625 C-209.130625 76.376875 -208.57375 76.19125 -208 76 C-207.505 74.515 -207.505 74.515 -207 73 C-206.01 73 -205.02 73 -204 73 C-204 72.34 -204 71.68 -204 71 C-203.34 71 -202.68 71 -202 71 C-202 70.34 -202 69.68 -202 69 C-199.62846401 66.50862575 -197.03387206 64.61320813 -194 63 C-189.49445164 62.92848336 -186.24798152 63.88593446 -182.0625 65.375 C-161.47600186 72.41045307 -136.90916803 72.49662672 -116 67 C-115.28730957 66.82307617 -114.57461914 66.64615234 -113.84033203 66.46386719 C-103.18068495 63.81326136 -93.08073181 60.34372997 -83 56 C-82.10667969 55.63519531 -81.21335937 55.27039062 -80.29296875 54.89453125 C-67.13322508 49.29507043 -54.46050475 41.51523517 -43 33 C-42.15953125 32.40058594 -41.3190625 31.80117187 -40.453125 31.18359375 C-29.09252817 23.05715527 -18.29352908 14.4420423 -8 5 C-2.3793911 0 -2.3793911 0 0 0 Z " fill="#1665C1" transform="translate(1080,1831)"/>
<path d="M0 0 C1.66289062 0.00676758 1.66289062 0.00676758 3.359375 0.01367188 C6.07297399 0.02536842 8.78645761 0.04175914 11.5 0.0625 C11.5 0.7225 11.5 1.3825 11.5 2.0625 C13.170625 2.18625 13.170625 2.18625 14.875 2.3125 C19.32494123 2.84901774 23.05566078 4.39407774 27.15625 6.140625 C29.90655065 7.22240992 32.56473863 7.75352512 35.5 8.0625 C35.5 8.7225 35.5 9.3825 35.5 10.0625 C37.0778125 10.1553125 37.0778125 10.1553125 38.6875 10.25 C43.29641883 11.2322286 44.27574345 12.72039781 47.5 16.0625 C49.63134894 17.84583255 51.84236513 19.51665051 54.0625 21.1875 C54.62646484 21.61675781 55.19042969 22.04601562 55.77148438 22.48828125 C58.12459729 24.2771975 60.47961482 26.04824695 62.90234375 27.7421875 C63.42957031 28.17789063 63.95679688 28.61359375 64.5 29.0625 C64.5 29.7225 64.5 30.3825 64.5 31.0625 C65.85738281 31.42214844 65.85738281 31.42214844 67.2421875 31.7890625 C70.85537865 33.201413 72.1827954 34.47812266 74.625 37.4375 C78.20399072 41.61805282 81.90402936 45.56968032 85.8125 49.4375 C86.31604004 49.93685059 86.81958008 50.43620117 87.33837891 50.95068359 C89.48149779 53.07233551 91.62944777 55.18819886 93.79296875 57.2890625 C95.56527271 59.13031192 96.36625078 60.79500156 97.5 63.0625 C98.20125 63.743125 98.9025 64.42375 99.625 65.125 C101.5 67.0625 101.5 67.0625 101.5 70.0625 C102.16 70.0625 102.82 70.0625 103.5 70.0625 C115.12910371 87.62986944 124.31843466 112.71499607 123.5 134.0625 C119.66780823 132.50123668 117.32638778 130.03383075 114.5 127.0625 C113.901875 126.505625 113.30375 125.94875 112.6875 125.375 C111.5 124.0625 111.5 124.0625 111.5 122.0625 C110.84 122.0625 110.18 122.0625 109.5 122.0625 C109.5 121.4025 109.5 120.7425 109.5 120.0625 C108.84 120.0625 108.18 120.0625 107.5 120.0625 C107.5 119.4025 107.5 118.7425 107.5 118.0625 C106.84 118.0625 106.18 118.0625 105.5 118.0625 C105.5 117.4025 105.5 116.7425 105.5 116.0625 C104.943125 115.835625 104.38625 115.60875 103.8125 115.375 C100.26814655 113.36333993 97.74538379 110.41166578 95 107.4375 C93.43261942 105.90864402 93.43261942 105.90864402 91 104.5625 C88.76204232 103.21972539 87.1538493 102.06452809 85.5 100.0625 C85.5 99.4025 85.5 98.7425 85.5 98.0625 C84.84 98.0625 84.18 98.0625 83.5 98.0625 C83.5 97.4025 83.5 96.7425 83.5 96.0625 C82.18 96.0625 80.86 96.0625 79.5 96.0625 C79.17 95.4025 78.84 94.7425 78.5 94.0625 C76.34778746 92.94204869 74.19856944 91.89590637 72 90.875 C66.59928749 88.28741646 61.9546006 85.44316238 57.3671875 81.54296875 C55.49509539 80.0586112 53.66847949 79.05036288 51.5 78.0625 C51.5 77.4025 51.5 76.7425 51.5 76.0625 C50.90832031 75.88074219 50.31664062 75.69898438 49.70703125 75.51171875 C41.19505836 72.80399491 41.19505836 72.80399491 37.5 70.0625 C37.5 69.4025 37.5 68.7425 37.5 68.0625 C36.84 68.0625 36.18 68.0625 35.5 68.0625 C35.17 67.4025 34.84 66.7425 34.5 66.0625 C32.38672575 65.15524566 32.38672575 65.15524566 29.9375 64.4375 C29.11121094 64.17710937 28.28492188 63.91671875 27.43359375 63.6484375 C26.79550781 63.45507812 26.15742188 63.26171875 25.5 63.0625 C25.5 62.4025 25.5 61.7425 25.5 61.0625 C24.68208984 60.82466797 24.68208984 60.82466797 23.84765625 60.58203125 C17.93878753 58.75381717 12.80135828 56.23328876 7.5 53.0625 C7.5 52.4025 7.5 51.7425 7.5 51.0625 C6.530625 50.835625 5.56125 50.60875 4.5625 50.375 C-0.19229318 49.04015027 -4.27811307 46.57074121 -8.5 44.0625 C-8.5 43.4025 -8.5 42.7425 -8.5 42.0625 C-9.06847656 41.96453125 -9.63695312 41.8665625 -10.22265625 41.765625 C-15.76230622 40.69283803 -19.72757085 39.05696535 -24.5 36.0625 C-25.82646156 35.3822633 -27.15608877 34.70757739 -28.5 34.0625 C-28.5 33.4025 -28.5 32.7425 -28.5 32.0625 C-29.7065625 31.9696875 -29.7065625 31.9696875 -30.9375 31.875 C-34.91766821 30.96724234 -37.70109276 29.37326736 -41.1953125 27.33203125 C-44.52209514 25.49948149 -47.91602009 24.31689297 -51.5 23.0625 C-53.16905395 22.40183281 -54.8369416 21.73811748 -56.5 21.0625 C-56.5 20.4025 -56.5 19.7425 -56.5 19.0625 C-55.18 19.0625 -53.86 19.0625 -52.5 19.0625 C-52.5 18.0725 -52.5 17.0825 -52.5 16.0625 C-51.51 15.7325 -50.52 15.4025 -49.5 15.0625 C-49.17 14.4025 -48.84 13.7425 -48.5 13.0625 C-47.675 12.794375 -46.85 12.52625 -46 12.25 C-43.10918447 11.26918759 -41.02722936 10.27617568 -38.4375 8.75 C-25.75710638 1.53160026 -14.30359561 -0.11121217 0 0 Z " fill="#0890C2" transform="translate(284.5,863.9375)"/>
<path d="M0 0 C0.33 0 0.66 0 1 0 C0.8549359 2.66671033 0.70894632 5.33336547 0.5625 8 C0.50352539 9.08667969 0.50352539 9.08667969 0.44335938 10.1953125 C0.40146484 10.95585938 0.35957031 11.71640625 0.31640625 12.5 C0.27 13.34820313 0.22359375 14.19640625 0.17578125 15.0703125 C0.04728765 17.21187253 -0.09833063 19.35242438 -0.25390625 21.4921875 C-0.95705238 31.47686253 -1.15505 41.40972106 -1.13037109 51.41796875 C-1.12500529 53.99745557 -1.13035812 56.57676836 -1.13671875 59.15625 C-1.1401037 68.15721261 -0.86001148 77.05304274 -0.23144531 86.03320312 C0.19070959 93.26861758 0.19443786 100.50418113 0.1875 107.75 C0.1882251 108.53016479 0.1889502 109.31032959 0.18969727 110.11413574 C0.18846262 122.17481318 -0.31740903 134.04158559 -2 146 C-2.33 146 -2.66 146 -3 146 C-3.02737815 143.52075612 -3.04701804 141.04182484 -3.0625 138.5625 C-3.07087891 137.87478516 -3.07925781 137.18707031 -3.08789062 136.47851562 C-3.10438409 132.93242044 -2.96730823 129.5250345 -2.46728516 126.01269531 C-1.79109613 120.12289052 -2.13886414 114.32619156 -2.42578125 108.41796875 C-3.02662529 94.05832564 -3.18779617 79.71507079 -3.18530273 65.34448242 C-3.18522112 62.65105529 -3.1922502 59.957797 -3.20581055 57.2644043 C-3.40985736 16.03913201 -3.40985736 16.03913201 0 0 Z " fill="#0E9DEC" transform="translate(828,746)"/>
<path d="M0 0 C2.62098923 2.62098923 2.23788503 4.47665049 2.25224304 8.04450989 C2.24505753 8.87157944 2.23787201 9.69864899 2.23046875 10.55078125 C2.22978142 11.82721748 2.22978142 11.82721748 2.2290802 13.12944031 C2.22605578 14.93258047 2.21816385 16.73571798 2.20581055 18.53881836 C2.18764228 21.29094778 2.18530029 24.04273895 2.18554688 26.79492188 C2.1806281 28.54687789 2.17479822 30.29883164 2.16796875 32.05078125 C2.16685593 32.87177811 2.1657431 33.69277496 2.16459656 34.53865051 C2.13189918 38.50535571 1.89697939 42.11695304 1 46 C0.97185736 49.05950725 1.06375401 52.10227707 1.16015625 55.16015625 C0.99443321 58.09870877 0.40010986 59.47159647 -1 62 C-1.42151885 63.57158878 -1.7968834 65.15629082 -2.125 66.75 C-2.29257812 67.54921875 -2.46015625 68.3484375 -2.6328125 69.171875 C-2.75398437 69.77515625 -2.87515625 70.3784375 -3 71 C-3.33 71 -3.66 71 -4 71 C-3.88206405 69.10371412 -3.75510463 67.20798986 -3.625 65.3125 C-3.55539062 64.25675781 -3.48578125 63.20101563 -3.4140625 62.11328125 C-3.22827515 59.85996257 -2.94299291 57.68772247 -2.53662109 55.46166992 C-0.50748072 44.26262447 -0.54631593 33.03807231 -0.375 21.6875 C-0.33673889 19.57876135 -0.2976827 17.47003697 -0.2578125 15.36132812 C-0.16270957 10.24100382 -0.07836201 5.12060675 0 0 Z " fill="#0976CD" transform="translate(671,1599)"/>
<path d="M0 0 C2.50807352 6.96687088 -0.97772934 14.8196024 -3.125 21.5 C-4.03309407 25.13237629 -4.07452249 28.27387549 -4 32 C-4.495 32.495 -4.495 32.495 -5 33 C-5.21063107 35.50416935 -5.37572077 37.99140081 -5.5 40.5 C-5.86486486 47.86486486 -5.86486486 47.86486486 -7 49 C-7.16023562 51.88252645 -7.25954029 54.74378527 -7.31640625 57.62890625 C-7.33718735 58.49313705 -7.35796844 59.35736786 -7.37937927 60.24778748 C-7.44497114 63.01927445 -7.50380418 65.79085921 -7.5625 68.5625 C-7.60567608 70.43685923 -7.64929006 72.31120843 -7.69335938 74.18554688 C-7.80066227 78.79026336 -7.90190215 83.39507858 -8 88 C-8.33 88 -8.66 88 -9 88 C-9.98413843 19.96827686 -9.98413843 19.96827686 0 0 Z " fill="#0D9CEA" transform="translate(455,688)"/>
<path d="M0 0 C1.29867527 4.19997109 0.40970021 6.84509413 -1 11 C-1.51433594 11.92232422 -1.51433594 11.92232422 -2.0390625 12.86328125 C-3.2330826 15.51827716 -3.38064837 17.78948152 -3.5625 20.6875 C-3.90084986 25.90084986 -3.90084986 25.90084986 -5 27 C-5.12221525 28.44184293 -5.17772758 29.88943144 -5.20532227 31.33618164 C-5.22526749 32.2570607 -5.24521271 33.17793976 -5.26576233 34.12672424 C-5.28247482 35.12775681 -5.29918732 36.12878937 -5.31640625 37.16015625 C-5.33718735 38.17975937 -5.35796844 39.19936249 -5.37937927 40.24986267 C-5.44498852 43.52067048 -5.50381234 46.79156137 -5.5625 50.0625 C-5.60567442 52.27409728 -5.64928834 54.48568603 -5.69335938 56.69726562 C-5.8006814 62.13142151 -5.90242623 67.56566082 -6 73 C-6.33 73 -6.66 73 -7 73 C-9.10889413 55.82757638 -8.87209442 38.05306063 -6 21 C-5.855625 20.07316406 -5.71125 19.14632813 -5.5625 18.19140625 C-4.45499828 11.85293661 -2.34208874 5.98028483 0 0 Z " fill="#109EEC" transform="translate(77,275)"/>
<path d="M0 0 C-15.82458595 8.86788391 -39.61779511 7.29422886 -57.125 7.125 C-58.97004713 7.11493197 -60.81509968 7.105813 -62.66015625 7.09765625 C-67.10690923 7.07598716 -71.55339141 7.04167694 -76 7 C-76 6.67 -76 6.34 -76 6 C-74.98574951 5.97494385 -73.97149902 5.9498877 -72.92651367 5.92407227 C-69.16368973 5.82990355 -65.40104631 5.72970595 -61.63842773 5.62768555 C-60.00988996 5.58437251 -58.38130784 5.54269482 -56.75268555 5.50268555 C-54.41181065 5.44489497 -52.07115824 5.38122602 -49.73046875 5.31640625 C-49.00224411 5.29969376 -48.27401947 5.28298126 -47.52372742 5.26576233 C-44.43833061 5.17532762 -41.94828022 4.98276007 -39 4 C-37.64860769 3.88842032 -36.29307648 3.82258288 -34.9375 3.7890625 C-34.14585449 3.76255615 -33.35420898 3.7360498 -32.53857422 3.70874023 C-31.70084473 3.68110596 -30.86311523 3.65347168 -30 3.625 C-23.44796254 3.35954332 -17.65181683 2.65506536 -11.37890625 0.6328125 C-7.53558795 -0.38954803 -3.95358985 -0.19443885 0 0 Z " fill="#0F9EEB" transform="translate(720,993)"/>
<path d="M0 0 C1 3 1 3 0.36328125 4.97265625 C0.01652344 5.66230469 -0.33023438 6.35195313 -0.6875 7.0625 C-1.02136719 7.75472656 -1.35523438 8.44695313 -1.69921875 9.16015625 C-3.22293245 11.31531887 -4.58243401 12.01770477 -7 13 C-6.938125 13.763125 -6.87625 14.52625 -6.8125 15.3125 C-7 18 -7 18 -8.375 19.8125 C-10 21 -10 21 -12 21 C-12.24234375 21.56847656 -12.4846875 22.13695312 -12.734375 22.72265625 C-16.3584892 29.24382471 -23.20868361 34.39664594 -29 39 C-29.66 38.67 -30.32 38.34 -31 38 C-30.55269531 37.62488281 -30.10539063 37.24976563 -29.64453125 36.86328125 C-22.98256591 31.25824345 -22.98256591 31.25824345 -17.3125 24.6875 C-16.879375 24.130625 -16.44625 23.57375 -16 23 C-15.34 23 -14.68 23 -14 23 C-13.731875 22.4225 -13.46375 21.845 -13.1875 21.25 C-12 19 -12 19 -10.4375 17 C-8.87173896 15.10844774 -8.87173896 15.10844774 -8.5625 12.875 C-8.376875 12.25625 -8.19125 11.6375 -8 11 C-7.06220703 10.59007812 -7.06220703 10.59007812 -6.10546875 10.171875 C-3.37282363 8.65092224 -2.89714438 7.24286094 -1.75 4.375 C-1.24726562 3.14910156 -1.24726562 3.14910156 -0.734375 1.8984375 C-0.49203125 1.27195312 -0.2496875 0.64546875 0 0 Z " fill="#0A72C9" transform="translate(815,925)"/>
<path d="M0 0 C-1.06806065 2.99056981 -1.98566853 3.99054999 -4.68359375 5.76953125 C-8.30448386 8.20478243 -11.29933596 10.92711749 -14.4375 13.9375 C-18.73120712 18.05510815 -23.08995663 21.62938868 -28 25 C-26.44747 21.42170892 -24.28430104 18.8310783 -21.6875 15.9375 C-20.54861328 14.65166016 -20.54861328 14.65166016 -19.38671875 13.33984375 C-17.04282972 11.04198854 -14.83078834 9.62591166 -12 8 C-10.57605526 6.82492488 -9.17857049 5.61688226 -7.8125 4.375 C-2.98523207 0 -2.98523207 0 0 0 Z " fill="#1081C2" transform="translate(956,1164)"/>
<path d="M0 0 C1.33365476 0.2901934 2.66690215 0.58225892 4 0.875 C4.81597656 1.05417969 5.63195312 1.23335937 6.47265625 1.41796875 C8.81130905 1.95654567 11.12076427 2.56261899 13.4375 3.1875 C16.81864481 4.35522032 16.81864481 4.35522032 19 3 C19.66 3.33 20.32 3.66 21 4 C21 4.66 21 5.32 21 6 C22.5778125 5.9690625 22.5778125 5.9690625 24.1875 5.9375 C28 6 28 6 30.35229492 6.48413086 C33.32192189 7.06272208 36.15245095 7.21215348 39.17578125 7.31640625 C40.33271484 7.35830078 41.48964844 7.40019531 42.68164062 7.44335938 C43.87982422 7.48267578 45.07800781 7.52199219 46.3125 7.5625 C47.53001953 7.60568359 48.74753906 7.64886719 50.00195312 7.69335938 C53.0011947 7.79921496 56.00051591 7.90129726 59 8 C59 8.33 59 8.66 59 9 C37.99268175 9.43472642 19.65748877 8.88168726 0 1 C0 0.67 0 0.34 0 0 Z " fill="#0E96E4" transform="translate(889,1893)"/>
<path d="M0 0 C0.33 0 0.66 0 1 0 C1.13277344 1.27617188 1.26554688 2.55234375 1.40234375 3.8671875 C1.58052665 5.53647996 1.75892314 7.20574964 1.9375 8.875 C2.02451172 9.71675781 2.11152344 10.55851562 2.20117188 11.42578125 C2.28818359 12.23144531 2.37519531 13.03710938 2.46484375 13.8671875 C2.543396 14.61081543 2.62194824 15.35444336 2.70288086 16.12060547 C2.91637347 18.08446316 2.91637347 18.08446316 4 20 C4.20540348 22.14247238 4.36589255 24.28938602 4.5 26.4375 C4.71630302 29.89448578 4.90348904 32.71046711 6 36 C6.06937062 38.22818441 6.08457084 40.45834524 6.0625 42.6875 C6.05347656 43.86699219 6.04445313 45.04648438 6.03515625 46.26171875 C6.02355469 47.16535156 6.01195312 48.06898437 6 49 C5.67 49 5.34 49 5 49 C4.27601984 44.11274885 3.56454253 39.22388476 2.86376953 34.33325195 C2.62454629 32.67554731 2.38212401 31.01830061 2.13623047 29.36157227 C0.67394956 19.49266824 -0.40273283 10.0000798 0 0 Z " fill="#109EED" transform="translate(739,1559)"/>
<path d="M0 0 C0.66 0 1.32 0 2 0 C2 0.66 2 1.32 2 2 C1.34 2 0.68 2 0 2 C-0.09982178 2.5887793 -0.19964355 3.17755859 -0.30249023 3.78417969 C-1.13083282 6.4156243 -2.19241512 7.53856606 -4.16015625 9.453125 C-4.78857422 10.071875 -5.41699219 10.690625 -6.06445312 11.328125 C-6.72380859 11.96234375 -7.38316406 12.5965625 -8.0625 13.25 C-8.72572266 13.8996875 -9.38894531 14.549375 -10.07226562 15.21875 C-11.70829317 16.8194676 -13.35090912 18.41276193 -15 20 C-15.66 19.67 -16.32 19.34 -17 19 C-15.75282088 15.25846263 -13.90112219 13.62482484 -11 11 C-10.01 10.67 -9.02 10.34 -8 10 C-7.67 9.01 -7.34 8.02 -7 7 C-5.37550757 5.29220027 -3.70779973 3.62449243 -2 2 C-1.34 1.34 -0.68 0.68 0 0 Z " fill="#0A7DBE" transform="translate(272,32)"/>
<path d="M0 0 C3.33333333 1.66666667 6.66666667 3.33333333 10 5 C10 5.66 10 6.32 10 7 C10.60585938 7.18175781 11.21171875 7.36351562 11.8359375 7.55078125 C13.59375 8.078125 15.3515625 8.60546875 17.109375 9.1328125 C18.06328125 9.41898438 19.0171875 9.70515625 20 10 C22.72135417 10.81640625 25.44270833 11.6328125 28.1640625 12.44921875 C28.76992188 12.63097656 29.37578125 12.81273437 30 13 C30 13.66 30 14.32 30 15 C32.64 15 35.28 15 38 15 C38 15.33 38 15.66 38 16 C36.39592672 16.02708567 34.7917215 16.04643483 33.1875 16.0625 C31.84751953 16.07990234 31.84751953 16.07990234 30.48046875 16.09765625 C28 16 28 16 25 15 C25 14.34 25 13.68 25 13 C23.7934375 12.8453125 23.7934375 12.8453125 22.5625 12.6875 C13.24590936 10.88956146 7.02069369 7.53701333 0 1 C0 0.67 0 0.34 0 0 Z " fill="#0E74BD" transform="translate(766,1904)"/>
<path d="M0 0 C1.24099958 3.72299874 0.58230223 5.47348663 -0.375 9.25 C-2.7009423 18.51029365 -3.25821031 27.42470583 -3.5625 36.9375 C-3.60568359 38.19369141 -3.64886719 39.44988281 -3.69335938 40.74414062 C-3.79893619 43.82932968 -3.90104551 46.91459263 -4 50 C-4.33 50 -4.66 50 -5 50 C-5.50665762 12.51513095 -5.50665762 12.51513095 0 0 Z " fill="#1097E5" transform="translate(743,1506)"/>
<path d="M0 0 C0.33 0 0.66 0 1 0 C1.04254356 1.99954746 1.04080783 4.00041636 1 6 C0.67 6.33 0.34 6.66 0 7 C-0.53690911 10.35680989 -0.96627385 13.72245328 -1.40234375 17.09375 C-1.59957031 18.0528125 -1.79679687 19.011875 -2 20 C-2.66 20.33 -3.32 20.66 -4 21 C-4.99024034 22.75687802 -5.97805252 24.51614234 -6.90234375 26.30859375 C-8 28 -8 28 -11 30 C-9.57983848 26.25842061 -7.87063019 22.78549106 -6 19.25 C-3.4335674 14.17957842 -1.93230609 9.57137134 -1 4 C-0.67759301 2.66398255 -0.34728319 1.32976813 0 0 Z " fill="#0D72BB" transform="translate(458,212)"/>
<path d="M0 0 C0.721875 0.00193359 1.44375 0.00386719 2.1875 0.00585938 C6.99126696 0.04487914 11.62945446 0.33407574 16.375 1.125 C16.375 1.455 16.375 1.785 16.375 2.125 C15.07046875 2.10179687 13.7659375 2.07859375 12.421875 2.0546875 C3.66652318 1.94826238 -4.71345394 1.87286839 -13.3125 3.78515625 C-15.74977684 4.14333714 -17.30518825 3.89290065 -19.625 3.125 C-18.06194509 1.56194509 -16.34821782 1.81860032 -14.1875 1.625 C-9.26055542 1.18212858 -5.05570345 -0.03194036 0 0 Z " fill="#0D72BC" transform="translate(999.625,1146.875)"/>
<path d="M0 0 C0.66 0.66 1.32 1.32 2 2 C0.845 1.690625 -0.31 1.38125 -1.5 1.0625 C-4.49977992 0.65295558 -5.62256824 0.74679488 -8.171875 2.45703125 C-9.53123554 3.71162904 -10.85668932 5.00425215 -12.140625 6.3359375 C-14.12958113 8.11596967 -15.3962569 8.59676545 -18 9 C-18 8.34 -18 7.68 -18 7 C-17.34 7 -16.68 7 -16 7 C-16 6.34 -16 5.68 -16 5 C-10.91741445 -0.33941833 -7.10351338 -1.9595899 0 0 Z " fill="#0B6FC1" transform="translate(894,1895)"/>
<path d="M0 0 C0.33 0 0.66 0 1 0 C1.43016434 5.59213641 -0.09423021 9.84883981 -2 15 C-2.35964844 15.99773437 -2.71929687 16.99546875 -3.08984375 18.0234375 C-4.05134278 20.68552378 -5.02197743 23.34394886 -6 26 C-6.66 26 -7.32 26 -8 26 C-7.74109357 24.60190528 -7.46722539 23.20657858 -7.1875 21.8125 C-7.03667969 21.03519531 -6.88585937 20.25789063 -6.73046875 19.45703125 C-6 17 -6 17 -4.53125 14.59375 C-2.79422918 11.65144943 -2.07903848 9.00916675 -1.3125 5.6875 C-1.06113281 4.61886719 -0.80976562 3.55023438 -0.55078125 2.44921875 C-0.27814453 1.23685547 -0.27814453 1.23685547 0 0 Z " fill="#0A73CA" transform="translate(514,466)"/>
<path d="M0 0 C-4.625 3 -4.625 3 -8 3 C-8 3.66 -8 4.32 -8 5 C-10.04111542 5.48150942 -12.08291932 5.96010083 -14.125 6.4375 C-15.26195312 6.70433594 -16.39890625 6.97117187 -17.5703125 7.24609375 C-20.70461304 7.9350687 -23.83017726 8.50381194 -27 9 C-24.39680887 7.26453924 -22.47732763 6.34824767 -19.5625 5.375 C-18.80066406 5.11460937 -18.03882813 4.85421875 -17.25390625 4.5859375 C-15 4 -15 4 -11 4 C-11 3.34 -11 2.68 -11 2 C-3.57142857 -1.57142857 -3.57142857 -1.57142857 0 0 Z " fill="#1182C3" transform="translate(424,267)"/>
<path d="M0 0 C0.33 0.99 0.66 1.98 1 3 C-0.93672986 5.10488005 -2.87435141 7.20892696 -4.8125 9.3125 C-5.35970703 9.90740234 -5.90691406 10.50230469 -6.47070312 11.11523438 C-7.00244141 11.69208984 -7.53417969 12.26894531 -8.08203125 12.86328125 C-8.81256714 13.65665894 -8.81256714 13.65665894 -9.55786133 14.46606445 C-11.00872793 16.0092835 -12.49453768 17.51015856 -14 19 C-14.99 18.67 -15.98 18.34 -17 18 C-16 17 -15 16 -14 15 C-13.54625 14.525625 -13.0925 14.05125 -12.625 13.5625 C-11 12 -11 12 -8.6875 10.3125 C-5.17462432 7.28979302 -2.66290727 3.77016424 0 0 Z " fill="#0E72BA" transform="translate(446,244)"/>
<path d="M0 0 C0.33 0 0.66 0 1 0 C1.02901394 3.4374823 1.04680335 6.87493312 1.0625 10.3125 C1.07087891 11.28896484 1.07925781 12.26542969 1.08789062 13.27148438 C1.09111328 14.20927734 1.09433594 15.14707031 1.09765625 16.11328125 C1.10289307 16.97735596 1.10812988 17.84143066 1.11352539 18.73168945 C1 21 1 21 0 24 C-0.66 24 -1.32 24 -2 24 C-1.34 16.08 -0.68 8.16 0 0 Z " fill="#0974CB" transform="translate(834,700)"/>
<path d="M0 0 C-1.05078125 1.48828125 -1.05078125 1.48828125 -3 3 C-6.35546875 3.29296875 -6.35546875 3.29296875 -10.1875 3.1875 C-11.45980469 3.16042969 -12.73210938 3.13335938 -14.04296875 3.10546875 C-15.01878906 3.07066406 -15.99460937 3.03585937 -17 3 C-11.57549721 0.13673238 -6.06883063 -1.89650957 0 0 Z " fill="#0E6DBC" transform="translate(849,1917)"/>
<path d="M0 0 C0.66 0.33 1.32 0.66 2 1 C-0.38470065 3.30349072 -2.78457195 5.59054189 -5.1875 7.875 C-5.86103516 8.52597656 -6.53457031 9.17695312 -7.22851562 9.84765625 C-13.46510858 15.74960275 -13.46510858 15.74960275 -18 17 C-14.12676724 11.79116974 -9.49496035 7.98651785 -4.42578125 3.953125 C-1.99984814 2.07139213 -1.99984814 2.07139213 0 0 Z " fill="#0973CB" transform="translate(1078,1831)"/>
<path d="M0 0 C0.33 0 0.66 0 1 0 C1.2236337 1.41433206 1.42826476 2.83167618 1.625 4.25 C1.74101563 5.03890625 1.85703125 5.8278125 1.9765625 6.640625 C2.00378999 9.38152519 1.3004409 10.62205093 0 13 C-0.42151885 14.57158878 -0.7968834 16.15629082 -1.125 17.75 C-1.29257812 18.54921875 -1.46015625 19.3484375 -1.6328125 20.171875 C-1.81457031 21.07679687 -1.81457031 21.07679687 -2 22 C-2.33 22 -2.66 22 -3 22 C-2.55761615 14.46783285 -1.86094772 7.3197277 0 0 Z " fill="#076DC4" transform="translate(670,1648)"/>
<path d="M0 0 C1.5625 1.25 1.5625 1.25 3 3 C2.58984375 5.109375 2.58984375 5.109375 2 7 C0.91332031 7.18175781 0.91332031 7.18175781 -0.1953125 7.3671875 C-4.43261247 8.10165283 -8.47552382 8.82517461 -12.5625 10.1875 C-13.366875 10.455625 -14.17125 10.72375 -15 11 C-15.66 10.67 -16.32 10.34 -17 10 C-16 9 -16 9 -13.4375 8.9375 C-12.633125 8.958125 -11.82875 8.97875 -11 9 C-11 8.34 -11 7.68 -11 7 C-7.7 6.34 -4.4 5.68 -1 5 C-0.67 3.35 -0.34 1.7 0 0 Z " fill="#0973C6" transform="translate(873,1394)"/>
<path d="M0 0 C0.33 0 0.66 0 1 0 C1.04241723 2.33294775 1.04092937 4.66702567 1 7 C0.67 7.33 0.34 7.66 0 8 C-0.28659671 11.55743849 -0.4490807 15.11499153 -0.62109375 18.6796875 C-1 22 -1 22 -3 25 C-3.28800925 7.43143555 -3.28800925 7.43143555 0 0 Z " fill="#1286C6" transform="translate(862,1296)"/>
<path d="M0 0 C0.33 0.66 0.66 1.32 1 2 C-0.07421875 4.390625 -0.07421875 4.390625 -1.6875 7.25 C-2.24050781 8.23097656 -2.79351562 9.21195312 -3.36328125 10.22265625 C-5.13975212 13.23714501 -6.98891648 16.13807346 -9 19 C-9.33 18.34 -9.66 17.68 -10 17 C-7.31632182 10.88121375 -3.80358045 5.47715585 0 0 Z " fill="#0F9AE8" transform="translate(88,256)"/>
<path d="M0 0 C0.66 0 1.32 0 2 0 C2.18175781 0.6290625 2.36351562 1.258125 2.55078125 1.90625 C3.79521723 6.14371404 5.07580149 10.28594374 6.75 14.375 C7.98722809 17.96296146 8.09322722 18.64645165 7 22 C3.39547042 14.91902057 1.58356515 7.76186858 0 0 Z " fill="#0873C9" transform="translate(509,1224)"/>
<path d="M0 0 C-0.99 0 -1.98 0 -3 0 C-3.33 0.99 -3.66 1.98 -4 3 C-5.67545431 3.78844909 -7.35894528 4.56632039 -9.0859375 5.234375 C-11.27593813 6.07139774 -11.27593813 6.07139774 -14.3125 7.75 C-15.199375 8.1625 -16.08625 8.575 -17 9 C-17.66 8.67 -18.32 8.34 -19 8 C-16.59205692 6.46358856 -14.17531353 4.94603605 -11.75 3.4375 C-11.06808594 2.99986328 -10.38617187 2.56222656 -9.68359375 2.11132812 C-9.01972656 1.70205078 -8.35585938 1.29277344 -7.671875 0.87109375 C-7.0644043 0.48880615 -6.45693359 0.10651855 -5.83105469 -0.28735352 C-3.52011648 -1.18677067 -2.30067206 -0.80168206 0 0 Z " fill="#0D72BC" transform="translate(976,1153)"/>
<path d="M0 0 C0.33 0.66 0.66 1.32 1 2 C-0.26572233 3.15147661 -1.53777906 4.29599314 -2.8125 5.4375 C-3.52019531 6.07558594 -4.22789062 6.71367188 -4.95703125 7.37109375 C-7 9 -7 9 -10 10 C-10.33 10.99 -10.66 11.98 -11 13 C-13.5625 14.1875 -13.5625 14.1875 -16 15 C-11.30217584 9.06590633 -6.01350104 4.57548992 0 0 Z " fill="#0F9EEC" transform="translate(503,617)"/>
<path d="M0 0 C0 3 0 3 -1.875 5.1875 C-4 7 -4 7 -6 7 C-6.226875 7.598125 -6.45375 8.19625 -6.6875 8.8125 C-8.33811133 11.56351888 -10.1972081 12.52484637 -13 14 C-11.43416404 9.96278439 -8.55826135 7.52929418 -5.375 4.75 C-4.859375 4.29109375 -4.34375 3.8321875 -3.8125 3.359375 C-2.5465398 2.23407704 -1.27392058 1.11627823 0 0 Z " fill="#0995E3" transform="translate(117,224)"/>
<path d="M0 0 C4.44926052 0.41314562 6.84100104 3.50461527 9.75 6.5625 C10.25660156 7.08263672 10.76320313 7.60277344 11.28515625 8.13867188 C12.53034405 9.41910084 13.76611502 10.70867554 15 12 C14.67 12.99 14.34 13.98 14 15 C13.34 14.154375 12.68 13.30875 12 12.4375 C9.21215292 9.06484592 6.02457631 6.31374414 2.671875 3.515625 C1 2 1 2 0 0 Z " fill="#059CDB" transform="translate(289,196)"/>
<path d="M0 0 C0.66 0 1.32 0 2 0 C2.20496094 0.68707031 2.40992188 1.37414063 2.62109375 2.08203125 C2.89050781 2.98308594 3.15992188 3.88414063 3.4375 4.8125 C3.83775391 6.15248047 3.83775391 6.15248047 4.24609375 7.51953125 C4.80387873 9.35473055 5.39344575 11.18033726 6 13 C6.03874921 14.66621616 6.0450286 16.33394172 6 18 C2.82583949 15.43933269 2.2166446 12.90360843 1.3125 9 C1.06113281 7.948125 0.80976562 6.89625 0.55078125 5.8125 C0 3 0 3 0 0 Z " fill="#07A1E1" transform="translate(758,1739)"/>
<path d="M0 0 C-2.62309099 1.17112946 -5.24828142 2.33705964 -7.875 3.5 C-8.62136719 3.83386719 -9.36773438 4.16773438 -10.13671875 4.51171875 C-10.85214844 4.82753906 -11.56757812 5.14335938 -12.3046875 5.46875 C-12.96452637 5.76201172 -13.62436523 6.05527344 -14.30419922 6.35742188 C-16 7 -16 7 -18 7 C-18 6.34 -18 5.68 -18 5 C-13.2984215 1.39545648 -5.77377433 -1.92459144 0 0 Z " fill="#109DEB" transform="translate(754,982)"/>
<path d="M0 0 C2.38171031 3.80273074 2.65510945 7.89003197 3.125 12.25 C3.21136719 12.99507812 3.29773438 13.74015625 3.38671875 14.5078125 C3.59786867 16.33777846 3.79984545 18.16879879 4 20 C3.34 20 2.68 20 2 20 C1.77213542 17.94921875 1.54427083 15.8984375 1.31640625 13.84765625 C1.18113386 11.98859771 1.18113386 11.98859771 0 11 C-0.07226502 9.14712498 -0.0838122 7.29166122 -0.0625 5.4375 C-0.05347656 4.42558594 -0.04445313 3.41367188 -0.03515625 2.37109375 C-0.02355469 1.58863281 -0.01195312 0.80617187 0 0 Z " fill="#0977CD" transform="translate(829,132)"/>
<path d="M0 0 C-3.22791555 2.1519437 -4.28400809 2.20086443 -8 2 C-8 2.66 -8 3.32 -8 4 C-10.30368736 5.06652192 -12.64018187 6.06421005 -15 7 C-15.66 6.67 -16.32 6.34 -17 6 C-16.360625 5.71125 -15.72125 5.4225 -15.0625 5.125 C-12.84793921 4.17176549 -12.84793921 4.17176549 -12 2 C-10.0390625 1.11328125 -10.0390625 1.11328125 -7.625 0.3125 C-6.83351563 0.04050781 -6.04203125 -0.23148438 -5.2265625 -0.51171875 C-3 -1 -3 -1 0 0 Z " fill="#0F76BE" transform="translate(752,1714)"/>
<path d="M0 0 C5.70992843 1.08760541 7.74430808 3.77513112 10.8984375 8.3203125 C11.44371094 9.15175781 11.44371094 9.15175781 12 10 C11.67 10.66 11.34 11.32 11 12 C9.16364422 10.19047409 7.33083792 8.37759362 5.5 6.5625 C4.97535156 6.04623047 4.45070313 5.52996094 3.91015625 4.99804688 C2.58775448 3.68423213 1.29164432 2.34406495 0 1 C0 0.67 0 0.34 0 0 Z " fill="#1071BD" transform="translate(360,903)"/>
<path d="M0 0 C0.33 0.99 0.66 1.98 1 3 C0.51789063 3.47050781 0.03578125 3.94101563 -0.4609375 4.42578125 C-1.09257813 5.04839844 -1.72421875 5.67101562 -2.375 6.3125 C-3.00148438 6.92738281 -3.62796875 7.54226562 -4.2734375 8.17578125 C-6.18086607 10.08812528 -6.18086607 10.08812528 -8 13 C-8.66 12.67 -9.32 12.34 -10 12 C-8.90259375 10.37042688 -7.79681808 8.74648772 -6.6875 7.125 C-6.07261719 6.22007812 -5.45773438 5.31515625 -4.82421875 4.3828125 C-3 2 -3 2 0 0 Z " fill="#0E9DED" transform="translate(99,243)"/>
<path d="M0 0 C0.625 1.8125 0.625 1.8125 1 4 C0.01 5.485 0.01 5.485 -1 7 C-1.66 7 -2.32 7 -3 7 C-3.2475 7.94875 -3.495 8.8975 -3.75 9.875 C-5 13 -5 13 -7.078125 14.1953125 C-7.71234375 14.46085938 -8.3465625 14.72640625 -9 15 C-7.68944504 12.68637791 -6.3766597 10.37407322 -5.0625 8.0625 C-4.50272461 7.0734668 -4.50272461 7.0734668 -3.93164062 6.06445312 C-1.11328125 1.11328125 -1.11328125 1.11328125 0 0 Z " fill="#0A75CA" transform="translate(498,507)"/>
<path d="M0 0 C0.33 0 0.66 0 1 0 C0.88529863 1.75070517 0.75780972 3.50057536 0.625 5.25 C0.55539062 6.22453125 0.48578125 7.1990625 0.4140625 8.203125 C0.01534751 10.89633189 -0.63507063 12.66963279 -2 15 C-2.25002209 13.25285767 -2.47423194 11.50200859 -2.6875 9.75 C-2.81511719 8.77546875 -2.94273437 7.8009375 -3.07421875 6.796875 C-2.98699283 3.50983521 -2.25165053 2.335045 0 0 Z " fill="#0EA0ED" transform="translate(667,1659)"/>
<path d="M0 0 C5.852795 0.51482919 11.3297637 1.45357192 17 3 C17 3.33 17 3.66 17 4 C13.7 4 10.4 4 7 4 C7 3.34 7 2.68 7 2 C4.69 1.67 2.38 1.34 0 1 C0 0.67 0 0.34 0 0 Z " fill="#109FEC" transform="translate(109,847)"/>
<path d="M0 0 C6.81598387 -0.33278764 11.92122066 -0.24201565 18 3 C14.02549507 4.51553092 10.79518851 3.49888623 6.75 2.5625 C5.48671875 2.27503906 4.2234375 1.98757813 2.921875 1.69140625 C1.95765625 1.46324219 0.9934375 1.23507812 0 1 C0 0.67 0 0.34 0 0 Z " fill="#086FC7" transform="translate(104,845)"/>
<path d="M0 0 C0.33 0.99 0.66 1.98 1 3 C0.34 3 -0.32 3 -1 3 C-1.33 3.99 -1.66 4.98 -2 6 C-2.66 6 -3.32 6 -4 6 C-4.4021875 7.1446875 -4.4021875 7.1446875 -4.8125 8.3125 C-5.94424112 10.87380884 -6.91223401 12.19692938 -9 14 C-9.66 13.67 -10.32 13.34 -11 13 C-7.61227103 8.30840284 -4.21814817 3.9700218 0 0 Z " fill="#0E9DEA" transform="translate(486,632)"/>
<path d="M0 0 C0.66 0 1.32 0 2 0 C0.56176509 5.63308675 -1.54144009 10.73677223 -4 16 C-5.31223496 12.06329512 -4.24296256 9.87511856 -3 6 C-2.34 6 -1.68 6 -1 6 C-0.67 4.02 -0.34 2.04 0 0 Z " fill="#0E9DEA" transform="translate(630,1796)"/>
<path d="M0 0 C0.68359375 1.640625 0.68359375 1.640625 1 4 C-0.21484375 6.796875 -0.21484375 6.796875 -1.9375 9.75 C-2.50339844 10.73484375 -3.06929687 11.7196875 -3.65234375 12.734375 C-4.09707031 13.48203125 -4.54179688 14.2296875 -5 15 C-6 13 -6 13 -5.3125 10.3125 C-3.84390539 6.60604693 -2.0494309 3.41571816 0 0 Z " fill="#0D9BE7" transform="translate(816,920)"/>
<path d="M0 0 C-2.32315698 2.32315698 -3.87261175 2.72496675 -7 3.625 C-7.886875 3.88539063 -8.77375 4.14578125 -9.6875 4.4140625 C-12 5 -12 5 -14 5 C-14 4.34 -14 3.68 -14 3 C-9.03006806 0.56574762 -5.65394631 -0.34615998 0 0 Z " fill="#0971C7" transform="translate(186,184)"/>
<path d="M0 0 C0 3.42977708 -0.84108455 5.78079042 -2 9 C-2.4640625 10.3303125 -2.4640625 10.3303125 -2.9375 11.6875 C-4.00786973 14.01712824 -5.0747713 15.33730248 -7 17 C-6.37469224 13.40931522 -5.41818571 10.19404058 -4.0625 6.8125 C-3.72347656 5.95269531 -3.38445312 5.09289062 -3.03515625 4.20703125 C-2 2 -2 2 0 0 Z " fill="#0F82C2" transform="translate(207,118)"/>
<path d="M0 0 C1.52889729 2.29334594 2.89775099 4.5116544 4.1875 6.9375 C4.55230469 7.60652344 4.91710937 8.27554687 5.29296875 8.96484375 C6.13595069 11.39132766 5.83853936 12.61256629 5 15 C3.96709159 13.06891037 2.94901328 11.129882 1.9375 9.1875 C1.08478516 7.56908203 1.08478516 7.56908203 0.21484375 5.91796875 C-1 3 -1 3 0 0 Z " fill="#0F7FC2" transform="translate(718,1849)"/>
<path d="M0 0 C3.2542015 2.83430453 4.5206753 4.68607774 5 9 C5.66 9 6.32 9 7 9 C7 9.99 7 10.98 7 12 C6.01 12 5.02 12 4 12 C3.32332002 10.75539217 2.65905281 9.50403104 2 8.25 C1.62875 7.55390625 1.2575 6.8578125 0.875 6.140625 C0 4 0 4 0 0 Z " fill="#0774C9" transform="translate(556,1336)"/>
<path d="M0 0 C0.66 0.33 1.32 0.66 2 1 C-1.87861048 5.32614246 -6.2691023 7.89790429 -12 9 C-8.63378119 5.21300384 -4.58358196 2.1727369 0 0 Z " fill="#129AEB" transform="translate(156,196)"/>
<path d="M0 0 C0 3 0 3 -1.0625 5.0625 C-3.72227001 7.72227001 -6.38960768 8.18255268 -10 9 C-6.83047153 5.73991357 -3.60062011 2.77762123 0 0 Z " fill="#0A73CA" transform="translate(1058,1848)"/>
<path d="M0 0 C0.66 1.32 1.32 2.64 2 4 C1.34 4 0.68 4 0 4 C0.061875 5.0828125 0.061875 5.0828125 0.125 6.1875 C-0.00921305 9.20729369 -0.75170619 11.26935729 -2 14 C-2.66 14 -3.32 14 -4 14 C-2.85248597 9.2460133 -1.61737483 4.62107093 0 0 Z " fill="#0973C8" transform="translate(643,1764)"/>
<path d="M0 0 C0.33 0 0.66 0 1 0 C1.37952295 6.19887485 0.8352113 10.4477112 -2 16 C-3.3805087 12.23331402 -2.59568159 9.55210827 -1.5625 5.75 C-1.27503906 4.67234375 -0.98757813 3.5946875 -0.69140625 2.484375 C-0.46324219 1.66453125 -0.23507812 0.8446875 0 0 Z " fill="#0872C8" transform="translate(656,1718)"/>
<path d="M0 0 C0.33 1.32 0.66 2.64 1 4 C-0.3125 5.4375 -0.3125 5.4375 -2 7 C-3.19027984 9.59915538 -3.19027984 9.59915538 -4 12 C-4.66 11.34 -5.32 10.68 -6 10 C-4.02 6.7 -2.04 3.4 0 0 Z " fill="#0B9CE9" transform="translate(471,652)"/>
<path d="M0 0 C0.66 0 1.32 0 2 0 C2 0.66 2 1.32 2 2 C2.99 2 3.98 2 5 2 C5.2475 2.5775 5.495 3.155 5.75 3.75 C7.16683317 6.3002997 8.87627537 8.01785701 11 10 C10.01 10.495 10.01 10.495 9 11 C5.74251349 7.83299923 2.72824638 4.63766184 0 1 C0 0.67 0 0.34 0 0 Z " fill="#0773CA" transform="translate(363,293)"/>
<path d="M0 0 C0.99 0.33 1.98 0.66 3 1 C3 1.66 3 2.32 3 3 C4.5778125 2.9690625 4.5778125 2.9690625 6.1875 2.9375 C9.32704904 2.98896802 11.96883396 3.26517187 15 4 C15 4.33 15 4.66 15 5 C12.89505699 4.91291962 10.79097858 4.80474307 8.6875 4.6875 C6.92986328 4.60048828 6.92986328 4.60048828 5.13671875 4.51171875 C1.9016314 3.98395232 0.91315119 3.57619276 -1 1 C-0.67 0.67 -0.34 0.34 0 0 Z " fill="#0DA2EE" transform="translate(907,1896)"/>
<path d="M0 0 C4.24846075 0.47205119 6.26819288 2.88877522 9 6 C9 6.66 9 7.32 9 8 C9.66 8.33 10.32 8.66 11 9 C7.51470237 8.74182981 6.78534272 7.75978828 4.375 5.0625 C3.59125 4.051875 2.8075 3.04125 2 2 C1.34 1.34 0.68 0.68 0 0 Z " fill="#0C7BBF" transform="translate(745,1888)"/>
<path d="M0 0 C-1.59766103 0.86627399 -3.20339944 1.71766465 -4.8125 2.5625 C-5.70582031 3.03816406 -6.59914063 3.51382813 -7.51953125 4.00390625 C-10 5 -10 5 -13 4 C-8.74310869 0.5314219 -5.44072603 -1.61377467 0 0 Z " fill="#0A74CC" transform="translate(536,600)"/>
<path d="M0 0 C2.93200474 2.85276137 5.64315404 5.65079784 8 9 C7.67 9.66 7.34 10.32 7 11 C6.34 9.68 5.68 8.36 5 7 C4.34 7 3.68 7 3 7 C3 6.34 3 5.68 3 5 C2.01 5 1.02 5 0 5 C0 3.35 0 1.7 0 0 Z " fill="#10A0EE" transform="translate(981,1443)"/>
<path d="M0 0 C3.13190982 1.0799689 4.00599212 2.00950474 5.8125 4.875 C6.99119908 7.97683969 7.26070809 9.0201445 6 12 C3 6.25 3 6.25 3 4 C2.34 4 1.68 4 1 4 C0.67 2.68 0.34 1.36 0 0 Z " fill="#0875CC" transform="translate(579,1380)"/>
<path d="M0 0 C0 3.77910478 -0.99703962 4.46106101 -3.5 7.1875 C-4.47453125 8.26064453 -4.47453125 8.26064453 -5.46875 9.35546875 C-5.9740625 9.89816406 -6.479375 10.44085937 -7 11 C-7.33 10.34 -7.66 9.68 -8 9 C-6.85459775 7.68712379 -5.70866567 6.37470979 -4.5625 5.0625 C-3.92441406 4.33160156 -3.28632812 3.60070313 -2.62890625 2.84765625 C-1.77458541 1.87860647 -0.91348825 0.91348825 0 0 Z " fill="#1284CA" transform="translate(927,1189)"/>
<path d="M0 0 C1.32 0.33 2.64 0.66 4 1 C4 1.66 4 2.32 4 3 C4.8971875 3.433125 4.8971875 3.433125 5.8125 3.875 C8 5 8 5 11 7 C10.67 7.66 10.34 8.32 10 9 C8.51726301 7.87970983 7.03891114 6.75361382 5.5625 5.625 C4.32693359 4.68527344 4.32693359 4.68527344 3.06640625 3.7265625 C1 2 1 2 0 0 Z " fill="#0F9DEB" transform="translate(542,952)"/>
<path d="M0 0 C3.9492568 0.55105909 7.34920174 1.38935371 11 3 C8 5 8 5 5.8125 4.625 C5.214375 4.41875 4.61625 4.2125 4 4 C4 3.34 4 2.68 4 2 C2.68 1.67 1.36 1.34 0 1 C0 0.67 0 0.34 0 0 Z " fill="#0D9DE8" transform="translate(192,871)"/>
<path d="M0 0 C3.87915244 0.57468925 6.14756605 2.37884447 9 5 C9.33 5.99 9.66 6.98 10 8 C6.05205855 6.32971708 3.18203882 3.8204435 0 1 C0 0.67 0 0.34 0 0 Z " fill="#0B76BE" transform="translate(397,32)"/>
<path d="M0 0 C3.5875213 1.33250791 6.8364623 2.830717 10 5 C10 5.66 10 6.32 10 7 C5.61308455 6.49381745 3.15608721 3.86917019 0 1 C0 0.67 0 0.34 0 0 Z " fill="#039AD8" transform="translate(342,944)"/>
<path d="M0 0 C0.99 0 1.98 0 3 0 C3 0.66 3 1.32 3 2 C3.969375 2.28875 4.93875 2.5775 5.9375 2.875 C9 4 9 4 10 6 C6.05879291 5.43697042 3.2491277 4.3208055 0 2 C0 1.34 0 0.68 0 0 Z " fill="#029AD8" transform="translate(322,932)"/>
<path d="M0 0 C2.96125343 1.37486766 5.60121183 2.76664549 8 5 C8.75 7.6875 8.75 7.6875 9 10 C8.34 10 7.68 10 7 10 C5.52734375 8.3203125 5.52734375 8.3203125 3.9375 6.125 C3.41027344 5.40570313 2.88304687 4.68640625 2.33984375 3.9453125 C1 2 1 2 0 0 Z " fill="#0E9BEB" transform="translate(944,368)"/>
<path d="M0 0 C0.99 0.33 1.98 0.66 3 1 C4.1875 4.0625 4.1875 4.0625 5 7 C5.66 7 6.32 7 7 7 C6.67 8.32 6.34 9.64 6 11 C5.0234375 9.20963542 4.046875 7.41927083 3.0703125 5.62890625 C2.08589976 3.83381685 2.08589976 3.83381685 0 3 C0 2.01 0 1.02 0 0 Z " fill="#0E9BE9" transform="translate(892,301)"/>
<path d="M0 0 C1.485 0.99 1.485 0.99 3 2 C3 2.66 3 3.32 3 4 C3.99 4.33 4.98 4.66 6 5 C6.33 7.31 6.66 9.62 7 12 C3.55341043 8.55341043 1.68336724 4.53214258 0 0 Z " fill="#059ED8" transform="translate(325,240)"/>
<path d="M0 0 C3.3 0 6.6 0 10 0 C6.55549263 2.29633824 4.06187717 2.54016485 0 3 C0 2.01 0 1.02 0 0 Z " fill="#0395CE" transform="translate(190,180)"/>
<path d="M0 0 C0.33 0 0.66 0 1 0 C1 1.65 1 3.3 1 5 C0.34 5 -0.32 5 -1 5 C-1 5.66 -1 6.32 -1 7 C-1.66 7 -2.32 7 -3 7 C-3.33 7.99 -3.66 8.98 -4 10 C-4.66 9.67 -5.32 9.34 -6 9 C-5.02501855 7.4972763 -4.04490611 5.99788037 -3.0625 4.5 C-2.51722656 3.6646875 -1.97195313 2.829375 -1.41015625 1.96875 C-0.94480469 1.3190625 -0.47945312 0.669375 0 0 Z " fill="#0671C8" transform="translate(575,1902)"/>
<path d="M0 0 C0.99 0 1.98 0 3 0 C3 0.66 3 1.32 3 2 C-2.47619048 7 -2.47619048 7 -5 7 C-4.1875 5.0625 -4.1875 5.0625 -3 3 C-2.01 2.67 -1.02 2.34 0 2 C0 1.34 0 0.68 0 0 Z " fill="#0F9EED" transform="translate(1077,1829)"/>
<path d="M0 0 C0 4.38968456 -2.12805101 5.76905739 -5 9 C-5.99 8.34 -6.98 7.68 -8 7 C-5.36 4.69 -2.72 2.38 0 0 Z " fill="#0C9CEA" transform="translate(784,1447)"/>
<path d="M0 0 C0.66 0.33 1.32 0.66 2 1 C0.92456217 1.98783194 -0.16073217 2.96493943 -1.25 3.9375 C-2.15492188 4.75541016 -2.15492188 4.75541016 -3.078125 5.58984375 C-5.08467305 7.06212799 -6.57002449 7.57529189 -9 8 C-6.14723863 5.06799526 -3.34920216 2.35684596 0 0 Z " fill="#0874CA" transform="translate(376,637)"/>
<path d="M0 0 C3.3 1.65 6.6 3.3 10 5 C6.1851221 6.27162597 4.6068725 5.64661571 1 4 C0.67 2.68 0.34 1.36 0 0 Z " fill="#0F9BE8" transform="translate(421,336)"/>
<path d="M0 0 C0 4.03223106 -1.64129026 5.80880447 -4 9 C-4.99 9.495 -4.99 9.495 -6 10 C-5.49396008 7.83125748 -5.00016187 6.00032373 -4 4 C-3.34 4 -2.68 4 -2 4 C-1.34 2.68 -0.68 1.36 0 0 Z " fill="#1483C1" transform="translate(226,88)"/>
<path d="M0 0 C4.95 0.99 4.95 0.99 10 2 C10 2.66 10 3.32 10 4 C10.66 4.33 11.32 4.66 12 5 C7.61110675 4.33501617 4.0188515 2.81242323 0 1 C0 0.67 0 0.34 0 0 Z " fill="#08A0DF" transform="translate(877,1888)"/>
<path d="M0 0 C0 0.99 0 1.98 0 3 C-3 5.1875 -3 5.1875 -6 7 C-6.66 6.67 -7.32 6.34 -8 6 C-5.36 4.02 -2.72 2.04 0 0 Z " fill="#12A0ED" transform="translate(807,1429)"/>
<path d="M0 0 C-1.09445838 0.86657116 -2.20097781 1.71792724 -3.3125 2.5625 C-3.92738281 3.03816406 -4.54226562 3.51382813 -5.17578125 4.00390625 C-5.77777344 4.33261719 -6.37976563 4.66132812 -7 5 C-7.99 4.67 -8.98 4.34 -10 4 C-9.34 4 -8.68 4 -8 4 C-7.67 3.01 -7.34 2.02 -7 1 C-2.55696203 -1.27848101 -2.55696203 -1.27848101 0 0 Z " fill="#0E7AC0" transform="translate(248,872)"/>
<path d="M0 0 C-1.28524261 0.86380259 -2.57842419 1.71580369 -3.875 2.5625 C-4.59429687 3.03816406 -5.31359375 3.51382813 -6.0546875 4.00390625 C-6.69664062 4.33261719 -7.33859375 4.66132812 -8 5 C-8.66 4.67 -9.32 4.34 -10 4 C-9.67 3.34 -9.34 2.68 -9 2 C-8.34 2 -7.68 2 -7 2 C-7 1.34 -7 0.68 -7 0 C-3.98968256 -0.93423645 -3.13349732 -1.04449911 0 0 Z " fill="#0E9CEA" transform="translate(355,653)"/>
<path d="M0 0 C0.99 0.33 1.98 0.66 3 1 C-1.75 5 -1.75 5 -4 5 C-4.33 5.99 -4.66 6.98 -5 8 C-5.66 7.67 -6.32 7.34 -7 7 C-5.71034824 5.62437146 -4.37310707 4.29233607 -3 3 C-2.34 3 -1.68 3 -1 3 C-0.67 2.01 -0.34 1.02 0 0 Z " fill="#0C72BC" transform="translate(281,24)"/>
<path d="M0 0 C2.875 0.6875 2.875 0.6875 6 2 C7.375 4.625 7.375 4.625 8 7 C4.59679258 5.98823563 3.24274669 5.35156418 1.1875 2.375 C0.795625 1.59125 0.40375 0.8075 0 0 Z " fill="#0A7AD0" transform="translate(1035,1518)"/>
<path d="M0 0 C1.98 0 3.96 0 6 0 C6.33 1.98 6.66 3.96 7 6 C3.535 4.02 3.535 4.02 0 2 C0 1.34 0 0.68 0 0 Z " fill="#0E9AEB" transform="translate(170,640)"/>
<path d="M0 0 C-3.82517513 2.39073445 -7.59665524 2.55966552 -12 3 C-8.2391768 -0.7608232 -5.0273023 -0.25136512 0 0 Z " fill="#0F9BEB" transform="translate(968,1897)"/>
<path d="M0 0 C0.6875 1.6875 0.6875 1.6875 1 4 C-0.3125 6.75 -0.3125 6.75 -2 9 C-2.66 9 -3.32 9 -4 9 C-3.34 7.02 -2.68 5.04 -2 3 C-1.34 3 -0.68 3 0 3 C0 2.01 0 1.02 0 0 Z " fill="#0773CB" transform="translate(613,1839)"/>
<path d="M0 0 C2.95183101 2.95183101 3.08663988 5.95511947 4 10 C3.01 9.67 2.02 9.34 1 9 C0.67 6.03 0.34 3.06 0 0 Z " fill="#0E9EE8" transform="translate(652,1522)"/>
<path d="M0 0 C0.66 0 1.32 0 2 0 C2.2475 0.639375 2.495 1.27875 2.75 1.9375 C3.81562433 4.18741541 3.81562433 4.18741541 6.125 4.75 C6.74375 4.8325 7.3625 4.915 8 5 C8 5.66 8 6.32 8 7 C7.01 7.33 6.02 7.66 5 8 C2.74754119 5.31158141 1.11786042 3.35358125 0 0 Z " fill="#0C78CF" transform="translate(980,1440)"/>
<path d="M0 0 C0.66 0.33 1.32 0.66 2 1 C0.70700306 3.88437779 -0.65941363 5.87219421 -3 8 C-3 6.68 -3 5.36 -3 4 C-2.34 4 -1.68 4 -1 4 C-0.67 2.68 -0.34 1.36 0 0 Z " fill="#107EBD" transform="translate(875,1260)"/>
<path d="M0 0 C0.66 0 1.32 0 2 0 C4.42857143 6.28571429 4.42857143 6.28571429 3 10 C0.70366176 6.55549263 0.45983515 4.06187717 0 0 Z " fill="#0976CC" transform="translate(491,1170)"/>
<path d="M0 0 C0.99 0.33 1.98 0.66 3 1 C3.33 3.97 3.66 6.94 4 10 C1.04816899 7.04816899 0.91336012 4.04488053 0 0 Z " fill="#0671C7" transform="translate(480,1138)"/>
<path d="M0 0 C0.33 1.32 0.66 2.64 1 4 C-0.9375 6.25 -0.9375 6.25 -3 8 C-3.66 7.67 -4.32 7.34 -5 7 C-3.35 4.69 -1.7 2.38 0 0 Z " fill="#0C74CC" transform="translate(488,523)"/>
</svg>
